SplineFontDB: 3.2
FontName: AgaveB
FullName: AgaveB Regular
FamilyName: AgaveB-Regular
Weight: Regular
Copyright: (c) 2013-2021 type agaric <agaric@protonmail.com>
Version: 37 ; ttfautohint (v1.8.3)
ItalicAngle: 0
UnderlinePosition: -384
UnderlineWidth: 128
Ascent: 1536
Descent: 512
InvalidEm: 0
sfntRevision: 0x00250000
LayerCount: 2
Layer: 0 1 "+gMxmbwAA" 1
Layer: 1 1 "+Uk1mbwAA" 0
XUID: [1021 327 1617118019 1636218]
StyleMap: 0x0040
FSType: 0
OS2Version: 4
OS2_WeightWidthSlopeOnly: 1
OS2_UseTypoMetrics: 1
CreationTime: 1368797729
ModificationTime: 1648210599
PfmFamily: 17
TTFWeight: 400
TTFWidth: 5
LineGap: 0
VLineGap: 0
Panose: 2 11 5 9 3 6 4 2 2 3
OS2TypoAscent: 1536
OS2TypoAOffset: 0
OS2TypoDescent: -512
OS2TypoDOffset: 0
OS2TypoLinegap: 0
OS2WinAscent: 1536
OS2WinAOffset: 0
OS2WinDescent: 512
OS2WinDOffset: 0
HheadAscent: 1536
HheadAOffset: 0
HheadDescent: -512
HheadDOffset: 0
OS2SubXSize: 1403
OS2SubYSize: 1224
OS2SubXOff: 0
OS2SubYOff: 120
OS2SupXSize: 1403
OS2SupYSize: 1224
OS2SupXOff: 0
OS2SupYOff: 648
OS2StrikeYSize: 128
OS2StrikeYPos: 512
OS2CapHeight: 1280
OS2XHeight: 1024
OS2FamilyClass: 2057
OS2Vendor: 'agrc'
OS2CodePages: 6000019f.dfd70000
OS2UnicodeRanges: e00002ff.1000f8fb.00040000.00000000
MarkAttachClasses: 1
DEI: 91125
TtTable: prep
SVTCA[y-axis]
MPPEM
PUSHW_1
 200
GT
IF
PUSHB_2
 1
 1
INSTCTRL
EIF
PUSHB_1
 1
PUSHW_2
 2048
 2048
MUL
WCVTF
PUSHB_2
 0
 7
WS
PUSHB_7
 0
 78
 65
 49
 33
 5
 0
LOOPCALL
PUSHB_2
 0
 7
WS
NPUSHB
 12
 84
 5
 70
 6
 54
 8
 38
 8
 24
 7
 5
 10
LOOPCALL
PUSHB_2
 0
 7
WS
NPUSHB
 12
 89
 3
 76
 4
 62
 6
 46
 6
 31
 5
 5
 10
LOOPCALL
PUSHB_2
 0
 12
WS
PUSHW_7
 5440
 4544
 3520
 2496
 1600
 5
 11
LOOPCALL
PUSHB_2
 0
 17
WS
PUSHW_7
 64
 64
 64
 64
 64
 5
 11
LOOPCALL
PUSHW_2
 3
 0
WCVTP
PUSHB_2
 36
 1
GETINFO
LTEQ
IF
PUSHB_1
 64
GETINFO
IF
PUSHW_2
 3
 100
WCVTP
PUSHB_2
 40
 1
GETINFO
LTEQ
IF
PUSHW_1
 2048
GETINFO
IF
PUSHW_2
 3
 0
WCVTP
EIF
ELSE
PUSHB_2
 39
 1
GETINFO
LTEQ
IF
PUSHW_3
 2176
 1
 1088
GETINFO
MUL
EQ
IF
PUSHW_2
 3
 0

StartChar: .notdef
Encoding: 65536 -1 0
Width: 1024
Flags: W
LayerCount: 2
Fore
SplineSet
320 1280 m 2,0,-1
 433 1280 l 1,1,-1
 433 1152 l 1,2,-1
 320 1152 l 2,3,4
 267 1152 267 1152 229.5 1114.5 c 128,-1,5
 192 1077 192 1077 192 1024 c 2,6,-1
 192 768 l 1,7,-1
 64 768 l 1,8,-1
 64 1024 l 2,9,10
 64 1130 64 1130 139 1205 c 128,-1,11
 214 1280 214 1280 320 1280 c 2,0,-1
591 1280 m 1,12,-1
 704 1280 l 2,13,14
 810 1280 810 1280 885 1205 c 128,-1,15
 960 1130 960 1130 960 1024 c 2,16,-1
 960 768 l 1,17,-1
 832 768 l 1,18,-1
 832 1024 l 2,19,20
 832 1077 832 1077 794.5 1114.5 c 128,-1,21
 757 1152 757 1152 704 1152 c 2,22,-1
 591 1152 l 1,23,-1
 591 1280 l 1,12,-1
64 512 m 1,24,-1
 192 512 l 1,25,-1
 192 256 l 2,26,27
 192 203 192 203 229.5 165.5 c 128,-1,28
 267 128 267 128 320 128 c 2,29,-1
 433 128 l 1,30,-1
 433 0 l 1,31,-1
 320 0 l 2,32,33
 214 0 214 0 139 75 c 128,-1,34
 64 150 64 150 64 256 c 2,35,-1
 64 512 l 1,24,-1
832 512 m 1,36,-1
 960 512 l 1,37,-1
 960 256 l 2,38,39
 960 150 960 150 885 75 c 128,-1,40
 810 0 810 0 704 0 c 2,41,-1
 591 0 l 1,42,-1
 591 128 l 1,43,-1
 704 128 l 2,44,45
 757 128 757 128 794.5 165.5 c 128,-1,46
 832 203 832 203 832 256 c 2,47,-1
 832 512 l 1,36,-1
EndSplineSet
EndChar

StartChar: exclam
Encoding: 33 33 4
Width: 1024
GlyphClass: 2
Flags: W
LayerCount: 2
Fore
SplineSet
419 1295 m 1,0,-1
 605 1295 l 1,1,-1
 620.15706378 1295 l 1,2,-1
 619.999186264 1279.84375848 l 1,3,-1
 611.999186264 511.843758476 l 1,4,-1
 611.84456378 497 l 1,5,-1
 597 497 l 1,6,-1
 427 497 l 1,7,-1
 412.15543622 497 l 1,8,-1
 412.000813736 511.843758476 l 1,9,-1
 404.000813736 1279.84375848 l 1,10,-1
 403.84293622 1295 l 1,11,-1
 419 1295 l 1,0,-1
384 271 m 1,12,-1
 640 271 l 1,13,-1
 655 271 l 1,14,-1
 655 256 l 1,15,-1
 655 0 l 1,16,-1
 655 -15 l 1,17,-1
 640 -15 l 1,18,-1
 384 -15 l 1,19,-1
 369 -15 l 1,20,-1
 369 0 l 1,21,-1
 369 256 l 1,22,-1
 369 271 l 1,23,-1
 384 271 l 1,12,-1
EndSplineSet
EndChar

StartChar: quotedbl
Encoding: 34 34 5
Width: 1024
GlyphClass: 2
Flags: W
LayerCount: 2
Fore
SplineSet
264 1295 m 1,0,-1
 434 1295 l 1,1,-1
 449.355681807 1295 l 1,2,-1
 448.995881824 1279.64853402 l 1,3,-1
 436.995881824 767.64853402 l 1,4,-1
 436.652556807 753 l 1,5,-1
 422 753 l 1,6,-1
 275 753 l 1,7,-1
 260.318804187 753 l 1,8,-1
 260.00346064 767.677808725 l 1,9,-1
 249.00346064 1279.67780872 l 1,10,-1
 248.674272937 1295 l 1,11,-1
 264 1295 l 1,0,-1
590 1295 m 1,12,-1
 760 1295 l 1,13,-1
 775.325727063 1295 l 1,14,-1
 774.99653936 1279.67780872 l 1,15,-1
 763.99653936 767.677808725 l 1,16,-1
 763.681195813 753 l 1,17,-1
 749 753 l 1,18,-1
 602 753 l 1,19,-1
 587.347443193 753 l 1,20,-1
 587.004118176 767.64853402 l 1,21,-1
 575.004118176 1279.64853402 l 1,22,-1
 574.644318193 1295 l 1,23,-1
 590 1295 l 1,12,-1
EndSplineSet
EndChar

StartChar: numbersign
Encoding: 35 35 6
Width: 1024
GlyphClass: 2
Flags: W
LayerCount: 2
Fore
SplineSet
244 1295 m 1,0,-1
 390 1295 l 1,1,-1
 405 1295 l 1,2,-1
 405 1280 l 1,3,-1
 405 966 l 1,4,-1
 619 966 l 1,5,-1
 619 1280 l 1,6,-1
 619 1295 l 1,7,-1
 634 1295 l 1,8,-1
 780 1295 l 1,9,-1
 795 1295 l 1,10,-1
 795 1280 l 1,11,-1
 795 966 l 1,12,-1
 960 966 l 1,13,-1
 975 966 l 1,14,-1
 975 951 l 1,15,-1
 975 805 l 1,16,-1
 975 790 l 1,17,-1
 960 790 l 1,18,-1
 795 790 l 1,19,-1
 795 490 l 1,20,-1
 960 490 l 1,21,-1
 975 490 l 1,22,-1
 975 475 l 1,23,-1
 975 329 l 1,24,-1
 975 314 l 1,25,-1
 960 314 l 1,26,-1
 795 314 l 1,27,-1
 795 0 l 1,28,-1
 795 -15 l 1,29,-1
 780 -15 l 1,30,-1
 634 -15 l 1,31,-1
 619 -15 l 1,32,-1
 619 0 l 1,33,-1
 619 314 l 1,34,-1
 405 314 l 1,35,-1
 405 0 l 1,36,-1
 405 -15 l 1,37,-1
 390 -15 l 1,38,-1
 244 -15 l 1,39,-1
 229 -15 l 1,40,-1
 229 0 l 1,41,-1
 229 314 l 1,42,-1
 64 314 l 1,43,-1
 49 314 l 1,44,-1
 49 329 l 1,45,-1
 49 475 l 1,46,-1
 49 490 l 1,47,-1
 64 490 l 1,48,-1
 229 490 l 1,49,-1
 229 790 l 1,50,-1
 64 790 l 1,51,-1
 49 790 l 1,52,-1
 49 805 l 1,53,-1
 49 951 l 1,54,-1
 49 966 l 1,55,-1
 64 966 l 1,56,-1
 229 966 l 1,57,-1
 229 1280 l 1,58,-1
 229 1295 l 1,59,-1
 244 1295 l 1,0,-1
619 790 m 1,60,-1
 405 790 l 1,61,-1
 405 490 l 1,62,-1
 619 490 l 1,63,-1
 619 790 l 1,60,-1
EndSplineSet
EndChar

StartChar: dollar
Encoding: 36 36 7
Width: 1024
GlyphClass: 2
Flags: W
LayerCount: 2
Fore
SplineSet
433.136847081 1437 m 1,0,-1
 449.466320019 1437 l 1,1,-1
 634.533679981 1437 l 1,2,-1
 650.863152919 1437 l 1,3,-1
 650.863152919 1422 l 1,4,-1
 650.863152919 1203.62207031 l 1,5,6
 658.753605272 1203.82421875 658.753605272 1203.82421875 666.501599984 1203.91210938 c 128,-1,7
 674.249594695 1204 674.249594695 1204 683.522098795 1204 c 0,8,9
 748.540039062 1204 748.540039062 1204 804.578125 1199.9609375 c 128,-1,10
 860.727539062 1195.9140625 860.727539062 1195.9140625 886.370117188 1191.81152344 c 2,11,-1
 911.370117188 1187.81152344 l 1,12,-1
 924 1185.79101562 l 1,13,-1
 924 1173 l 1,14,-1
 924 1024 l 1,15,-1
 924 1009 l 1,16,-1
 909 1009 l 1,17,-1
 628.001890806 1009 l 1,18,-1
 628.001890806 709.405273438 l 1,19,20
 637.805953269 706.99609375 637.805953269 706.99609375 646.92855791 704.6953125 c 128,-1,21
 656.05116255 702.393554688 656.05116255 702.393554688 664.612441559 700.169921875 c 128,-1,22
 673.174783684 697.9453125 673.174783684 697.9453125 681.142843558 695.806640625 c 128,-1,23
 689.109840316 693.66796875 689.109840316 693.66796875 696.595245195 691.584960938 c 128,-1,24
 704.080650075 689.500976562 704.080650075 689.500976562 711.057885159 687.48046875 c 128,-1,25
 718.03618336 685.459960938 718.03618336 685.459960938 724.610497204 683.47265625 c 0,26,27
 764.725585938 670.31640625 764.725585938 670.31640625 815.154296875 645.678710938 c 0,28,29
 822.454101562 642.111328125 822.454101562 642.111328125 829.318359375 638.4765625 c 128,-1,30
 836.182617188 634.841796875 836.182617188 634.841796875 842.6796875 631.096679688 c 128,-1,31
 849.176757812 627.352539062 849.176757812 627.352539062 855.241210938 623.530273438 c 128,-1,32
 861.306640625 619.70703125 861.306640625 619.70703125 866.99609375 615.768554688 c 128,-1,33
 872.685546875 611.830078125 872.685546875 611.830078125 877.947265625 607.8046875 c 128,-1,34
 883.209960938 603.778320312 883.209960938 603.778320312 888.086914062 599.629882812 c 128,-1,35
 892.96484375 595.481445312 892.96484375 595.481445312 897.418945312 591.235351562 c 0,36,37
 928.4453125 561.6640625 928.4453125 561.6640625 950.124023438 515.2109375 c 0,38,39
 972 468.334960938 972 468.334960938 972 410.795898438 c 0,40,41
 972 278.7734375 972 278.7734375 886.95703125 204.268554688 c 0,42,43
 860.116210938 180.75390625 860.116210938 180.75390625 825.099609375 162.025390625 c 128,-1,44
 790.083984375 143.297851562 790.083984375 143.297851562 748.1953125 129.6953125 c 0,45,46
 704.539916502 116.092773438 704.539916502 116.092773438 650.863152919 107.153320312 c 1,47,-1
 650.863152919 -142 l 1,48,-1
 650.863152919 -157 l 1,49,-1
 634.533679981 -157 l 1,50,-1
 449.466320019 -157 l 1,51,-1
 433.136847081 -157 l 1,52,-1
 433.136847081 -142 l 1,53,-1
 433.136847081 76.505859375 l 1,54,55
 410.611529854 76 410.611529854 76 379.793902151 76 c 0,56,57
 313.4921875 76 313.4921875 76 253.985351562 80.0341796875 c 128,-1,58
 194.390625 84.07421875 194.390625 84.07421875 166.760742188 88.16796875 c 2,59,-1
 140.71875 92.1748046875 l 1,60,-1
 128 94.130859375 l 1,61,-1
 128 107 l 1,62,-1
 128 256 l 1,63,-1
 128 271 l 1,64,-1
 143 271 l 1,65,-1
 455.998109194 271 l 1,66,-1
 455.998109194 570.594726562 l 1,67,68
 441.288826149 574.208984375 441.288826149 574.208984375 428.077474574 577.58984375 c 128,-1,69
 414.867186115 580.969726562 414.867186115 580.969726562 402.859282675 584.192382812 c 128,-1,70
 390.852442353 587.416015625 390.852442353 587.416015625 380.053302632 590.48046875 c 128,-1,71
 369.253099795 593.545898438 369.253099795 593.545898438 359.389502796 596.52734375 c 0,72,73
 319.274414062 609.68359375 319.274414062 609.68359375 268.845703125 634.321289062 c 0,74,75
 243.1640625 646.869140625 243.1640625 646.869140625 222.624023438 660.428710938 c 128,-1,76
 202.084960938 673.98828125 202.084960938 673.98828125 186.581054688 688.764648438 c 0,77,78
 176.15625 698.700195312 176.15625 698.700195312 166.791015625 710.541992188 c 128,-1,79
 157.426757812 722.3828125 157.426757812 722.3828125 149.237304688 735.90234375 c 128,-1,80
 141.047851562 749.421875 141.047851562 749.421875 133.875976562 764.7890625 c 0,81,82
 122.918945312 788.268554688 122.918945312 788.268554688 117.458984375 814.424804688 c 128,-1,83
 112 840.58203125 112 840.58203125 112 869.204101562 c 0,84,85
 112 1003.16992188 112 1003.16992188 197.00390625 1078.16503906 c 0,86,87
 276.823242188 1148.5859375 276.823242188 1148.5859375 433.136847081 1174.89746094 c 1,88,-1
 433.136847081 1422 l 1,89,-1
 433.136847081 1437 l 1,0,-1
455.998109194 749.645507812 m 1,90,-1
 455.998109194 991.728515625 l 1,91,92
 312 962.025390625 312 962.025390625 312 877 c 0,93,94
 312 860.359375 312 860.359375 316.029296875 846.393554688 c 128,-1,95
 320.057617188 832.428710938 320.057617188 832.428710938 328.181640625 820.772460938 c 128,-1,96
 336.305664062 809.1171875 336.305664062 809.1171875 348.786132812 799.280273438 c 0,97,98
 386.043965393 771.727539062 386.043965393 771.727539062 455.998109194 749.645507812 c 1,90,-1
735.213867188 480.719726562 m 0,99,100
 697.956034607 508.272460938 697.956034607 508.272460938 628.001890806 530.354492188 c 1,101,-1
 628.001890806 290.372070312 l 1,102,103
 772 320.805664062 772 320.805664062 772 403 c 0,104,105
 772 451.723632812 772 451.723632812 735.213867188 480.719726562 c 0,99,100
EndSplineSet
EndChar

StartChar: percent
Encoding: 37 37 8
Width: 1024
GlyphClass: 2
Flags: W
LayerCount: 2
Fore
SplineSet
138.333984375 1280 m 1,0,-1
 153.333984375 1280 l 1,1,-1
 367.931091538 1280 l 1,2,-1
 383.919778878 1280 l 1,3,-1
 383.919778878 1265 l 1,4,-1
 383.919778878 945 l 1,5,-1
 383.919778878 930 l 1,6,-1
 367.931091538 930 l 1,7,-1
 153.333984375 930 l 1,8,-1
 138.333984375 930 l 1,9,-1
 138.333984375 945 l 1,10,-1
 138.333984375 1265 l 1,11,-1
 138.333984375 1280 l 1,0,-1
812.453125 1280 m 1,12,-1
 821.333984375 1280 l 1,13,-1
 1015.33398438 1280 l 1,14,-1
 1040.66894531 1280 l 1,15,-1
 1028.48632812 1258.29882812 l 1,16,-1
 296.486328125 7.787109375 l 1,17,-1
 292.215820312 0 l 1,18,-1
 283.333984375 0 l 1,19,-1
 89.333984375 0 l 1,20,-1
 64 0 l 1,21,-1
 76.1826171875 21.701171875 l 1,22,-1
 808.182617188 1272.21289062 l 1,23,-1
 812.453125 1280 l 1,12,-1
720.748125505 350 m 1,24,-1
 736.736812845 350 l 1,25,-1
 951.333984375 350 l 1,26,-1
 966.333984375 350 l 1,27,-1
 966.333984375 335 l 1,28,-1
 966.333984375 15 l 1,29,-1
 966.333984375 0 l 1,30,-1
 951.333984375 0 l 1,31,-1
 736.736812845 0 l 1,32,-1
 720.748125505 0 l 1,33,-1
 720.748125505 15 l 1,34,-1
 720.748125505 335 l 1,35,-1
 720.748125505 350 l 1,24,-1
EndSplineSet
EndChar

StartChar: ampersand
Encoding: 38 38 9
Width: 1024
GlyphClass: 2
Flags: W
LayerCount: 2
Fore
SplineSet
503 1303 m 0,0,1
 538.94857232 1303 538.94857232 1303 571.389588056 1298.88050594 c 128,-1,2
 603.89027583 1294.75343447 603.89027583 1294.75343447 619.99319099 1290.45932377 c 2,3,-1
 634.120816918 1286.42285921 l 1,4,-1
 645 1283.31452119 l 1,5,-1
 645 1272 l 1,6,-1
 645 1123 l 1,7,-1
 645 1108 l 1,8,-1
 630 1108 l 1,9,-1
 503 1108 l 2,10,11
 454.559143931 1108 454.559143931 1108 418.64521256 1098.48993286 c 128,-1,12
 382.731281189 1088.97986571 382.731281189 1088.97986571 359.216984929 1070.66584651 c 0,13,14
 313 1034.66992556 313 1034.66992556 313 946 c 0,15,16
 313 868.831383255 313 868.831383255 344.68023057 824.754540722 c 0,17,18
 374.691306714 783 374.691306714 783 425 783 c 2,19,-1
 615 783 l 1,20,-1
 615 987 l 1,21,-1
 615 1002 l 1,22,-1
 630 1002 l 1,23,-1
 800 1002 l 1,24,-1
 815 1002 l 1,25,-1
 815 987 l 1,26,-1
 815 783 l 1,27,-1
 960 783 l 1,28,-1
 975 783 l 1,29,-1
 975 768 l 1,30,-1
 975 611 l 1,31,-1
 975 596 l 1,32,-1
 960 596 l 1,33,-1
 815 596 l 1,34,-1
 815 321 l 2,35,36
 815 290.02191449 815 290.02191449 819.403629484 265.112577546 c 128,-1,37
 823.807258968 240.203240602 823.807258968 240.203240602 831.873445011 222.559742538 c 128,-1,38
 839.939631054 204.916244474 839.939631054 204.916244474 851.670688182 193.042125674 c 0,39,40
 869.776408892 174.715603492 869.776408892 174.715603492 896.608055209 165.357801746 c 128,-1,41
 923.439701525 156 923.439701525 156 960 156 c 2,42,-1
 975 156 l 1,43,-1
 975 141 l 1,44,-1
 975 -8 l 1,45,-1
 975 -23 l 1,46,-1
 960 -23 l 2,47,48
 735.509426989 -23 735.509426989 -23 657.929065905 116.715862469 c 1,49,-1
 522.606601718 -18.6066017178 l 1,50,-1
 518.213203436 -23 l 1,51,-1
 512 -23 l 2,52,53
 286.815307753 -23 286.815307753 -23 168.737248149 69.7016345138 c 0,54,55
 49 163.705877578 49 163.705877578 49 380 c 0,56,57
 49 451.177688841 49 451.177688841 67.1192583727 512.265474211 c 0,58,59
 85.3336962843 573.674150599 85.3336962843 573.674150599 111.793997932 610.718572906 c 0,60,61
 137.472131057 646.667959281 137.472131057 646.667959281 163.288907413 673.001071164 c 0,62,63
 175.283918215 685.235982182 175.283918215 685.235982182 186.121770394 694.496248851 c 128,-1,64
 196.959622573 703.756515519 196.959622573 703.756515519 205.769123638 709.331918469 c 1,65,66
 204.557487659 710.45549068 204.557487659 710.45549068 203.389368228 711.570657963 c 128,-1,67
 202.221248797 712.685825246 202.221248797 712.685825246 201.053745294 713.835989914 c 128,-1,68
 199.886241792 714.986154582 199.886241792 714.986154582 198.74235423 716.143397877 c 128,-1,69
 197.598466669 717.300641173 197.598466669 717.300641173 196.387742155 718.561151486 c 128,-1,70
 195.17701764 719.8216618 195.17701764 719.8216618 193.973178613 721.101215224 c 128,-1,71
 192.769339586 722.380768649 192.769339586 722.380768649 191.431210723 723.831858725 c 128,-1,72
 190.093081861 725.282948801 190.093081861 725.282948801 188.745108031 726.765046472 c 128,-1,73
 187.397134201 728.247144143 187.397134201 728.247144143 185.850587806 729.965529026 c 0,74,75
 179.484182053 737.039313196 179.484182053 737.039313196 173.590135838 744.643459753 c 128,-1,76
 167.696089624 752.24760631 167.696089624 752.24760631 162.296939566 760.346504057 c 128,-1,77
 156.897789509 768.445401803 156.897789509 768.445401803 151.976352868 777.057915925 c 0,78,79
 149.767322316 780.92371939 149.767322316 780.92371939 147.640359024 785.158943462 c 128,-1,80
 145.513395731 789.394167533 145.513395731 789.394167533 143.485251679 793.953697541 c 128,-1,81
 141.457107626 798.51322755 141.457107626 798.51322755 139.497300722 803.461576514 c 128,-1,82
 137.537493817 808.409925478 137.537493817 808.409925478 135.667200724 813.674509285 c 128,-1,83
 133.79690763 818.939093091 133.79690763 818.939093091 131.980926595 824.613725499 c 128,-1,84
 130.164945559 830.288357907 130.164945559 830.288357907 128.429172905 836.271154064 c 128,-1,85
 126.693400252 842.25395022 126.693400252 842.25395022 124.998209545 848.666193328 c 0,86,87
 118.987854397 871.401014973 118.987854397 871.401014973 115.993927199 895.74293408 c 128,-1,88
 113 920.084853187 113 920.084853187 113 946 c 0,89,90
 113 1138.08728937 113 1138.08728937 213.975027871 1221.08770495 c 0,91,92
 313.626291279 1303 313.626291279 1303 503 1303 c 0,0,1
385 596 m 2,93,94
 323.118319903 596 323.118319903 596 287.058111265 540.796717641 c 0,95,96
 249 482.53491768 249 482.53491768 249 380 c 0,97,98
 249 280.031665621 249 280.031665621 318.095152727 222.529659325 c 0,99,100
 353.04552129 193.443446561 353.04552129 193.443446561 401.364426438 178.72172328 c 128,-1,101
 449.683331585 164 449.683331585 164 512 164 c 2,102,-1
 637.299972807 164 l 1,103,104
 615 230.085423043 615 230.085423043 615 321 c 2,105,-1
 615 596 l 1,106,-1
 385 596 l 2,93,94
EndSplineSet
EndChar

StartChar: quotesingle
Encoding: 39 39 10
Width: 1024
GlyphClass: 2
Flags: W
LayerCount: 2
Fore
SplineSet
427 1295 m 1,0,-1
 597 1295 l 1,1,-1
 612.355681807 1295 l 1,2,-1
 611.995881824 1279.64853402 l 1,3,-1
 599.995881824 767.64853402 l 1,4,-1
 599.652556807 753 l 1,5,-1
 585 753 l 1,6,-1
 439 753 l 1,7,-1
 424.347443193 753 l 1,8,-1
 424.004118176 767.64853402 l 1,9,-1
 412.004118176 1279.64853402 l 1,10,-1
 411.644318193 1295 l 1,11,-1
 427 1295 l 1,0,-1
EndSplineSet
EndChar

StartChar: parenleft
Encoding: 40 40 11
Width: 1024
GlyphClass: 2
Flags: W
LayerCount: 2
Fore
SplineSet
662 1452 m 1,0,-1
 854 1452 l 1,1,-1
 900.806975801 1452 l 1,2,-1
 862.718572906 1424.79399793 l 2,3,4
 861.447953768 1423.88641283 861.447953768 1423.88641283 859.913647026 1422.74431582 c 128,-1,5
 858.379340285 1421.6022188 858.379340285 1421.6022188 856.561790253 1420.20968868 c 128,-1,6
 854.74424022 1418.81715856 854.74424022 1418.81715856 852.691670699 1417.21069196 c 128,-1,7
 850.639101178 1415.60422536 850.639101178 1415.60422536 848.303203445 1413.74423135 c 128,-1,8
 845.967305713 1411.88423734 845.967305713 1411.88423734 843.425056606 1409.8308823 c 0,9,10
 837.612475481 1405.13610523 837.612475481 1405.13610523 824.960031159 1393.11524432 c 128,-1,11
 812.307586838 1381.0943834 812.307586838 1381.0943834 794.106601718 1362.89339828 c 128,-1,12
 775.720600592 1344.50739716 775.720600592 1344.50739716 758.303110215 1324.51408027 c 128,-1,13
 740.885619839 1304.52076338 740.885619839 1304.52076338 724.434588336 1282.91343843 c 128,-1,14
 708.095068976 1261.45257718 708.095068976 1261.45257718 689.585220862 1232.45446446 c 128,-1,15
 671.075372748 1203.45635175 671.075372748 1203.45635175 650.56175107 1167.1249977 c 0,16,17
 609.670594034 1094.70330993 609.670594034 1094.70330993 580.594359411 1014.8668691 c 128,-1,18
 551.531218681 935.066380997 551.531218681 935.066380997 531.259092424 823.322465534 c 128,-1,19
 511 711.650395099 511 711.650395099 511 591 c 0,20,21
 511 530.621186786 511 530.621186786 515.821518591 472.639329755 c 128,-1,22
 520.643037182 414.657472723 520.643037182 414.657472723 530.279620306 359.061800853 c 0,23,24
 549.524671503 248.032659334 549.524671503 248.032659334 580.984836507 166.924421433 c 0,25,26
 612.663087997 85.2539293104 612.663087997 85.2539293104 650.245536327 14.5395857405 c 0,27,28
 687.569767811 -55.6889024462 687.569767811 -55.6889024462 724.664450404 -101.569167758 c 0,29,30
 762.309704931 -148.130403621 762.309704931 -148.130403621 793.92299989 -181.719529515 c 0,31,32
 825.163941474 -214.913029948 825.163941474 -214.913029948 843.148737476 -229.111553107 c 2,33,-1
 863 -244 l 1,34,-1
 899 -271 l 1,35,-1
 854 -271 l 1,36,-1
 662 -271 l 1,37,-1
 657.193024199 -271 l 1,38,-1
 653.281427094 -268.206002068 l 2,39,40
 651.372182357 -266.842255827 651.372182357 -266.842255827 649.131629486 -265.16309084 c 128,-1,41
 646.891076616 -263.483925852 646.891076616 -263.483925852 644.301987537 -261.476461669 c 128,-1,42
 641.712898458 -259.468997487 641.712898458 -259.468997487 638.808172854 -257.163261076 c 128,-1,43
 635.903447251 -254.857524664 635.903447251 -254.857524664 632.574943394 -252.169117703 c 0,44,45
 618.876899986 -241.105313412 618.876899986 -241.105313412 581.751047242 -202.962314018 c 128,-1,46
 544.578524484 -164.771365979 544.578524484 -164.771365979 511 -120 c 128,-1,47
 477.393060646 -75.190747528 477.393060646 -75.190747528 435.900270949 -0.807331851599 c 0,48,49
 394.288789462 73.7888605697 394.288789462 73.7888605697 364.86799636 156.471434288 c 128,-1,50
 335.447941377 239.151933638 335.447941377 239.151933638 315.229564391 353.385763609 c 128,-1,51
 295 467.682802416 295 467.682802416 295 591 c 0,52,53
 295 652.621186782 295 652.621186782 299.928481409 711.889329755 c 128,-1,54
 304.856962819 771.157472727 304.856962819 771.157472727 314.720379694 828.061800853 c 0,55,56
 334.461650844 941.953749795 334.461650844 941.953749795 365.958562677 1025.77617645 c 0,57,58
 397.285048988 1109.14505131 397.285048988 1109.14505131 435.216165202 1181.46704622 c 0,59,60
 473.3814618 1254.23554507 473.3814618 1254.23554507 511.774808362 1302.35520609 c 0,61,62
 530.682977223 1326.0534444 530.682977223 1326.0534444 547.975975988 1346.3759183 c 128,-1,63
 565.268974754 1366.69839219 565.268974754 1366.69839219 580.990556403 1383.68784333 c 0,64,65
 612.786050008 1418.04748964 612.786050008 1418.04748964 632.851262524 1433.88844689 c 2,66,-1
 653 1449 l 1,67,-1
 657 1452 l 1,68,-1
 662 1452 l 1,0,-1
EndSplineSet
EndChar

StartChar: parenright
Encoding: 41 41 12
Width: 1024
GlyphClass: 2
Flags: W
LayerCount: 2
Fore
SplineSet
370.718572906 1449.20600207 m 2,0,1
 378.079758173 1443.94801259 378.079758173 1443.94801259 391.425056606 1433.1691177 c 0,2,3
 405.123100014 1422.10531341 405.123100014 1422.10531341 442.248952758 1383.96231402 c 128,-1,4
 479.421475516 1345.77136598 479.421475516 1345.77136598 513 1301 c 0,5,6
 524.282896103 1285.95613853 524.282896103 1285.95613853 536.400869967 1267.66642872 c 128,-1,7
 548.518843831 1249.3767189 548.518843831 1249.3767189 561.404582226 1227.96997074 c 128,-1,8
 574.290320621 1206.56322257 574.290320621 1206.56322257 588.099729051 1181.80733185 c 0,9,10
 608.903334574 1144.51306341 608.903334574 1144.51306341 626.660033989 1105.32149281 c 128,-1,11
 644.416733404 1066.12992221 644.416733404 1066.12992221 659.122179834 1025.05608908 c 128,-1,12
 673.876813363 983.844871288 673.876813363 983.844871288 686.273085475 934.76509925 c 128,-1,13
 698.669357588 885.685327211 698.669357588 885.685327211 708.770435609 828.614236391 c 0,14,15
 729 714.317197584 729 714.317197584 729 591 c 0,16,17
 729 529.378813218 729 529.378813218 724.071518591 470.110670245 c 128,-1,18
 719.143037181 410.842527273 719.143037181 410.842527273 709.279620306 353.938199147 c 128,-1,19
 699.419353144 297.052042446 699.419353144 297.052042446 686.625178481 247.648243254 c 128,-1,20
 673.831003817 198.244444061 673.831003817 198.244444061 658.041437323 156.223823552 c 0,21,22
 626.714951012 72.8549486928 626.714951012 72.8549486928 588.783834798 0.53295377743 c 0,23,24
 550.6185382 -72.2355450697 550.6185382 -72.2355450697 512.225191638 -120.355206094 c 0,25,26
 493.332888045 -144.03355993 493.332888045 -144.03355993 476.056885437 -164.462151062 c 128,-1,27
 458.780882829 -184.890742194 458.780882829 -184.890742194 443.084337659 -202.106307865 c 0,28,29
 432.432080883 -213.7894282 432.432080883 -213.7894282 423.38489453 -223.075015161 c 128,-1,30
 414.337708176 -232.360602122 414.337708176 -232.360602122 406.245354802 -239.859683474 c 128,-1,31
 398.153001427 -247.358764826 398.153001427 -247.358764826 391.148737476 -252.888446893 c 2,32,-1
 371 -268 l 1,33,-1
 367 -271 l 1,34,-1
 362 -271 l 1,35,-1
 170 -271 l 1,36,-1
 123.193024199 -271 l 1,37,-1
 161.281427094 -243.793997932 l 2,38,39
 167.920241827 -239.051987408 167.920241827 -239.051987408 180.574943394 -228.830882297 c 0,40,41
 192.955991937 -218.830804627 192.955991937 -218.830804627 229.893398282 -181.893398282 c 128,-1,42
 266.678153863 -145.108642702 266.678153863 -145.108642702 299.565411664 -101.913438426 c 128,-1,43
 332.443233014 -58.7306282936 332.443233014 -58.7306282936 373.43824893 13.8750023047 c 128,-1,44
 414.322076259 86.2837085369 414.322076259 86.2837085369 443.395534746 166.605297239 c 128,-1,45
 472.46611954 246.918946753 472.46611954 246.918946753 492.740907576 358.677534466 c 128,-1,46
 513 470.349604901 513 470.349604901 513 591 c 128,-1,47
 513 711.709620459 513 711.709620459 493.720379694 822.938199147 c 128,-1,48
 474.475328497 933.967340666 474.475328497 933.967340666 443.015163493 1015.07557857 c 0,49,50
 427.169284585 1055.92823513 427.169284585 1055.92823513 409.85261404 1094.02490618 c 128,-1,51
 392.535943495 1132.12157723 392.535943495 1132.12157723 373.754463673 1167.46041426 c 0,52,53
 336.430232189 1237.68890245 336.430232189 1237.68890245 299.335549596 1283.56916776 c 0,54,55
 280.515398507 1306.84672305 280.515398507 1306.84672305 263.208177883 1326.74997666 c 128,-1,56
 245.900957258 1346.65323027 245.900957258 1346.65323027 230.153342871 1363.13901409 c 0,57,58
 198.87982748 1395.87847551 198.87982748 1395.87847551 180.851262524 1410.11155311 c 2,59,-1
 161 1425 l 1,60,-1
 125 1452 l 1,61,-1
 170 1452 l 1,62,-1
 362 1452 l 1,63,-1
 366.806975801 1452 l 1,64,-1
 370.718572906 1449.20600207 l 2,0,1
EndSplineSet
EndChar

StartChar: asterisk
Encoding: 42 42 13
Width: 1024
GlyphClass: 2
Flags: W
LayerCount: 2
Fore
SplineSet
439 1295 m 1,0,-1
 585 1295 l 1,1,-1
 600.171914157 1295 l 1,2,-1
 599.999026077 1279.82907093 l 1,3,-1
 596.23950544 949.931135016 l 1,4,-1
 910.231043171 1055.22171054 l 1,5,-1
 924.602197435 1060.04078024 l 1,6,-1
 929.270783145 1045.62003771 l 1,7,-1
 974.270783145 906.620037709 l 1,8,-1
 978.934260018 892.215075813 l 1,9,-1
 964.486287424 887.686606791 l 1,10,-1
 649.653880364 789.007792638 l 1,11,-1
 847.030646655 523.95899219 l 1,12,-1
 856.082257543 511.803971855 l 1,13,-1
 843.834787542 502.877849651 l 1,14,-1
 725.834787542 416.877849651 l 1,15,-1
 713.576127072 407.943571681 l 1,16,-1
 704.779679407 420.301507912 l 1,17,-1
 512 691.133447762 l 1,18,-1
 319.220320593 420.301507912 l 1,19,-1
 310.423872928 407.943571681 l 1,20,-1
 298.165212458 416.877849651 l 1,21,-1
 180.165212458 502.877849651 l 1,22,-1
 167.917742457 511.803971855 l 1,23,-1
 176.969353345 523.95899219 l 1,24,-1
 374.346119636 789.007792638 l 1,25,-1
 59.5137125763 887.686606791 l 1,26,-1
 45.0657399824 892.215075813 l 1,27,-1
 49.7292168551 906.620037709 l 1,28,-1
 94.7292168551 1045.62003771 l 1,29,-1
 99.3978025653 1060.04078024 l 1,30,-1
 113.768956829 1055.22171054 l 1,31,-1
 427.76049456 949.931135016 l 1,32,-1
 424.000973923 1279.82907093 l 1,33,-1
 423.828085843 1295 l 1,34,-1
 439 1295 l 1,0,-1
EndSplineSet
EndChar

StartChar: plus
Encoding: 43 43 14
Width: 1024
GlyphClass: 2
Flags: W
LayerCount: 2
Fore
SplineSet
427 1103 m 1,0,-1
 597 1103 l 1,1,-1
 612 1103 l 1,2,-1
 612 1088 l 1,3,-1
 612 734 l 1,4,-1
 960 734 l 1,5,-1
 975 734 l 1,6,-1
 975 719 l 1,7,-1
 975 561 l 1,8,-1
 975 546 l 1,9,-1
 960 546 l 1,10,-1
 612 546 l 1,11,-1
 612 192 l 1,12,-1
 612 177 l 1,13,-1
 597 177 l 1,14,-1
 427 177 l 1,15,-1
 412 177 l 1,16,-1
 412 192 l 1,17,-1
 412 546 l 1,18,-1
 64 546 l 1,19,-1
 49 546 l 1,20,-1
 49 561 l 1,21,-1
 49 719 l 1,22,-1
 49 734 l 1,23,-1
 64 734 l 1,24,-1
 412 734 l 1,25,-1
 412 1088 l 1,26,-1
 412 1103 l 1,27,-1
 427 1103 l 1,0,-1
EndSplineSet
EndChar

StartChar: comma
Encoding: 44 44 15
Width: 1024
GlyphClass: 2
Flags: W
LayerCount: 2
Fore
SplineSet
384 431 m 1,0,-1
 640 431 l 1,1,-1
 655 431 l 1,2,-1
 655 416 l 1,3,-1
 655 160 l 2,4,5
 655 152.349054291 655 152.349054291 653.943608823 140.200555755 c 0,6,7
 653.558891472 135.776306215 653.558891472 135.776306215 652.560547832 129.008513586 c 128,-1,8
 651.562204192 122.240720956 651.562204192 122.240720956 650.023933567 113.439643638 c 128,-1,9
 648.485662943 104.63856632 648.485662943 104.63856632 646.240658678 92.722774452 c 0,10,11
 642.878264574 74.8762211298 642.878264574 74.8762211298 638.091289411 57.4102303231 c 128,-1,12
 633.304314248 39.9442395164 633.304314248 39.9442395164 627.096901352 22.8738540537 c 0,13,14
 614.586758602 -11.5290385105 614.586758602 -11.5290385105 587.310134171 -56.3038748399 c 0,15,16
 559.876095804 -101.337107632 559.876095804 -101.337107632 522.606601718 -138.606601718 c 2,17,-1
 394.606601718 -266.606601718 l 1,18,-1
 384.508816778 -276.704386657 l 1,19,-1
 373.927208629 -267.114804272 l 1,20,-1
 245.927208629 -151.114804272 l 1,21,-1
 234.252341043 -140.534455522 l 1,22,-1
 245.393398282 -129.393398282 l 1,23,-1
 373.393398282 -1.3933982822 l 2,24,25
 387.484148209 12.6973516448 387.484148209 12.6973516448 400.046200763 25.9422880785 c 128,-1,26
 412.608253317 39.1872245121 412.608253317 39.1872245121 423.549196212 51.4838193113 c 128,-1,27
 434.490139107 63.7804141104 434.490139107 63.7804141104 443.843274319 75.1472571609 c 128,-1,28
 453.19640953 86.5141002115 453.19640953 86.5141002115 460.966501681 96.9551615398 c 0,29,30
 473.052274854 113.195419241 473.052274854 113.195419241 481.043904194 125.730839105 c 128,-1,31
 489.035533535 138.266258969 489.035533535 138.266258969 491.944585963 145 c 1,32,-1
 384 145 l 1,33,-1
 369 145 l 1,34,-1
 369 160 l 1,35,-1
 369 416 l 1,36,-1
 369 431 l 1,37,-1
 384 431 l 1,0,-1
EndSplineSet
EndChar

StartChar: hyphen
Encoding: 45 45 16
Width: 1024
GlyphClass: 2
Flags: W
LayerCount: 2
Fore
SplineSet
192 734 m 1,0,-1
 832 734 l 1,1,-1
 847 734 l 1,2,-1
 847 719 l 1,3,-1
 847 561 l 1,4,-1
 847 546 l 1,5,-1
 832 546 l 1,6,-1
 192 546 l 1,7,-1
 177 546 l 1,8,-1
 177 561 l 1,9,-1
 177 719 l 1,10,-1
 177 734 l 1,11,-1
 192 734 l 1,0,-1
EndSplineSet
EndChar

StartChar: period
Encoding: 46 46 17
Width: 1024
GlyphClass: 2
Flags: W
LayerCount: 2
Fore
SplineSet
640 -15 m 1,0,-1
 384 -15 l 1,1,-1
 369 -15 l 1,2,-1
 369 0 l 1,3,-1
 369 320 l 1,4,-1
 369 335 l 1,5,-1
 384 335 l 1,6,-1
 640 335 l 1,7,-1
 655 335 l 1,8,-1
 655 320 l 1,9,-1
 655 0 l 1,10,-1
 655 -15 l 1,11,-1
 640 -15 l 1,0,-1
EndSplineSet
EndChar

StartChar: slash
Encoding: 47 47 18
Width: 1024
GlyphClass: 2
Flags: W
LayerCount: 2
Fore
SplineSet
162.595909387 -251.814050454 m 1,0,-1
 654.595909387 1441.18594955 l 1,1,-1
 657.738563151 1452 l 1,2,-1
 669 1452 l 1,3,-1
 847 1452 l 1,4,-1
 866.991023306 1452 l 1,5,-1
 861.401808884 1432.80620686 l 1,6,-1
 368.401808884 -260.193793136 l 1,7,-1
 365.255051658 -271 l 1,8,-1
 354 -271 l 1,9,-1
 177 -271 l 1,10,-1
 157.020311527 -271 l 1,11,-1
 162.595909387 -251.814050454 l 1,0,-1
EndSplineSet
EndChar

StartChar: zero
Encoding: 48 48 19
Width: 1024
GlyphClass: 2
Flags: W
LayerCount: 2
Fore
SplineSet
341.992195653 1251.04980469 m 0,0,1
 430.697185264 1296 430.697185264 1296 542 1296 c 0,2,3
 765.078125 1296 765.078125 1296 885.524414062 1117.33984375 c 0,4,5
 1004 941.602539062 1004 941.602539062 1004 640 c 128,-1,6
 1004 338.397460938 1004 338.397460938 885.524414062 162.66015625 c 0,7,8
 765.078125 -16 765.078125 -16 542 -16 c 128,-1,9
 318.921875 -16 318.921875 -16 198.475585938 162.66015625 c 0,10,11
 80 338.397460938 80 338.397460938 80 640 c 128,-1,12
 80 941.602539062 80 941.602539062 198.475585938 1117.33984375 c 0,13,14
 258.313476562 1206.09863281 258.313476562 1206.09863281 341.992195653 1251.04980469 c 0,0,1
727.491049633 1009.31347656 m 0,15,16
 658.900065686 1139 658.900065686 1139 542 1139 c 0,17,18
 483.495400781 1139 483.495400781 1139 437.472860064 1107.18945312 c 128,-1,19
 391.451368702 1075.37890625 391.451368702 1075.37890625 356.508950367 1009.31347656 c 0,20,21
 321.40625 942.330078125 321.40625 942.330078125 304.703125 849.909179688 c 128,-1,22
 288 757.489257812 288 757.489257812 288 640 c 0,23,24
 288 405.540039062 288 405.540039062 356.508950367 270.686523438 c 0,25,26
 425.099934314 141 425.099934314 141 542 141 c 0,27,28
 600.504599219 141 600.504599219 141 646.527139936 172.810546875 c 128,-1,29
 692.548631298 204.62109375 692.548631298 204.62109375 727.491049633 270.686523438 c 0,30,31
 762.59375 337.669921875 762.59375 337.669921875 779.296875 430.090820312 c 128,-1,32
 796 522.510742188 796 522.510742188 796 640 c 0,33,34
 796 687.106445312 796 687.106445312 793.296875 730.282226562 c 128,-1,35
 790.592773438 773.458007812 790.592773438 773.458007812 785.2421875 812.366210938 c 128,-1,36
 779.890625 851.2734375 779.890625 851.2734375 771.892578125 886.208984375 c 128,-1,37
 763.895507812 921.145507812 763.895507812 921.145507812 752.969349797 951.872070312 c 0,38,39
 741.620592949 982.598632812 741.620592949 982.598632812 727.491049633 1009.31347656 c 0,15,16
434.546213476 783 m 1,40,-1
 450.664281455 783 l 1,41,-1
 633.335718545 783 l 1,42,-1
 649.453786524 783 l 1,43,-1
 649.453786524 768 l 1,44,-1
 649.453786524 512 l 1,45,-1
 649.453786524 497 l 1,46,-1
 633.335718545 497 l 1,47,-1
 450.664281455 497 l 1,48,-1
 434.546213476 497 l 1,49,-1
 434.546213476 512 l 1,50,-1
 434.546213476 768 l 1,51,-1
 434.546213476 783 l 1,40,-1
EndSplineSet
EndChar

StartChar: one
Encoding: 49 49 20
Width: 1024
GlyphClass: 2
Flags: W
LayerCount: 2
Fore
SplineSet
527 1280 m 1,0,-1
 533.212890625 1280 l 1,1,-1
 703.212890625 1280 l 1,2,-1
 718.212890625 1280 l 1,3,-1
 718.212890625 1265 l 1,4,-1
 718.212890625 15 l 1,5,-1
 718.212890625 0 l 1,6,-1
 703.212890625 0 l 1,7,-1
 533.212890625 0 l 1,8,-1
 518.212890625 0 l 1,9,-1
 518.212890625 15 l 1,10,-1
 518.212890625 995.454101562 l 1,11,-1
 311.819335938 793.858398438 l 1,12,-1
 301.212890625 783.498046875 l 1,13,-1
 290.606445312 793.858398438 l 1,14,-1
 170.606445312 911.068359375 l 1,15,-1
 160 921.428710938 l 1,16,-1
 170.606445312 931.7890625 l 1,17,-1
 522.606445312 1275.60644531 l 1,18,-1
 527 1280 l 1,0,-1
EndSplineSet
EndChar

StartChar: two
Encoding: 50 50 21
Width: 1024
GlyphClass: 2
Flags: W
LayerCount: 2
Fore
SplineSet
249.8671875 1206.65332031 m 0,0,1
 355.765625 1296 355.765625 1296 542 1296 c 0,2,3
 635.418920076 1296 635.418920076 1296 711.659179688 1269.37304688 c 0,4,5
 781.228515625 1242.74511719 781.228515625 1242.74511719 834.1328125 1189.58007812 c 128,-1,6
 886.844726562 1136.609375 886.844726562 1136.609375 913.421875 1072.19433594 c 128,-1,7
 940 1007.77832031 940 1007.77832031 940 933 c 0,8,9
 940 892.744140625 940 892.744140625 927.336914062 851.588867188 c 0,10,11
 915.014648438 811.541015625 915.014648438 811.541015625 899.54296875 779.05078125 c 0,12,13
 891.625 762.423828125 891.625 762.423828125 878.724609375 741.734375 c 128,-1,14
 865.82421875 721.043945312 865.82421875 721.043945312 847.689453125 695.7578125 c 0,15,16
 811.967773438 645.94921875 811.967773438 645.94921875 786.23046875 613.65234375 c 128,-1,17
 760.54296875 581.416015625 760.54296875 581.416015625 705.078908085 515.416992188 c 2,18,-1
 379.388551047 157 l 1,19,-1
 941 157 l 1,20,-1
 956 157 l 1,21,-1
 956 144.616210938 l 1,22,-1
 956 15 l 1,23,-1
 956 0 l 1,24,-1
 941 0 l 1,25,-1
 143 0 l 1,26,-1
 128 0 l 1,27,-1
 128 15 l 1,28,-1
 128 172 l 1,29,-1
 128 177.404296875 l 1,30,-1
 131.447265625 181.567382812 l 1,31,-1
 546.868651197 664.551757812 l 2,32,33
 623.541598351 749.353515625 623.541598351 749.353515625 656.868432483 788.666992188 c 0,34,35
 673.087977804 807.799804688 673.087977804 807.799804688 688.040237128 829.809570312 c 128,-1,36
 702.993568606 851.819335938 702.993568606 851.819335938 716.083984375 876.708007812 c 0,37,38
 740 924.541015625 740 924.541015625 740 963 c 0,39,40
 740 1028.12597656 740 1028.12597656 686.359099697 1083.81445312 c 0,41,42
 658.156089406 1111.5859375 658.156089406 1111.5859375 622.414764524 1125.29296875 c 128,-1,43
 586.672367487 1139 586.672367487 1139 542 1139 c 0,44,45
 453.684532841 1139 453.684532841 1139 397.640900303 1083.81445312 c 0,46,47
 344 1028.12597656 344 1028.12597656 344 963 c 2,48,-1
 344 948 l 1,49,-1
 329 948 l 1,50,-1
 159 948 l 1,51,-1
 144 948 l 1,52,-1
 144 963 l 2,53,54
 144 1105.62402344 144 1105.62402344 249.8671875 1206.65332031 c 0,0,1
EndSplineSet
EndChar

StartChar: three
Encoding: 51 51 22
Width: 1024
GlyphClass: 2
Flags: W
LayerCount: 2
Fore
SplineSet
172.05859375 1271.70898438 m 2,0,1
 253.514648438 1288 253.514648438 1288 386.045646242 1288 c 0,2,3
 524.615895269 1288 524.615895269 1288 630.452913747 1268.33203125 c 0,4,5
 735.435546875 1248.66308594 735.435546875 1248.66308594 802.790039062 1208.66210938 c 0,6,7
 871.282226562 1167.98535156 871.282226562 1167.98535156 905.641601562 1100.05273438 c 128,-1,8
 940 1032.12011719 940 1032.12011719 940 939.107421875 c 0,9,10
 940 884.502929688 940 884.502929688 921.438476562 838.893554688 c 0,11,12
 902.794921875 793.083007812 902.794921875 793.083007812 875.606445312 766.512695312 c 0,13,14
 849.677734375 741.172851562 849.677734375 741.172851562 823.6015625 723.333984375 c 0,15,16
 820.379882812 721.12890625 820.379882812 721.12890625 817.219726562 719.068359375 c 128,-1,17
 814.060546875 717.0078125 814.060546875 717.0078125 811.036132812 715.135742188 c 128,-1,18
 808.01171875 713.262695312 808.01171875 713.262695312 805.067382812 711.540039062 c 128,-1,19
 802.123046875 709.817382812 802.123046875 709.817382812 799.319335938 708.27734375 c 128,-1,20
 796.516601562 706.737304688 796.516601562 706.737304688 793.809570312 705.353515625 c 1,21,22
 799.053710938 702.350585938 799.053710938 702.350585938 805.170898438 698.493164062 c 128,-1,23
 811.288085938 694.634765625 811.288085938 694.634765625 818.249023438 689.962890625 c 128,-1,24
 825.208984375 685.290039062 825.208984375 685.290039062 833.71875 679.350585938 c 0,25,26
 838.951171875 675.698242188 838.951171875 675.698242188 844.005859375 671.875 c 128,-1,27
 849.061523438 668.051757812 849.061523438 668.051757812 853.938476562 664.05859375 c 128,-1,28
 858.815429688 660.064453125 858.815429688 660.064453125 863.512695312 655.90234375 c 128,-1,29
 868.209960938 651.741210938 868.209960938 651.741210938 872.727539062 647.409179688 c 128,-1,30
 877.24609375 643.078125 877.24609375 643.078125 881.581054688 638.580078125 c 128,-1,31
 885.916992188 634.08203125 885.916992188 634.08203125 890.071289062 629.415039062 c 128,-1,32
 894.225585938 624.749023438 894.225585938 624.749023438 898.1953125 619.91796875 c 0,33,34
 912.432617188 602.590820312 912.432617188 602.590820312 925.068359375 578.91015625 c 128,-1,35
 937.703125 555.228515625 937.703125 555.228515625 949.083007812 524.897460938 c 0,36,37
 972 463.81640625 972 463.81640625 972 389.87109375 c 0,38,39
 972 335.624023438 972 335.624023438 962.287109375 288.79296875 c 128,-1,40
 952.573242188 241.961914062 952.573242188 241.961914062 932.985351562 202.654296875 c 0,41,42
 893.579101562 123.576171875 893.579101562 123.576171875 816.87109375 77.365234375 c 0,43,44
 741.599609375 32.0185546875 741.599609375 32.0185546875 632.506612813 11.9541015625 c 0,45,46
 577.731341866 2.009765625 577.731341866 2.009765625 514.235321764 -2.9375 c 128,-1,47
 450.739301662 -8 450.739301662 -8 378.394443066 -8 c 0,48,49
 313.4921875 -8 313.4921875 -8 253.985351562 -3.9658203125 c 128,-1,50
 194.390625 0.07421875 194.390625 0.07421875 166.760742188 4.16796875 c 2,51,-1
 140.71875 8.1748046875 l 1,52,-1
 128 10.130859375 l 1,53,-1
 128 23 l 1,54,-1
 128 172 l 1,55,-1
 128 187 l 1,56,-1
 143 187 l 1,57,-1
 378.394443066 187 l 2,58,59
 576.4525833 187 576.4525833 187 678.824785161 235.8984375 c 0,60,61
 772 282.4375 772 282.4375 772 391.5 c 0,62,63
 772 485.874023438 772 485.874023438 699.825032269 540.372070312 c 0,64,65
 621.809018195 596 621.809018195 596 485.511287522 596 c 2,66,-1
 303 596 l 1,67,-1
 288 596 l 1,68,-1
 288 611 l 1,69,-1
 288 768 l 1,70,-1
 288 783 l 1,71,-1
 303 783 l 1,72,-1
 472.394939221 783 l 2,73,74
 515.207733328 783 515.207733328 783 551.860497647 787.943359375 c 128,-1,75
 588.513261966 792.885742188 588.513261966 792.885742188 618.30897701 802.463867188 c 128,-1,76
 648.104692055 812.04296875 648.104692055 812.04296875 671.890882283 826.27734375 c 0,77,78
 695.451848758 840.375 695.451848758 840.375 710.827906479 857.338867188 c 128,-1,79
 726.20503161 874.301757812 726.20503161 874.301757812 733.104492188 894.446289062 c 128,-1,80
 740 914.58984375 740 914.58984375 740 938.4765625 c 0,81,82
 740 1020.04003906 740 1020.04003906 656.10600609 1055.27148438 c 0,83,84
 564.892520466 1093 564.892520466 1093 386.045646242 1093 c 2,85,-1
 175 1093 l 1,86,-1
 160 1093 l 1,87,-1
 160 1108 l 1,88,-1
 160 1257 l 1,89,-1
 160 1269.296875 l 1,90,-1
 172.05859375 1271.70898438 l 2,0,1
EndSplineSet
EndChar

StartChar: four
Encoding: 52 52 23
Width: 1024
GlyphClass: 2
Flags: W
LayerCount: 2
Fore
SplineSet
624.981723483 1280 m 1,0,-1
 633.938132941 1280 l 1,1,-1
 845 1280 l 1,2,-1
 860 1280 l 1,3,-1
 860 1265 l 1,4,-1
 860 428 l 1,5,-1
 1005 428 l 1,6,-1
 1020 428 l 1,7,-1
 1020 413 l 1,8,-1
 1020 256 l 1,9,-1
 1020 241 l 1,10,-1
 1005 241 l 1,11,-1
 860 241 l 1,12,-1
 860 15 l 1,13,-1
 860 0 l 1,14,-1
 845 0 l 1,15,-1
 668.147670779 0 l 1,16,-1
 652.111949917 0 l 1,17,-1
 652.111949917 15 l 1,18,-1
 652.111949917 241 l 1,19,-1
 79 241 l 1,20,-1
 64 241 l 1,21,-1
 64 255.78515625 l 1,22,-1
 64 410.53515625 l 1,23,-1
 64 414.723632812 l 1,24,-1
 66.228515625 418.2890625 l 1,25,-1
 620.284802379 1272.86621094 l 1,26,-1
 624.981723483 1280 l 1,0,-1
305.837890625 428 m 1,27,-1
 652.111949917 428 l 1,28,-1
 652.111949917 954.985351562 l 1,29,-1
 305.837890625 428 l 1,27,-1
EndSplineSet
EndChar

StartChar: five
Encoding: 53 53 24
Width: 1024
GlyphClass: 2
Flags: W
LayerCount: 2
Fore
SplineSet
909 1123 m 1,0,-1
 360 1123 l 1,1,-1
 360 812 l 1,2,-1
 541.2557678 812 l 2,3,4
 582.551770652 812 582.551770652 812 620.506776583 808.315429688 c 128,-1,5
 658.462849925 804.630859375 658.462849925 804.630859375 693.273262586 797.197265625 c 128,-1,6
 727.927734375 789.762695312 727.927734375 789.762695312 756.62890625 778.600585938 c 128,-1,7
 785.330078125 767.438476562 785.330078125 767.438476562 811.040039062 752.426757812 c 128,-1,8
 836.75 737.415039062 836.75 737.415039062 859.22265625 718.630859375 c 0,9,10
 915.4765625 671.609375 915.4765625 671.609375 943.73828125 607.1953125 c 128,-1,11
 972 542.780273438 972 542.780273438 972 462.395507812 c 0,12,13
 972 333.778320312 972 333.778320312 933.368164062 241.716796875 c 0,14,15
 894.25 148.495117188 894.25 148.495117188 817.8125 93.99609375 c 0,16,17
 798.928710938 80.5322265625 798.928710938 80.5322265625 778.400390625 68.9130859375 c 128,-1,18
 757.87109375 57.294921875 757.87109375 57.294921875 735.76171875 47.55078125 c 0,19,20
 712.482393772 37.8076171875 712.482393772 37.8076171875 686.60834732 29.9189453125 c 128,-1,21
 660.734300867 22.03125 660.734300867 22.03125 633.125711284 15.9873046875 c 0,22,23
 523.549551523 -8 523.549551523 -8 378.394443066 -8 c 0,24,25
 313.4921875 -8 313.4921875 -8 253.985351562 -3.9658203125 c 128,-1,26
 194.390625 0.07421875 194.390625 0.07421875 166.760742188 4.16796875 c 2,27,-1
 140.71875 8.1748046875 l 1,28,-1
 128 10.130859375 l 1,29,-1
 128 23 l 1,30,-1
 128 172 l 1,31,-1
 128 187 l 1,32,-1
 143 187 l 1,33,-1
 378.394443066 187 l 2,34,35
 575.368093564 187 575.368093564 187 677.125466599 251.030273438 c 0,36,37
 726.452148438 282.08203125 726.452148438 282.08203125 749.2265625 334.290039062 c 128,-1,38
 772 386.499023438 772 386.499023438 772 461.595703125 c 128,-1,39
 772 536.836914062 772 536.836914062 715.150921666 580.34375 c 0,40,41
 652.430909475 625 652.430909475 625 541.2557678 625 c 2,42,-1
 175 625 l 1,43,-1
 160 625 l 1,44,-1
 160 639.65625 l 1,45,-1
 160 1265 l 1,46,-1
 160 1280 l 1,47,-1
 175 1280 l 1,48,-1
 909 1280 l 1,49,-1
 924 1280 l 1,50,-1
 924 1265 l 1,51,-1
 924 1135.38378906 l 1,52,-1
 924 1123 l 1,53,-1
 909 1123 l 1,0,-1
EndSplineSet
EndChar

StartChar: six
Encoding: 54 54 25
Width: 1024
GlyphClass: 2
Flags: W
LayerCount: 2
Fore
SplineSet
532.36709933 1280 m 1,0,-1
 542 1280 l 1,1,-1
 751 1280 l 1,2,-1
 776.438476562 1280 l 1,3,-1
 764.125976562 1258.41308594 l 1,4,-1
 481.437429372 797.680664062 l 1,5,6
 496.111629565 798.340820312 496.111629565 798.340820312 511.252538001 798.669921875 c 128,-1,7
 526.393446437 799 526.393446437 799 542 799 c 0,8,9
 748.212890625 799 748.212890625 799 860.106445312 689.12890625 c 128,-1,10
 972 579.2578125 972 579.2578125 972 391.5 c 128,-1,11
 972 203.7421875 972 203.7421875 860.106445312 93.87109375 c 128,-1,12
 748.212890625 -16 748.212890625 -16 542 -16 c 128,-1,13
 335.787109375 -16 335.787109375 -16 223.893554688 93.3466796875 c 128,-1,14
 112 202.694335938 112 202.694335938 112 389.555664062 c 0,15,16
 112 474.768554688 112 474.768554688 124.290039062 539.60546875 c 128,-1,17
 136.581054688 604.44140625 136.581054688 604.44140625 161.8515625 649.715820312 c 2,18,-1
 527.707458712 1272.25488281 l 1,19,-1
 532.36709933 1280 l 1,0,-1
713.073554475 549.661132812 m 0,20,21
 650.403886493 612 650.403886493 612 542 612 c 0,22,23
 407.522112643 612 407.522112643 612 357.924527945 562.118164062 c 0,24,25
 312 511.8515625 312 511.8515625 312 376.5 c 0,26,27
 312 265.987304688 312 265.987304688 370.926445525 203.338867188 c 0,28,29
 433.596113507 141 433.596113507 141 542 141 c 0,30,31
 578.660517239 141 578.660517239 141 609.818342295 147.998046875 c 128,-1,32
 640.976167351 154.99609375 640.976167351 154.99609375 666.589838672 168.787109375 c 128,-1,33
 692.202446876 182.577148438 692.202446876 182.577148438 713.073554475 203.338867188 c 0,34,35
 742.973632812 234.5546875 742.973632812 234.5546875 757.486328125 277.592773438 c 128,-1,36
 772 320.631835938 772 320.631835938 772 376.5 c 0,37,38
 772 487.012695312 772 487.012695312 713.073554475 549.661132812 c 0,20,21
EndSplineSet
EndChar

StartChar: seven
Encoding: 55 55 26
Width: 1024
GlyphClass: 2
Flags: W
LayerCount: 2
Fore
SplineSet
988 1280 m 1,0,-1
 988 1265 l 1,1,-1
 988 1111.66503906 l 1,2,-1
 988 1109.03808594 l 1,3,-1
 987.06640625 1106.57617188 l 1,4,-1
 557.205448 9.7890625 l 1,5,-1
 553.284798606 -0 l 1,6,-1
 542 0 l 1,7,-1
 346.343338372 0 l 1,8,-1
 324.447265625 0 l 1,9,-1
 331.93359375 20.2109375 l 1,10,-1
 770.447265625 1123 l 1,11,-1
 111 1123 l 1,12,-1
 96 1123 l 1,13,-1
 96 1135.38378906 l 1,14,-1
 96 1265 l 1,15,-1
 96 1280 l 1,16,-1
 111 1280 l 1,17,-1
 973 1280 l 1,18,-1
 988 1280 l 1,0,-1
EndSplineSet
EndChar

StartChar: eight
Encoding: 56 56 27
Width: 1024
GlyphClass: 2
Flags: W
LayerCount: 2
Fore
SplineSet
139.415039062 865.021484375 m 0,0,1
 112 912.844726562 112 912.844726562 112 962.623046875 c 0,2,3
 112 981.76171875 112 981.76171875 113.771484375 999.983398438 c 128,-1,4
 115.543945312 1018.20410156 115.543945312 1018.20410156 119.080078125 1035.4765625 c 128,-1,5
 122.616210938 1052.74902344 122.616210938 1052.74902344 127.926757812 1069.0703125 c 128,-1,6
 133.237304688 1085.39160156 133.237304688 1085.39160156 140.30078125 1100.72070312 c 128,-1,7
 147.36328125 1116.04882812 147.36328125 1116.04882812 156.205078125 1130.39550781 c 128,-1,8
 165.046875 1144.7421875 165.046875 1144.7421875 175.627929688 1158.05078125 c 128,-1,9
 186.208984375 1171.36035156 186.208984375 1171.36035156 198.57421875 1183.65527344 c 128,-1,10
 210.938476562 1195.95019531 210.938476562 1195.95019531 225.03125 1207.16503906 c 0,11,12
 281.0703125 1251.75878906 281.0703125 1251.75878906 359.016904955 1273.87890625 c 0,13,14
 440.293521961 1296 440.293521961 1296 542 1296 c 0,15,16
 746.520023899 1296 746.520023899 1296 858.96875 1207.16503906 c 0,17,18
 972 1117.21972656 972 1117.21972656 972 962.623046875 c 0,19,20
 972 912.940429688 972 912.940429688 945.673828125 865.666992188 c 0,21,22
 919.885742188 819.360351562 919.885742188 819.360351562 882.854492188 787.811523438 c 0,23,24
 847.25390625 757.481445312 847.25390625 757.481445312 811.6015625 733.083007812 c 0,25,26
 804.883789062 728.485351562 804.883789062 728.485351562 798.458984375 724.328125 c 128,-1,27
 792.033203125 720.169921875 792.033203125 720.169921875 785.9453125 716.478515625 c 128,-1,28
 779.856445312 712.786132812 779.856445312 712.786132812 774.079101562 709.541992188 c 128,-1,29
 768.301757812 706.297851562 768.301757812 706.297851562 762.866210938 703.517578125 c 128,-1,30
 757.371387243 700.73828125 757.371387243 700.73828125 751.884318398 698.4140625 c 1,31,32
 753.834016985 697.435546875 753.834016985 697.435546875 755.063859151 696.813476562 c 0,33,34
 761.865234375 693.239257812 761.865234375 693.239257812 771.395507812 687.200195312 c 128,-1,35
 780.92578125 681.161132812 780.92578125 681.161132812 793.166015625 672.848632812 c 128,-1,36
 805.407226562 664.536132812 805.407226562 664.536132812 821.267578125 653.365234375 c 0,37,38
 868.79296875 619.892578125 868.79296875 619.892578125 905.6796875 583.329101562 c 0,39,40
 912.00390625 577.060546875 912.00390625 577.060546875 918.106445312 570.224609375 c 128,-1,41
 924.208984375 563.389648438 924.208984375 563.389648438 930.0703125 556.01171875 c 128,-1,42
 935.931640625 548.634765625 935.931640625 548.634765625 941.56640625 540.711914062 c 128,-1,43
 947.202148438 532.7890625 947.202148438 532.7890625 952.615234375 524.311523438 c 128,-1,44
 958.028320312 515.833984375 958.028320312 515.833984375 963.209960938 506.834960938 c 128,-1,45
 968.391601562 497.8359375 968.391601562 497.8359375 973.369140625 488.271484375 c 0,46,47
 988.610351562 458.983398438 988.610351562 458.983398438 996.305664062 429.15234375 c 128,-1,48
 1004 399.3203125 1004 399.3203125 1004 369.192382812 c 0,49,50
 1004 310.1015625 1004 310.1015625 990.583007812 258.919921875 c 128,-1,51
 977.166015625 207.737304688 977.166015625 207.737304688 950.1875 164.548828125 c 128,-1,52
 923.208007812 121.360351562 923.208007812 121.360351562 882.877929688 86.859375 c 0,53,54
 822.588867188 35.2861328125 822.588867188 35.2861328125 739.638364406 9.6435546875 c 0,55,56
 651.890385081 -16 651.890385081 -16 542 -16 c 0,57,58
 321.364257812 -16 321.364257812 -16 201.122070312 86.859375 c 0,59,60
 80 190.47265625 80 190.47265625 80 369.192382812 c 0,61,62
 80 429.330078125 80 429.330078125 109.559570312 487.64453125 c 0,63,64
 138.696289062 545.124023438 138.696289062 545.124023438 180.030273438 584.510742188 c 0,65,66
 220.19140625 622.780273438 220.19140625 622.780273438 260.427734375 652.65625 c 0,67,68
 300.872070312 682.686523438 300.872070312 682.686523438 330.426222654 697.99609375 c 1,69,70
 291.920898438 720.662109375 291.920898438 720.662109375 273.75 732.360351562 c 0,71,72
 252.7734375 745.865234375 252.7734375 745.865234375 234.171875 759.912109375 c 128,-1,73
 215.571289062 773.958984375 215.571289062 773.958984375 199.340820312 788.567382812 c 0,74,75
 190.9609375 796.109375 190.9609375 796.109375 183.01171875 804.6875 c 128,-1,76
 175.063476562 813.265625 175.063476562 813.265625 167.580078125 822.8359375 c 128,-1,77
 160.096679688 832.405273438 160.096679688 832.405273438 153.067382812 842.935546875 c 128,-1,78
 146.038085938 853.466796875 146.038085938 853.466796875 139.415039062 865.021484375 c 0,0,1
325.778636516 1048.17871094 m 0,79,80
 312 1020.734375 312 1020.734375 312 985 c 0,81,82
 312 974.981445312 312 974.981445312 314.212890625 965.151367188 c 128,-1,83
 316.426757812 955.321289062 316.426757812 955.321289062 321.061523438 945.266601562 c 128,-1,84
 325.696289062 935.211914062 325.696289062 935.211914062 333.303549633 925.114257812 c 0,85,86
 356.849990217 893.875976562 356.849990217 893.875976562 390.924593303 872.423828125 c 0,87,88
 402.896666061 864.887695312 402.896666061 864.887695312 414.864541406 857.844726562 c 128,-1,89
 426.832416751 850.801757812 426.832416751 850.801757812 438.778255674 844.262695312 c 128,-1,90
 450.724094598 837.72265625 450.724094598 837.72265625 462.665736108 831.67578125 c 0,91,92
 497.754014563 813.908203125 497.754014563 813.908203125 521.70130814 805.108398438 c 2,93,-1
 541.554024812 798.94921875 l 2,94,95
 543.129104241 799.514648438 543.129104241 799.514648438 544.522645535 800.009765625 c 128,-1,96
 545.917236183 800.504882812 545.917236183 800.504882812 547.258309807 800.9765625 c 128,-1,97
 548.600432785 801.448242188 548.600432785 801.448242188 550.309829448 802.044921875 c 0,98,99
 554.167252488 803.391601562 554.167252488 803.391601562 562.767752823 806.766601562 c 128,-1,100
 571.367203805 810.142578125 571.367203805 810.142578125 583.89333515 815.2421875 c 0,101,102
 592.325938944 818.67578125 592.325938944 818.67578125 600.52033952 822.215820312 c 128,-1,103
 608.715789449 825.756835938 608.715789449 825.756835938 616.661493273 829.400390625 c 128,-1,104
 624.607197097 833.04296875 624.607197097 833.04296875 632.315747056 836.79296875 c 0,105,106
 643.656109077 842.309570312 643.656109077 842.309570312 656.307113475 849.470703125 c 128,-1,107
 668.957068519 856.631835938 668.957068519 856.631835938 682.841063143 865.408203125 c 0,108,109
 710.054993804 882.610351562 710.054993804 882.610351562 729.392477965 900.606445312 c 0,110,111
 748.052079839 917.971679688 748.052079839 917.971679688 760.69140625 940.919921875 c 0,112,113
 772 962.666992188 772 962.666992188 772 985 c 0,114,115
 772 1002.90722656 772 1002.90722656 768.580078125 1018.63085938 c 128,-1,116
 765.16015625 1034.35449219 765.16015625 1034.35449219 758.202475123 1048.20214844 c 0,117,118
 750.728980322 1062.04882812 750.728980322 1062.04882812 739.475714632 1074.02539062 c 128,-1,119
 728.222448942 1086.00097656 728.222448942 1086.00097656 712.985837806 1096.40722656 c 0,120,121
 692.465732381 1110.421875 692.465732381 1110.421875 666.933915195 1119.84277344 c 128,-1,122
 641.403147361 1129.26367188 641.403147361 1129.26367188 610.023283766 1134.13183594 c 128,-1,123
 578.644469523 1139 578.644469523 1139 542 1139 c 0,124,125
 487.199618226 1139 487.199618226 1139 444.546551226 1128.24804688 c 128,-1,126
 401.893484226 1117.49707031 401.893484226 1117.49707031 371.014162194 1096.40722656 c 0,127,128
 340.583963411 1075.62402344 340.583963411 1075.62402344 325.778636516 1048.17871094 c 0,79,80
564.697513696 621.197265625 m 2,129,-1
 541.729266827 630.697265625 l 1,130,131
 537.395437351 629.025390625 537.395437351 629.025390625 532.674396476 627.17578125 c 128,-1,132
 528.145387271 625.401367188 528.145387271 625.401367188 518.214306844 620.90625 c 128,-1,133
 508.283226418 616.412109375 508.283226418 616.412109375 493.974243674 609.6328125 c 128,-1,134
 479.523598222 602.786132812 479.523598222 602.786132812 465.880954877 595.583984375 c 128,-1,135
 452.238311531 588.380859375 452.238311531 588.380859375 439.402620938 580.82421875 c 0,136,137
 430.950079429 575.846679688 430.950079429 575.846679688 421.748299605 569.869140625 c 128,-1,138
 412.547569134 563.891601562 412.547569134 563.891601562 402.523096256 556.854492188 c 128,-1,139
 392.498623379 549.818359375 392.498623379 549.818359375 381.779478561 541.805664062 c 0,140,141
 350.164559807 518.170898438 350.164559807 518.170898438 328.030548878 494.219726562 c 0,142,143
 307.797851562 470.875976562 307.797851562 470.875976562 293.690429688 439.370117188 c 0,144,145
 289.087890625 429.090820312 289.087890625 429.090820312 286.041992188 418.840820312 c 128,-1,146
 282.99609375 408.590820312 282.99609375 408.590820312 281.498046875 398.419921875 c 128,-1,147
 280 388.249023438 280 388.249023438 280 378 c 0,148,149
 280 333.568359375 280 333.568359375 296.061523438 299.28125 c 128,-1,150
 312.123046875 264.994140625 312.123046875 264.994140625 346.195905309 239.286132812 c 0,151,152
 417.564527663 187 417.564527663 187 542 187 c 128,-1,153
 666.435472337 187 666.435472337 187 737.804094691 239.286132812 c 0,154,155
 804 290.282226562 804 290.282226562 804 378 c 0,156,157
 804 419.845703125 804 419.845703125 779.137695312 461.282226562 c 0,158,159
 753.159282759 503.9921875 753.159282759 503.9921875 714.025747009 533.31640625 c 0,160,161
 705.893258283 539.411132812 705.893258283 539.411132812 697.76181891 545.228515625 c 128,-1,162
 689.631428891 551.045898438 689.631428891 551.045898438 681.513631112 556.579101562 c 128,-1,163
 673.396882687 562.112304688 673.396882687 562.112304688 665.282232968 567.369140625 c 128,-1,164
 657.167583249 572.625976562 657.167583249 572.625976562 649.066575125 577.599609375 c 128,-1,165
 640.965567 582.573242188 640.965567 582.573242188 632.867706936 587.270507812 c 0,166,167
 626.090982782 591.202148438 626.090982782 591.202148438 619.677334899 594.764648438 c 128,-1,168
 613.262637662 598.328125 613.262637662 598.328125 607.233053118 601.510742188 c 128,-1,169
 601.203468573 604.692382812 601.203468573 604.692382812 595.534861593 607.51171875 c 128,-1,170
 589.866254612 610.330078125 589.866254612 610.330078125 584.550230369 612.788085938 c 128,-1,171
 579.235255479 615.24609375 579.235255479 615.24609375 574.281258153 617.34375 c 128,-1,172
 569.327260827 619.44140625 569.327260827 619.44140625 564.697513696 621.197265625 c 2,129,-1
EndSplineSet
EndChar

StartChar: nine
Encoding: 57 57 28
Width: 1024
GlyphClass: 2
Flags: W
LayerCount: 2
Fore
SplineSet
551.63290067 -0 m 1,0,-1
 542 0 l 1,1,-1
 333 0 l 1,2,-1
 307.561523438 0 l 1,3,-1
 319.874023438 21.5869140625 l 1,4,-1
 602.562570628 482.319335938 l 1,5,6
 573.225864527 481 573.225864527 481 542 481 c 0,7,8
 335.787109375 481 335.787109375 481 223.893554688 590.87109375 c 128,-1,9
 112 700.7421875 112 700.7421875 112 888.5 c 128,-1,10
 112 1076.2578125 112 1076.2578125 223.893554688 1186.12890625 c 128,-1,11
 335.787109375 1296 335.787109375 1296 542 1296 c 128,-1,12
 748.212890625 1296 748.212890625 1296 860.106445312 1186.65332031 c 128,-1,13
 972 1077.30566406 972 1077.30566406 972 890.444335938 c 0,14,15
 972 719.59765625 972 719.59765625 922.1484375 630.284179688 c 2,16,-1
 556.292541288 7.7451171875 l 1,17,-1
 551.63290067 -0 l 1,0,-1
370.926445525 730.338867188 m 0,18,19
 433.596113507 668 433.596113507 668 542 668 c 0,20,21
 610.092626411 668 610.092626411 668 656.068172418 680.856445312 c 128,-1,22
 702.043718425 693.712890625 702.043718425 693.712890625 726.075472055 717.881835938 c 0,23,24
 748.270507812 742.16796875 748.270507812 742.16796875 760.135742188 788.6796875 c 128,-1,25
 772 835.19140625 772 835.19140625 772 903.5 c 0,26,27
 772 1014.01269531 772 1014.01269531 713.073554475 1076.66113281 c 0,28,29
 650.403886493 1139 650.403886493 1139 542 1139 c 0,30,31
 487.151681783 1139 487.151681783 1139 444.712062013 1123.42089844 c 128,-1,32
 402.271379125 1107.84179688 402.271379125 1107.84179688 370.926445525 1076.66113281 c 0,33,34
 312 1014.01269531 312 1014.01269531 312 903.5 c 128,-1,35
 312 792.987304688 312 792.987304688 370.926445525 730.338867188 c 0,18,19
EndSplineSet
EndChar

StartChar: colon
Encoding: 58 58 29
Width: 1024
GlyphClass: 2
Flags: W
LayerCount: 2
Fore
SplineSet
384 1199 m 1,0,-1
 640 1199 l 1,1,-1
 655 1199 l 1,2,-1
 655 1184 l 1,3,-1
 655 864 l 1,4,-1
 655 849 l 1,5,-1
 640 849 l 1,6,-1
 384 849 l 1,7,-1
 369 849 l 1,8,-1
 369 864 l 1,9,-1
 369 1184 l 1,10,-1
 369 1199 l 1,11,-1
 384 1199 l 1,0,-1
384 431 m 1,12,-1
 640 431 l 1,13,-1
 655 431 l 1,14,-1
 655 416 l 1,15,-1
 655 96 l 1,16,-1
 655 81 l 1,17,-1
 640 81 l 1,18,-1
 384 81 l 1,19,-1
 369 81 l 1,20,-1
 369 96 l 1,21,-1
 369 416 l 1,22,-1
 369 431 l 1,23,-1
 384 431 l 1,12,-1
EndSplineSet
EndChar

StartChar: semicolon
Encoding: 59 59 30
Width: 1024
GlyphClass: 2
Flags: W
LayerCount: 2
Fore
SplineSet
384 1199 m 1,0,-1
 640 1199 l 1,1,-1
 655 1199 l 1,2,-1
 655 1184 l 1,3,-1
 655 864 l 1,4,-1
 655 849 l 1,5,-1
 640 849 l 1,6,-1
 384 849 l 1,7,-1
 369 849 l 1,8,-1
 369 864 l 1,9,-1
 369 1184 l 1,10,-1
 369 1199 l 1,11,-1
 384 1199 l 1,0,-1
384 431 m 1,12,-1
 640 431 l 1,13,-1
 655 431 l 1,14,-1
 655 416 l 1,15,-1
 655 160 l 2,16,17
 655 152.349054291 655 152.349054291 653.943608823 140.200555755 c 0,18,19
 653.558891472 135.776306215 653.558891472 135.776306215 652.560547832 129.008513586 c 128,-1,20
 651.562204192 122.240720956 651.562204192 122.240720956 650.023933567 113.439643638 c 128,-1,21
 648.485662943 104.63856632 648.485662943 104.63856632 646.240658678 92.722774452 c 0,22,23
 642.878264574 74.8762211298 642.878264574 74.8762211298 638.091289411 57.4102303231 c 128,-1,24
 633.304314248 39.9442395164 633.304314248 39.9442395164 627.096901352 22.8738540537 c 0,25,26
 614.586758602 -11.5290385105 614.586758602 -11.5290385105 587.310134171 -56.3038748399 c 0,27,28
 559.876095804 -101.337107632 559.876095804 -101.337107632 522.606601718 -138.606601718 c 2,29,-1
 394.606601718 -266.606601718 l 1,30,-1
 384.508816778 -276.704386657 l 1,31,-1
 373.927208629 -267.114804272 l 1,32,-1
 245.927208629 -151.114804272 l 1,33,-1
 234.252341043 -140.534455522 l 1,34,-1
 245.393398282 -129.393398282 l 1,35,-1
 373.393398282 -1.3933982822 l 2,36,37
 387.484148209 12.6973516448 387.484148209 12.6973516448 400.046200763 25.9422880785 c 128,-1,38
 412.608253317 39.1872245121 412.608253317 39.1872245121 423.549196212 51.4838193113 c 128,-1,39
 434.490139107 63.7804141104 434.490139107 63.7804141104 443.843274319 75.1472571609 c 128,-1,40
 453.19640953 86.5141002115 453.19640953 86.5141002115 460.966501681 96.9551615398 c 0,41,42
 473.052274854 113.195419241 473.052274854 113.195419241 481.043904194 125.730839105 c 128,-1,43
 489.035533535 138.266258969 489.035533535 138.266258969 491.944585963 145 c 1,44,-1
 384 145 l 1,45,-1
 369 145 l 1,46,-1
 369 160 l 1,47,-1
 369 416 l 1,48,-1
 369 431 l 1,49,-1
 384 431 l 1,12,-1
EndSplineSet
EndChar

StartChar: less
Encoding: 60 60 31
Width: 1024
GlyphClass: 2
Flags: W
LayerCount: 2
Fore
SplineSet
848.614810137 1175.11582191 m 1,0,-1
 940.614810137 1032.11582191 l 1,1,-1
 948.731438965 1019.49975753 l 1,2,-1
 936.114567691 1011.38438304 l 1,3,-1
 358.727909678 640 l 1,4,-1
 936.114567691 268.615616957 l 1,5,-1
 948.731438965 260.500242468 l 1,6,-1
 940.614810137 247.884178094 l 1,7,-1
 848.614810137 104.884178094 l 1,8,-1
 840.499639154 92.2703797185 l 1,9,-1
 827.885189922 100.384538954 l 1,10,-1
 87.8851899219 576.384538954 l 1,11,-1
 81 580.81339085 l 1,12,-1
 81 589 l 1,13,-1
 81 691 l 1,14,-1
 81 699.18660915 l 1,15,-1
 87.8851899219 703.615461046 l 1,16,-1
 827.885189922 1179.61546105 l 1,17,-1
 840.499639154 1187.72962028 l 1,18,-1
 848.614810137 1175.11582191 l 1,0,-1
EndSplineSet
EndChar

StartChar: equal
Encoding: 61 61 32
Width: 1024
GlyphClass: 2
Flags: W
LayerCount: 2
Fore
SplineSet
96 940 m 1,0,-1
 928 940 l 1,1,-1
 943 940 l 1,2,-1
 943 925 l 1,3,-1
 943 768 l 1,4,-1
 943 753 l 1,5,-1
 928 753 l 1,6,-1
 96 753 l 1,7,-1
 81 753 l 1,8,-1
 81 768 l 1,9,-1
 81 925 l 1,10,-1
 81 940 l 1,11,-1
 96 940 l 1,0,-1
96 527 m 1,12,-1
 928 527 l 1,13,-1
 943 527 l 1,14,-1
 943 512 l 1,15,-1
 943 355 l 1,16,-1
 943 340 l 1,17,-1
 928 340 l 1,18,-1
 96 340 l 1,19,-1
 81 340 l 1,20,-1
 81 355 l 1,21,-1
 81 512 l 1,22,-1
 81 527 l 1,23,-1
 96 527 l 1,12,-1
EndSplineSet
EndChar

StartChar: greater
Encoding: 62 62 33
Width: 1024
GlyphClass: 2
Flags: W
LayerCount: 2
Fore
SplineSet
196.114810078 1179.61546105 m 1,0,-1
 936.114810078 703.615461046 l 1,1,-1
 943 699.18660915 l 1,2,-1
 943 691 l 1,3,-1
 943 589 l 1,4,-1
 943 580.81339085 l 1,5,-1
 936.114810078 576.384538954 l 1,6,-1
 196.114810078 100.384538954 l 1,7,-1
 183.500360846 92.2703797185 l 1,8,-1
 175.385189863 104.884178094 l 1,9,-1
 83.3851898632 247.884178094 l 1,10,-1
 75.2685610348 260.500242468 l 1,11,-1
 87.8854323094 268.615616957 l 1,12,-1
 665.272090322 640 l 1,13,-1
 87.8854323094 1011.38438304 l 1,14,-1
 75.2685610348 1019.49975753 l 1,15,-1
 83.3851898632 1032.11582191 l 1,16,-1
 175.385189863 1175.11582191 l 1,17,-1
 183.500360846 1187.72962028 l 1,18,-1
 196.114810078 1179.61546105 l 1,0,-1
EndSplineSet
EndChar

StartChar: question
Encoding: 63 63 34
Width: 1024
GlyphClass: 2
Flags: W
LayerCount: 2
Fore
SplineSet
157.675483467 1286.8187929 m 2,0,1
 260.830678756 1303 260.830678756 1303 427 1303 c 0,2,3
 651.484667627 1303 651.484667627 1303 771.733372603 1224.03840403 c 0,4,5
 895 1143.09508218 895 1143.09508218 895 964 c 0,6,7
 895 892.982416901 895 892.982416901 868.730104732 835.799513423 c 128,-1,8
 842.460209464 778.616609945 842.460209464 778.616609945 790.392020488 736.804276373 c 0,9,10
 691.792733653 657.626061187 691.792733653 657.626061187 527 654.154318312 c 1,11,-1
 527 512 l 1,12,-1
 527 497 l 1,13,-1
 512 497 l 1,14,-1
 342 497 l 1,15,-1
 327 497 l 1,16,-1
 327 512 l 1,17,-1
 327 805 l 1,18,-1
 327 820 l 1,19,-1
 342 820 l 2,20,21
 519.154135119 820 519.154135119 820 610.506027533 855.95765978 c 0,22,23
 695 889.215925538 695 889.215925538 695 964 c 0,24,25
 695 1003.33874179 695 1003.33874179 679.323833948 1030.00972318 c 128,-1,26
 663.647667896 1056.68070458 663.647667896 1056.68070458 631.217571025 1073.12096202 c 0,27,28
 597.415803998 1090.25658003 597.415803998 1090.25658003 546.16320435 1099.12829001 c 128,-1,29
 494.910604702 1108 494.910604702 1108 427 1108 c 2,30,-1
 160 1108 l 1,31,-1
 145 1108 l 1,32,-1
 145 1123 l 1,33,-1
 145 1272 l 1,34,-1
 145 1284.83048176 l 1,35,-1
 157.675483467 1286.8187929 l 2,0,1
384 271 m 1,36,-1
 640 271 l 1,37,-1
 655 271 l 1,38,-1
 655 256 l 1,39,-1
 655 0 l 1,40,-1
 655 -15 l 1,41,-1
 640 -15 l 1,42,-1
 384 -15 l 1,43,-1
 369 -15 l 1,44,-1
 369 0 l 1,45,-1
 369 256 l 1,46,-1
 369 271 l 1,47,-1
 384 271 l 1,36,-1
EndSplineSet
EndChar

StartChar: at
Encoding: 64 64 35
Width: 1024
GlyphClass: 2
Flags: W
LayerCount: 2
Fore
SplineSet
586 1311 m 0,0,1
 764.163918621 1311 764.163918621 1311 868.733519294 1229.32125719 c 0,2,3
 975 1146.31709066 975 1146.31709066 975 1004 c 2,4,-1
 975 512 l 2,5,6
 975 423.855870226 975 423.855870226 939.189786888 387.477241032 c 128,-1,7
 903.282502747 351 903.282502747 351 814 351 c 2,8,-1
 627 351 l 2,9,10
 561.738055219 351 561.738055219 351 509.334330657 372.680049688 c 128,-1,11
 456.930606096 394.360099375 456.930606096 394.360099375 418.758472168 437.568834308 c 128,-1,12
 380.733441388 480.61105665 380.733441388 480.61105665 361.866720694 538.914989806 c 128,-1,13
 343 597.218922962 343 597.218922962 343 670 c 0,14,15
 343 789.632449813 343 789.632449813 419.906073481 859.595613883 c 0,16,17
 496.197917763 929 496.197917763 929 627 929 c 2,18,-1
 799 929 l 1,19,-1
 799 1004 l 2,20,21
 799 1024.24701499 799 1024.24701499 793.199309766 1041.14808264 c 128,-1,22
 787.398619533 1058.0491503 787.398619533 1058.0491503 775.414053446 1072.28871557 c 128,-1,23
 763.429487358 1086.52828084 763.429487358 1086.52828084 744.920074475 1098.36216777 c 0,24,25
 716.645355909 1116.43944685 716.645355909 1116.43944685 676.915458775 1125.71972343 c 128,-1,26
 637.18556164 1135 637.18556164 1135 586 1135 c 0,27,28
 415.293914465 1135 415.293914465 1135 324.798157766 1019.73698357 c 0,29,30
 233 902.815119471 233 902.815119471 233 640 c 0,31,32
 233 505.132195106 233 505.132195106 260.405837928 410.679932248 c 0,33,34
 287.351719751 317.812875251 287.351719751 317.812875251 340.200876994 264.011480941 c 0,35,36
 357.929440881 245.963483469 357.929440881 245.963483469 377.500856735 231.266467025 c 128,-1,37
 397.072272588 216.56945058 397.072272588 216.56945058 418.528069996 205.185260014 c 128,-1,38
 439.983867404 193.801069447 439.983867404 193.801069447 463.416590531 185.671349179 c 0,39,40
 498.814049914 173.390597964 498.814049914 173.390597964 540.721846011 167.195298982 c 128,-1,41
 582.629642108 161 582.629642108 161 631 161 c 2,42,-1
 896 161 l 1,43,-1
 911 161 l 1,44,-1
 911 146 l 1,45,-1
 911 8 l 1,46,-1
 911 -4.81081295377 l 1,47,-1
 898.346970807 -6.8152532219 l 2,48,49
 796.180756771 -23 796.180756771 -23 631 -23 c 0,50,51
 593.493810486 -23 593.493810486 -23 558.562694089 -20.6922663657 c 128,-1,52
 523.631577692 -18.3845327314 523.631577692 -18.3845327314 491.103534345 -13.7385229372 c 128,-1,53
 458.575490998 -9.09251314306 458.575490998 -9.09251314306 428.596803917 -2.10884172078 c 0,54,55
 338.029018962 18.9893354563 338.029018962 18.9893354563 262.819121944 67.927282146 c 0,56,57
 187.180232165 117.144367961 187.180232165 117.144367961 136.95442314 193.777561112 c 0,58,59
 111.894411678 232.01345489 111.894411678 232.01345489 92.6666795947 279.186168014 c 128,-1,60
 73.4389475113 326.358881137 73.4389475113 326.358881137 59.9172042727 382.486871938 c 0,61,62
 33 494.218663259 33 494.218663259 33 640 c 0,63,64
 33 787.635720203 33 787.635720203 57.8525517197 900.232995341 c 0,65,66
 82.8665881668 1013.56189516 82.8665881668 1013.56189516 128.577591553 1091.11651889 c 0,67,68
 174.706942076 1169.38092258 174.706942076 1169.38092258 244.324673206 1218.73677674 c 0,69,70
 313.58002559 1267.8357206 313.58002559 1267.8357206 397.757220271 1289.5255499 c 0,71,72
 425.627575101 1296.70686832 425.627575101 1296.70686832 455.885309308 1301.48326572 c 128,-1,73
 486.143043515 1306.25966313 486.143043515 1306.25966313 518.626400814 1308.62983156 c 128,-1,74
 551.109758113 1311 551.109758113 1311 586 1311 c 0,0,1
627 753 m 2,75,76
 579.457609605 753 579.457609605 753 552.63918393 730.507126853 c 0,77,78
 527 709.00329517 527 709.00329517 527 670 c 0,79,80
 527 601.889350446 527 601.889350446 555.118698785 563.339521467 c 0,81,82
 581.625173267 527 581.625173267 527 627 527 c 2,83,-1
 799 527 l 1,84,-1
 799 753 l 1,85,-1
 627 753 l 2,75,76
EndSplineSet
EndChar

StartChar: A
Encoding: 65 65 36
Width: 1024
GlyphClass: 2
Flags: W
LayerCount: 2
Fore
SplineSet
427.181847668 1280 m 1,0,-1
 439.054040549 1280 l 1,1,-1
 655.086584451 1280 l 1,2,-1
 666.958777332 1280 l 1,3,-1
 670.32084171 1269.24804688 l 1,4,-1
 1056.45605469 18.8037109375 l 1,5,-1
 1062.140625 0 l 1,6,-1
 1042.0703125 0 l 1,7,-1
 865.0703125 0 l 1,8,-1
 853.861328125 0 l 1,9,-1
 850.685546875 10.7490234375 l 1,10,-1
 764.999511607 291 l 1,11,-1
 329.14007923 291 l 1,12,-1
 243.455078125 10.7490234375 l 1,13,-1
 240.278320312 0 l 1,14,-1
 229.0703125 0 l 1,15,-1
 52.0703125 0 l 1,16,-1
 32 0 l 1,17,-1
 37.6845703125 18.8037109375 l 1,18,-1
 423.81978329 1269.24804688 l 1,19,-1
 427.181847668 1280 l 1,0,-1
563.336664575 922.612304688 m 1,20,-1
 547.0703125 1013.23828125 l 1,21,-1
 530.962187386 923.493164062 l 1,22,-1
 530.536112171 921.755859375 l 1,23,-1
 387.231091294 463 l 1,24,-1
 706.909533706 463 l 1,25,-1
 563.603478666 921.755859375 l 1,26,-1
 563.336664575 922.612304688 l 1,20,-1
EndSplineSet
EndChar

StartChar: B
Encoding: 66 66 37
Width: 1024
GlyphClass: 2
Flags: W
LayerCount: 2
Fore
SplineSet
128 1280 m 1,0,-1
 143 1280 l 1,1,-1
 401.136086662 1280 l 2,2,3
 650.069495282 1280 650.069495282 1280 781.772460938 1200.37890625 c 0,4,5
 908 1118.84277344 908 1118.84277344 908 938.9921875 c 0,6,7
 908 884.3984375 908 884.3984375 889.438476562 838.796875 c 0,8,9
 870.794921875 792.995117188 870.794921875 792.995117188 843.606445312 766.430664062 c 0,10,11
 817.677734375 741.095703125 817.677734375 741.095703125 791.6015625 723.259765625 c 0,12,13
 778.483398438 714.287109375 778.483398438 714.287109375 766.686523438 707.837890625 c 1,14,15
 786.291992188 699.762695312 786.291992188 699.762695312 822.723632812 680.204101562 c 0,16,17
 869.8515625 654.90234375 869.8515625 654.90234375 906.712890625 621.421875 c 0,18,19
 925.708984375 604.166992188 925.708984375 604.166992188 942.484375 580.348632812 c 128,-1,20
 959.258789062 556.530273438 959.258789062 556.530273438 974.048828125 526.10546875 c 0,21,22
 989.034179688 495.28125 989.034179688 495.28125 996.516601562 461.16015625 c 128,-1,23
 1004 427.0390625 1004 427.0390625 1004 389.862304688 c 0,24,25
 1004 282.7890625 1004 282.7890625 964.380859375 206.383789062 c 0,26,27
 944.4296875 167.907226562 944.4296875 167.907226562 914.633789062 137.249023438 c 128,-1,28
 884.837890625 106.58984375 884.837890625 106.58984375 845.58984375 84.0908203125 c 0,29,30
 768.415039062 39.8515625 768.415039062 39.8515625 658.13008315 19.826171875 c 0,31,32
 548.087700205 0 548.087700205 0 401.136086662 0 c 2,33,-1
 143 0 l 1,34,-1
 128 0 l 1,35,-1
 128 15 l 1,36,-1
 128 1265 l 1,37,-1
 128 1280 l 1,0,-1
401.136086662 1123 m 2,38,-1
 328 1123 l 1,39,-1
 328 783 l 1,40,-1
 401.136086662 783 l 2,41,42
 544.09024178 783 544.09024178 783 625.883494838 830.93359375 c 0,43,44
 703.748138118 876.565429688 703.748138118 876.565429688 703.748138118 953.5234375 c 128,-1,45
 703.748138118 1030.43261719 703.748138118 1030.43261719 625.948106646 1075.55175781 c 0,46,47
 544.131550969 1123 544.131550969 1123 401.136086662 1123 c 2,38,-1
401.136086662 596 m 2,48,-1
 328 596 l 1,49,-1
 328 157 l 1,50,-1
 401.136086662 157 l 2,51,52
 505.197110909 157 505.197110909 157 576.731915411 166.682617188 c 0,53,54
 647.061338968 176.201171875 647.061338968 176.201171875 702.939960911 200.62890625 c 0,55,56
 756.210807909 223.916015625 756.210807909 223.916015625 779.9765625 266.690429688 c 0,57,58
 791.874023438 288.247070312 791.874023438 288.247070312 797.9375 315.649414062 c 128,-1,59
 804 343.05078125 804 343.05078125 804 376.5 c 0,60,61
 804 442.78125 804 442.78125 779.9765625 486.309570312 c 0,62,63
 756.210807909 529.083984375 756.210807909 529.083984375 702.939960911 552.37109375 c 0,64,65
 647.061338968 576.798828125 647.061338968 576.798828125 576.731915411 586.317382812 c 0,66,67
 505.197110909 596 505.197110909 596 401.136086662 596 c 2,48,-1
EndSplineSet
EndChar

StartChar: C
Encoding: 67 67 38
Width: 1024
GlyphClass: 2
Flags: W
LayerCount: 2
Fore
SplineSet
452.90770697 1244.13964844 m 0,0,1
 566.952049836 1288 566.952049836 1288 709.977673034 1288 c 0,2,3
 726.12109375 1288 726.12109375 1288 741.834960938 1287.74804688 c 128,-1,4
 757.549804688 1287.49609375 757.549804688 1287.49609375 772.8671875 1286.9921875 c 128,-1,5
 788.185546875 1286.48828125 788.185546875 1286.48828125 803.10546875 1285.73046875 c 128,-1,6
 818.025390625 1284.97363281 818.025390625 1284.97363281 832.541015625 1283.96386719 c 0,7,8
 851.934570312 1282.61425781 851.934570312 1282.61425781 867.629882812 1281.28222656 c 128,-1,9
 883.32421875 1279.94921875 883.32421875 1279.94921875 895.775390625 1278.58398438 c 128,-1,10
 908.2265625 1277.21875 908.2265625 1277.21875 917.28125 1275.82519531 c 2,11,-1
 943.28125 1271.82519531 l 1,12,-1
 956 1269.86914062 l 1,13,-1
 956 1259.18261719 l 1,14,-1
 956 1135.45605469 l 1,15,-1
 956 1123 l 1,16,-1
 941 1123 l 1,17,-1
 709.977673034 1123 l 2,18,19
 618.257167111 1123 618.257167111 1123 546.921012059 1091.22363281 c 128,-1,20
 475.585924418 1059.44824219 475.585924418 1059.44824219 422.89424005 995.338867188 c 0,21,22
 320 865.876953125 320 865.876953125 320 640 c 0,23,24
 320 508.122070312 320 508.122070312 343.278320312 414.70703125 c 0,25,26
 367.373916115 321.291992188 367.373916115 321.291992188 416.928479092 266.663085938 c 0,27,28
 516.404794483 157 516.404794483 157 709.977673034 157 c 2,29,-1
 941 157 l 1,30,-1
 956 157 l 1,31,-1
 956 144.548828125 l 1,32,-1
 956 20.8720703125 l 1,33,-1
 956 10.4814453125 l 1,34,-1
 943.68359375 8.2421875 l 2,35,36
 854.352539062 -8 854.352539062 -8 709.977673034 -8 c 0,37,38
 636.078663793 -8 636.078663793 -8 571.516299945 0.546875 c 128,-1,39
 506.953936097 8.900390625 506.953936097 8.900390625 451.66203815 25.712890625 c 0,40,41
 341.86328125 59.548828125 341.86328125 59.548828125 265.393554688 134.27734375 c 0,42,43
 188.694335938 209.229492188 188.694335938 209.229492188 150.114257812 336.9140625 c 0,44,45
 112 463.0546875 112 463.0546875 112 640.09765625 c 0,46,47
 112 938.670898438 112 938.670898438 264.090820312 1112.81933594 c 0,48,49
 340.471679688 1200.27929688 340.471679688 1200.27929688 452.90770697 1244.13964844 c 0,0,1
EndSplineSet
EndChar

StartChar: D
Encoding: 68 68 39
Width: 1024
GlyphClass: 2
Flags: W
LayerCount: 2
Fore
SplineSet
128 1280 m 1,0,-1
 143 1280 l 1,1,-1
 401.136086662 1280 l 2,2,3
 549.091831256 1280 549.091831256 1280 660.037720305 1247.01757812 c 0,4,5
 771.009765625 1213.70605469 771.009765625 1213.70605469 848.499023438 1139.50585938 c 0,6,7
 926.236328125 1065.06738281 926.236328125 1065.06738281 965.3515625 939.346679688 c 0,8,9
 1004 815.125 1004 815.125 1004 640 c 128,-1,10
 1004 464.875 1004 464.875 965.3515625 340.653320312 c 0,11,12
 926.236328125 214.932617188 926.236328125 214.932617188 848.499023438 140.494140625 c 0,13,14
 771.009765625 66.2939453125 771.009765625 66.2939453125 660.037720305 32.982421875 c 0,15,16
 549.091831256 0 549.091831256 0 401.136086662 0 c 2,17,-1
 143 0 l 1,18,-1
 128 0 l 1,19,-1
 128 15 l 1,20,-1
 128 1265 l 1,21,-1
 128 1280 l 1,0,-1
401.136086662 1123 m 2,22,-1
 328 1123 l 1,23,-1
 328 157 l 1,24,-1
 401.136086662 157 l 2,25,26
 498.026259415 157 498.026259415 157 569.063235232 181.850585938 c 0,27,28
 604.136854953 194.120117188 604.136854953 194.120117188 634.745904653 213.823242188 c 128,-1,29
 665.356013562 233.525390625 665.356013562 233.525390625 691.768473362 260.875 c 0,30,31
 717.92672277 287.961914062 717.92672277 287.961914062 737.927784625 325.034179688 c 128,-1,32
 757.927787269 362.106445312 757.927787269 362.106445312 770.537109375 409.315429688 c 0,33,34
 783.216796875 456.875 783.216796875 456.875 789.608398438 514.592773438 c 128,-1,35
 796 572.309570312 796 572.309570312 796 640 c 0,36,37
 796 775.171875 796 775.171875 770.537109375 870.684570312 c 0,38,39
 744.421800948 964.603515625 744.421800948 964.603515625 691.768473362 1019.125 c 128,-1,40
 639.119382617 1073.64257812 639.119382617 1073.64257812 569.063235232 1098.14941406 c 0,41,42
 498.026259415 1123 498.026259415 1123 401.136086662 1123 c 2,22,-1
EndSplineSet
EndChar

StartChar: E
Encoding: 69 69 40
Width: 1024
GlyphClass: 2
Flags: W
LayerCount: 2
Fore
SplineSet
160 1280 m 1,0,-1
 175 1280 l 1,1,-1
 941 1280 l 1,2,-1
 956 1280 l 1,3,-1
 956 1265 l 1,4,-1
 956 1135.38378906 l 1,5,-1
 956 1123 l 1,6,-1
 941 1123 l 1,7,-1
 360 1123 l 1,8,-1
 360 783 l 1,9,-1
 877 783 l 1,10,-1
 892 783 l 1,11,-1
 892 768 l 1,12,-1
 892 611 l 1,13,-1
 892 596 l 1,14,-1
 877 596 l 1,15,-1
 360 596 l 1,16,-1
 360 157 l 1,17,-1
 941 157 l 1,18,-1
 956 157 l 1,19,-1
 956 144.616210938 l 1,20,-1
 956 15 l 1,21,-1
 956 0 l 1,22,-1
 941 0 l 1,23,-1
 175 0 l 1,24,-1
 160 0 l 1,25,-1
 160 15 l 1,26,-1
 160 1265 l 1,27,-1
 160 1280 l 1,0,-1
EndSplineSet
EndChar

StartChar: F
Encoding: 70 70 41
Width: 1024
GlyphClass: 2
Flags: W
LayerCount: 2
Fore
SplineSet
160 1280 m 1,0,-1
 175 1280 l 1,1,-1
 941 1280 l 1,2,-1
 956 1280 l 1,3,-1
 956 1265 l 1,4,-1
 956 1135.38378906 l 1,5,-1
 956 1123 l 1,6,-1
 941 1123 l 1,7,-1
 360 1123 l 1,8,-1
 360 783 l 1,9,-1
 909 783 l 1,10,-1
 924 783 l 1,11,-1
 924 768 l 1,12,-1
 924 611 l 1,13,-1
 924 596 l 1,14,-1
 909 596 l 1,15,-1
 360 596 l 1,16,-1
 360 15 l 1,17,-1
 360 0 l 1,18,-1
 345 0 l 1,19,-1
 175 0 l 1,20,-1
 160 0 l 1,21,-1
 160 15 l 1,22,-1
 160 1265 l 1,23,-1
 160 1280 l 1,0,-1
EndSplineSet
EndChar

StartChar: G
Encoding: 71 71 42
Width: 1024
GlyphClass: 2
Flags: W
LayerCount: 2
Fore
SplineSet
228.014648438 1114.66113281 m 0,0,1
 380.989013419 1288 380.989013419 1288 680.556820534 1288 c 0,2,3
 752.447265625 1288 752.447265625 1288 816.935546875 1283.97070312 c 128,-1,4
 881.428710938 1279.94042969 881.428710938 1279.94042969 912.951171875 1275.87304688 c 2,5,-1
 942.982421875 1271.86816406 l 1,6,-1
 956 1270.1328125 l 1,7,-1
 956 1259.22460938 l 1,8,-1
 956 1135.45996094 l 1,9,-1
 956 1123 l 1,10,-1
 941 1123 l 1,11,-1
 680.556820534 1123 l 2,12,13
 615.017516269 1123 615.017516269 1123 560.617515379 1109.47558594 c 128,-1,14
 506.21751449 1095.95214844 506.21751449 1095.95214844 462.87473236 1069.12304688 c 128,-1,15
 419.530897863 1042.29394531 419.530897863 1042.29394531 386.280314069 1001.89550781 c 0,16,17
 352.788738259 961.204101562 352.788738259 961.204101562 330.351224109 909.416992188 c 0,18,19
 309.198242188 857.62890625 309.198242188 857.62890625 298.598632812 793.860351562 c 128,-1,20
 288 730.091796875 288 730.091796875 288 655 c 0,21,22
 288 588.233398438 288 588.233398438 293.181640625 531.110351562 c 128,-1,23
 298.364257812 473.987304688 298.364257812 473.987304688 308.657226562 426.689453125 c 0,24,25
 329.220982085 333.340820312 329.220982085 333.340820312 371.873411545 279.930664062 c 0,26,27
 414.142779461 227.000976562 414.142779461 227.000976562 469.676179476 203.108398438 c 0,28,29
 525.711558489 179 525.711558489 179 601.890291865 179 c 0,30,31
 698.223955638 179 698.223955638 179 747.182617188 201.549804688 c 0,32,33
 788 221.65234375 788 221.65234375 788 267.805664062 c 2,34,-1
 788 596 l 1,35,-1
 542.620989443 596 l 1,36,-1
 526.456634237 596 l 1,37,-1
 526.456634237 611 l 1,38,-1
 526.456634237 768 l 1,39,-1
 526.456634237 783 l 1,40,-1
 542.620989443 783 l 1,41,-1
 973 783 l 1,42,-1
 988 783 l 1,43,-1
 988 768.279296875 l 1,44,-1
 988 265.807617188 l 2,45,46
 988 118.547851562 988 118.547851562 889.2890625 54.31640625 c 0,47,48
 792.565429688 -7.7822265625 792.565429688 -7.7822265625 601.890291865 -8 c 0,49,50
 472.803813829 -8 472.803813829 -8 376.247048279 25.7216796875 c 0,51,52
 282.166015625 59.759765625 282.166015625 59.759765625 214.73046875 134.795898438 c 128,-1,53
 147.377929688 209.73828125 147.377929688 209.73828125 113.482421875 337.236328125 c 0,54,55
 80 463.17578125 80 463.17578125 80 640 c 0,56,57
 80 942.462890625 80 942.462890625 228.014648438 1114.66113281 c 0,0,1
EndSplineSet
EndChar

StartChar: H
Encoding: 72 72 43
Width: 1024
GlyphClass: 2
Flags: W
LayerCount: 2
Fore
SplineSet
96 1280 m 1,0,-1
 111 1280 l 1,1,-1
 281 1280 l 1,2,-1
 296 1280 l 1,3,-1
 296 1265 l 1,4,-1
 296 783 l 1,5,-1
 788 783 l 1,6,-1
 788 1265 l 1,7,-1
 788 1280 l 1,8,-1
 803 1280 l 1,9,-1
 973 1280 l 1,10,-1
 988 1280 l 1,11,-1
 988 1265 l 1,12,-1
 988 15 l 1,13,-1
 988 0 l 1,14,-1
 973 0 l 1,15,-1
 803 0 l 1,16,-1
 788 0 l 1,17,-1
 788 15 l 1,18,-1
 788 596 l 1,19,-1
 296 596 l 1,20,-1
 296 15 l 1,21,-1
 296 0 l 1,22,-1
 281 0 l 1,23,-1
 111 0 l 1,24,-1
 96 0 l 1,25,-1
 96 15 l 1,26,-1
 96 1265 l 1,27,-1
 96 1280 l 1,0,-1
EndSplineSet
EndChar

StartChar: I
Encoding: 73 73 44
Width: 1024
GlyphClass: 2
Flags: W
LayerCount: 2
Fore
SplineSet
160 1280 m 1,0,-1
 175 1280 l 1,1,-1
 909 1280 l 1,2,-1
 924 1280 l 1,3,-1
 924 1265 l 1,4,-1
 924 1135.38378906 l 1,5,-1
 924 1123 l 1,6,-1
 909 1123 l 1,7,-1
 654.372154404 1123 l 1,8,-1
 654.372154404 157 l 1,9,-1
 909 157 l 1,10,-1
 924 157 l 1,11,-1
 924 144.616210938 l 1,12,-1
 924 15 l 1,13,-1
 924 0 l 1,14,-1
 909 0 l 1,15,-1
 175 0 l 1,16,-1
 160 0 l 1,17,-1
 160 15 l 1,18,-1
 160 144.616210938 l 1,19,-1
 160 157 l 1,20,-1
 175 157 l 1,21,-1
 429.627845596 157 l 1,22,-1
 429.627845596 1123 l 1,23,-1
 175 1123 l 1,24,-1
 160 1123 l 1,25,-1
 160 1135.38378906 l 1,26,-1
 160 1265 l 1,27,-1
 160 1280 l 1,0,-1
EndSplineSet
EndChar

StartChar: J
Encoding: 74 74 45
Width: 1024
GlyphClass: 2
Flags: W
LayerCount: 2
Fore
SplineSet
192 1280 m 1,0,-1
 207 1280 l 1,1,-1
 877 1280 l 1,2,-1
 892 1280 l 1,3,-1
 892 1265 l 1,4,-1
 892 528.360351562 l 2,5,6
 892 491.740234375 892 491.740234375 889.848632812 457.80078125 c 128,-1,7
 887.697265625 423.862304688 887.697265625 423.862304688 883.375 392.44921875 c 128,-1,8
 879.052734375 361.037109375 879.052734375 361.037109375 872.5234375 332.196289062 c 128,-1,9
 865.994140625 303.35546875 865.994140625 303.35546875 857.263671875 277.139648438 c 0,10,11
 822.03515625 171.35546875 822.03515625 171.35546875 752.098632812 109.147460938 c 0,12,13
 682.625 47.3515625 682.625 47.3515625 583.52365208 19.51953125 c 0,14,15
 481.080631006 -8 481.080631006 -8 347 -8 c 0,16,17
 290.413085938 -8 290.413085938 -8 238.827148438 -3.9541015625 c 128,-1,18
 187.124023438 0.1005859375 187.124023438 0.1005859375 163.4296875 4.2216796875 c 2,19,-1
 140.4296875 8.2216796875 l 1,20,-1
 128 10.3837890625 l 1,21,-1
 128 20.857421875 l 1,22,-1
 128 144.547851562 l 1,23,-1
 128 157 l 1,24,-1
 143 157 l 1,25,-1
 347 157 l 2,26,27
 518.691283817 157 518.691283817 157 608.135787617 240.125 c 0,28,29
 692 323.327148438 692 323.327148438 692 522.345703125 c 2,30,-1
 692 1123 l 1,31,-1
 207 1123 l 1,32,-1
 192 1123 l 1,33,-1
 192 1135.38378906 l 1,34,-1
 192 1265 l 1,35,-1
 192 1280 l 1,0,-1
EndSplineSet
EndChar

StartChar: K
Encoding: 75 75 46
Width: 1024
GlyphClass: 2
Flags: W
LayerCount: 2
Fore
SplineSet
768.05777126 1280 m 1,0,-1
 776.120826283 1280 l 1,1,-1
 973 1280 l 1,2,-1
 1003.0703125 1280 l 1,3,-1
 984.983398438 1256.52734375 l 1,4,-1
 521.251857504 679.802734375 l 1,5,-1
 1017.23535156 23.1357421875 l 1,6,-1
 1034.02832031 -0 l 1,7,-1
 1005 0 l 1,8,-1
 797 0 l 1,9,-1
 789.25 0 l 1,10,-1
 784.492338692 6.3212890625 l 1,11,-1
 328 607.9296875 l 1,12,-1
 328 15 l 1,13,-1
 328 0 l 1,14,-1
 313 0 l 1,15,-1
 143 0 l 1,16,-1
 128 0 l 1,17,-1
 128 15 l 1,18,-1
 128 1265 l 1,19,-1
 128 1280 l 1,20,-1
 143 1280 l 1,21,-1
 313 1280 l 1,22,-1
 328 1280 l 1,23,-1
 328 1265 l 1,24,-1
 328 733.833984375 l 1,25,-1
 763.20562077 1274.02636719 l 1,26,-1
 768.05777126 1280 l 1,0,-1
EndSplineSet
EndChar

StartChar: L
Encoding: 76 76 47
Width: 1024
GlyphClass: 2
Flags: W
LayerCount: 2
Fore
SplineSet
160 1280 m 1,0,-1
 175 1280 l 1,1,-1
 345 1280 l 1,2,-1
 360 1280 l 1,3,-1
 360 1265 l 1,4,-1
 360 157 l 1,5,-1
 941 157 l 1,6,-1
 956 157 l 1,7,-1
 956 144.616210938 l 1,8,-1
 956 15 l 1,9,-1
 956 0 l 1,10,-1
 941 0 l 1,11,-1
 175 0 l 1,12,-1
 160 0 l 1,13,-1
 160 15 l 1,14,-1
 160 1265 l 1,15,-1
 160 1280 l 1,0,-1
EndSplineSet
EndChar

StartChar: M
Encoding: 77 77 48
Width: 1024
GlyphClass: 2
Flags: W
LayerCount: 2
Fore
SplineSet
64 1280 m 1,0,-1
 79 1280 l 1,1,-1
 236 1280 l 1,2,-1
 245.048828125 1280 l 1,3,-1
 249.26953125 1271.99511719 l 1,4,-1
 542 745.165039062 l 1,5,-1
 834.73046875 1271.99511719 l 1,6,-1
 838.951171875 1280 l 1,7,-1
 848 1280 l 1,8,-1
 1005 1280 l 1,9,-1
 1020 1280 l 1,10,-1
 1020 1265 l 1,11,-1
 1020 15 l 1,12,-1
 1020 0 l 1,13,-1
 1005 0 l 1,14,-1
 848 0 l 1,15,-1
 833 0 l 1,16,-1
 833 15 l 1,17,-1
 833 783 l 1,18,-1
 833.022460938 783.819335938 l 1,19,-1
 842.76953125 962.043945312 l 1,20,-1
 755.384706646 776.676757812 l 1,21,-1
 755.214535911 776.3359375 l 1,22,-1
 610.706173544 520.002929688 l 1,23,-1
 606.194039067 512 l 1,24,-1
 596.52145093 512 l 1,25,-1
 487.47854907 512 l 1,26,-1
 477.805960933 512 l 1,27,-1
 473.293826456 520.002929688 l 1,28,-1
 328.972338701 776.002929688 l 1,29,-1
 328.615293354 776.676757812 l 1,30,-1
 241.23046875 962.043945312 l 1,31,-1
 250.977539062 783.819335938 l 1,32,-1
 251 783.41015625 l 1,33,-1
 251 15 l 1,34,-1
 251 0 l 1,35,-1
 236 0 l 1,36,-1
 79 0 l 1,37,-1
 64 0 l 1,38,-1
 64 15 l 1,39,-1
 64 1265 l 1,40,-1
 64 1280 l 1,0,-1
EndSplineSet
EndChar

StartChar: N
Encoding: 78 78 49
Width: 1024
GlyphClass: 2
Flags: W
LayerCount: 2
Fore
SplineSet
96 1280 m 1,0,-1
 111 1280 l 1,1,-1
 315 1280 l 1,2,-1
 324.63671875 1280 l 1,3,-1
 328.642578125 1271.23535156 l 1,4,-1
 707.069473639 503.1015625 l 1,5,-1
 790.826171875 316.008789062 l 1,6,-1
 788 496.8828125 l 1,7,-1
 788 1265 l 1,8,-1
 788 1280 l 1,9,-1
 803 1280 l 1,10,-1
 973 1280 l 1,11,-1
 988 1280 l 1,12,-1
 988 1265 l 1,13,-1
 988 15 l 1,14,-1
 988 0 l 1,15,-1
 973 0 l 1,16,-1
 768 0 l 1,17,-1
 758.3515625 0 l 1,18,-1
 754.350585938 8.779296875 l 1,19,-1
 376.927359439 776.905273438 l 1,20,-1
 293.173828125 963.991210938 l 1,21,-1
 296 783.1171875 l 1,22,-1
 296 15 l 1,23,-1
 296 0 l 1,24,-1
 281 0 l 1,25,-1
 111 0 l 1,26,-1
 96 0 l 1,27,-1
 96 15 l 1,28,-1
 96 1265 l 1,29,-1
 96 1280 l 1,0,-1
EndSplineSet
EndChar

StartChar: O
Encoding: 79 79 50
Width: 1024
GlyphClass: 2
Flags: W
LayerCount: 2
Fore
SplineSet
109.879882812 334.137695312 m 0,0,1
 80 461.384765625 80 461.384765625 80 640 c 128,-1,2
 80 818.615234375 80 818.615234375 109.879882812 945.862304688 c 0,3,4
 140.110351562 1074.59960938 140.110351562 1074.59960938 199.595703125 1150.45410156 c 0,5,6
 229.393554688 1188.45117188 229.393554688 1188.45117188 264.524414062 1216.28613281 c 128,-1,7
 299.65625 1244.12011719 299.65625 1244.12011719 340.998457998 1261.51074219 c 0,8,9
 426.848157051 1296 426.848157051 1296 542 1296 c 0,10,11
 599.378643038 1296 599.378643038 1296 649.652114313 1287.21191406 c 128,-1,12
 699.925585588 1278.62109375 699.925585588 1278.62109375 743.001542002 1261.31835938 c 0,13,14
 755.3891587 1256.34277344 755.3891587 1256.34277344 766.706054688 1250.50195312 c 128,-1,15
 777.82421875 1244.66113281 777.82421875 1244.66113281 788.495117188 1237.98144531 c 128,-1,16
 799.166015625 1231.30175781 799.166015625 1231.30175781 809.420898438 1223.76953125 c 128,-1,17
 819.674804688 1216.23828125 819.674804688 1216.23828125 829.479492188 1207.87988281 c 128,-1,18
 839.28515625 1199.52246094 839.28515625 1199.52246094 848.665039062 1190.32617188 c 128,-1,19
 858.045898438 1181.12988281 858.045898438 1181.12988281 866.9765625 1171.12109375 c 128,-1,20
 875.90625 1161.11328125 875.90625 1161.11328125 884.404296875 1150.27832031 c 0,21,22
 914.336914062 1112.11425781 914.336914062 1112.11425781 936.6953125 1060.99121094 c 128,-1,23
 959.053710938 1009.86816406 959.053710938 1009.86816406 974.120117188 945.717773438 c 0,24,25
 989.099609375 881.93359375 989.099609375 881.93359375 996.549804688 805.525390625 c 128,-1,26
 1004 729.118164062 1004 729.118164062 1004 639.901367188 c 0,27,28
 1004 461.3125 1004 461.3125 974.120117188 334.084960938 c 0,29,30
 943.889648438 205.3671875 943.889648438 205.3671875 884.404296875 129.5234375 c 0,31,32
 854.606445312 91.5322265625 854.606445312 91.5322265625 819.475585938 63.7021484375 c 128,-1,33
 784.34375 35.8720703125 784.34375 35.8720703125 743.001542002 18.484375 c 0,34,35
 657.151842949 -16 657.151842949 -16 542 -16 c 128,-1,36
 426.848157051 -16 426.848157051 -16 340.998457998 18.4892578125 c 0,37,38
 259.430664062 53.2451171875 259.430664062 53.2451171875 199.595703125 129.545898438 c 0,39,40
 140.110351562 205.400390625 140.110351562 205.400390625 109.879882812 334.137695312 c 0,0,1
599.40697558 1103.16210938 m 128,-1,42
 572.888766212 1109 572.888766212 1109 542 1109 c 0,43,44
 480.733502674 1109 480.733502674 1109 435.558839492 1085.72070312 c 128,-1,45
 390.392571137 1062.44628906 390.392571137 1062.44628906 356.56876351 1010.54882812 c 0,46,47
 322.290039062 957.5546875 322.290039062 957.5546875 305.263671875 865.633789062 c 0,48,49
 288 772.428710938 288 772.428710938 288 640 c 0,50,51
 288 573.73046875 288 573.73046875 292.329101562 517.276367188 c 128,-1,52
 296.659179688 460.823242188 296.659179688 460.823242188 305.263671875 414.366210938 c 0,53,54
 322.290039062 322.4453125 322.290039062 322.4453125 356.56876351 269.451171875 c 0,55,56
 362.28983816 260.673828125 362.28983816 260.673828125 368.326768178 252.72265625 c 128,-1,57
 374.363698196 244.771484375 374.363698196 244.771484375 380.668213327 237.703125 c 128,-1,58
 386.972728459 230.635742188 386.972728459 230.635742188 393.55951965 224.389648438 c 128,-1,59
 400.145261488 218.143554688 400.145261488 218.143554688 407.02062486 212.723632812 c 128,-1,60
 413.897037586 207.303710938 413.897037586 207.303710938 421.01480159 202.705078125 c 128,-1,61
 428.133614947 198.10546875 428.133614947 198.10546875 435.558839492 194.279296875 c 0,62,63
 480.733502674 171 480.733502674 171 542 171 c 0,64,65
 557.492653362 171 557.492653362 171 571.893979204 172.471679688 c 128,-1,66
 586.2963544 173.942382812 586.2963544 173.942382812 599.571724061 176.875 c 128,-1,67
 612.848143075 179.807617188 612.848143075 179.807617188 625.030086511 184.150390625 c 128,-1,68
 637.213079299 188.493164062 637.213079299 188.493164062 648.441160508 194.279296875 c 0,69,70
 693.607428863 217.553710938 693.607428863 217.553710938 727.43123649 269.451171875 c 0,71,72
 734.225799652 279.877929688 734.225799652 279.877929688 740.419083324 291.888671875 c 128,-1,73
 746.612366996 303.8984375 746.612366996 303.8984375 752.241098548 317.614257812 c 128,-1,74
 757.868780747 331.329101562 757.868780747 331.329101562 762.53125 346.592773438 c 128,-1,75
 767.16796875 361.85546875 767.16796875 361.85546875 771.237304688 378.85546875 c 128,-1,76
 775.306640625 395.854492188 775.306640625 395.854492188 778.736328125 414.366210938 c 0,77,78
 796 507.571289062 796 507.571289062 796 640 c 0,79,80
 796 706.26953125 796 706.26953125 791.670898438 762.723632812 c 128,-1,81
 787.340820312 819.176757812 787.340820312 819.176757812 778.736328125 865.633789062 c 0,82,83
 761.709960938 957.5546875 761.709960938 957.5546875 727.43123649 1010.54882812 c 0,84,85
 723.613688879 1016.40527344 723.613688879 1016.40527344 719.654478561 1021.89550781 c 128,-1,86
 715.69421889 1027.38574219 715.69421889 1027.38574219 711.621678406 1032.47460938 c 128,-1,87
 707.549137923 1037.56347656 707.549137923 1037.56347656 703.334934733 1042.29296875 c 128,-1,88
 699.121780896 1047.02148438 699.121780896 1047.02148438 694.798444954 1051.36035156 c 128,-1,89
 690.476158365 1055.69824219 690.476158365 1055.69824219 686.013258423 1059.68359375 c 128,-1,90
 681.550358481 1063.66796875 681.550358481 1063.66796875 676.9825232 1067.2734375 c 128,-1,91
 672.414687919 1070.87890625 672.414687919 1070.87890625 667.708337992 1074.13671875 c 128,-1,92
 663.001988065 1077.39355469 663.001988065 1077.39355469 658.193850859 1080.28320312 c 128,-1,93
 653.386763007 1083.17285156 653.386763007 1083.17285156 648.441160508 1085.72070312 c 0,94,41
 625.924135594 1097.32421875 625.924135594 1097.32421875 599.40697558 1103.16210938 c 128,-1,42
EndSplineSet
EndChar

StartChar: P
Encoding: 80 80 51
Width: 1024
GlyphClass: 2
Flags: W
LayerCount: 2
Fore
SplineSet
160 1280 m 1,0,-1
 175 1280 l 1,1,-1
 638.837509303 1280 l 2,2,3
 812.73828125 1280 812.73828125 1280 908.713867188 1173.99316406 c 0,4,5
 1004 1068.74707031 1004 1068.74707031 1004 888.5 c 0,6,7
 1004 858.533203125 1004 858.533203125 1000.55175781 830.528320312 c 128,-1,8
 997.102539062 802.5234375 997.102539062 802.5234375 990.215820312 776.513671875 c 128,-1,9
 983.329101562 750.50390625 983.329101562 750.50390625 972.970703125 726.521484375 c 128,-1,10
 962.61328125 702.5390625 962.61328125 702.5390625 948.833007812 680.665039062 c 128,-1,11
 935.052734375 658.791015625 935.052734375 658.791015625 917.77734375 639.005859375 c 128,-1,12
 900.500976562 619.219726562 900.500976562 619.219726562 879.81640625 601.653320312 c 0,13,14
 818.020507812 549.171875 818.020507812 549.171875 731.891211761 523.0859375 c 0,15,16
 640.19952594 497 640.19952594 497 525.162490697 497 c 2,17,-1
 360 497 l 1,18,-1
 360 15 l 1,19,-1
 360 0 l 1,20,-1
 345 0 l 1,21,-1
 175 0 l 1,22,-1
 160 0 l 1,23,-1
 160 15 l 1,24,-1
 160 1265 l 1,25,-1
 160 1280 l 1,0,-1
638.837509303 1123 m 2,26,-1
 360 1123 l 1,27,-1
 360 684 l 1,28,-1
 525.162490697 684 l 2,29,30
 658.059449423 684 658.059449423 684 733.844574179 743.578125 c 0,31,32
 804 802.078125 804 802.078125 804 903.5 c 0,33,34
 804 1007.06054688 804 1007.06054688 761.4765625 1066.08691406 c 0,35,36
 716.962399315 1123 716.962399315 1123 638.837509303 1123 c 2,26,-1
EndSplineSet
EndChar

StartChar: Q
Encoding: 81 81 52
Width: 1024
GlyphClass: 2
Flags: W
LayerCount: 2
Fore
SplineSet
153.114257812 1160.47753906 m 0,0,1
 259.6171875 1296 259.6171875 1296 542 1296 c 128,-1,2
 824.3828125 1296 824.3828125 1296 930.885742188 1160.47753906 c 0,3,4
 1036 1026.72265625 1036 1026.72265625 1036 694.547851562 c 0,5,6
 1036 390.528320312 1036 390.528320312 949.161132812 256.639648438 c 0,7,8
 863.603515625 124.7265625 863.603515625 124.7265625 648.431143886 102.330078125 c 1,9,-1
 648.431143886 -142 l 1,10,-1
 648.431143886 -157 l 1,11,-1
 632.466472303 -157 l 1,12,-1
 451.533527697 -157 l 1,13,-1
 435.568856114 -157 l 1,14,-1
 435.568856114 -142 l 1,15,-1
 435.568856114 102.330078125 l 1,16,17
 220.396484375 124.7265625 220.396484375 124.7265625 134.838867188 256.639648438 c 0,18,19
 48 390.528320312 48 390.528320312 48 694.547851562 c 0,20,21
 48 1026.72265625 48 1026.72265625 153.114257812 1160.47753906 c 0,0,1
643.883914838 1098.72753906 m 128,-1,23
 599.102803175 1109 599.102803175 1109 542 1109 c 0,24,25
 373.856461893 1109 373.856461893 1109 309.948925329 1019.16503906 c 0,26,27
 247.018554688 926.475585938 247.018554688 926.475585938 248 682.067382812 c 0,28,29
 248.983398438 461.736328125 248.983398438 461.736328125 298.033626174 368.983398438 c 0,30,31
 344.189819901 286.541992188 344.189819901 286.541992188 457.91939633 268.279296875 c 1,32,-1
 457.91939633 682 l 1,33,-1
 457.91939633 697 l 1,34,-1
 473.884067913 697 l 1,35,-1
 610.115932087 697 l 1,36,-1
 626.08060367 697 l 1,37,-1
 626.08060367 682 l 1,38,-1
 626.08060367 268.279296875 l 1,39,40
 739.889171963 286.548828125 739.889171963 286.548828125 786.528671178 369.037109375 c 0,41,42
 836 461.737304688 836 461.737304688 836 682 c 0,43,44
 836 763.788085938 836 763.788085938 828.837890625 829.370117188 c 128,-1,45
 821.674804688 894.952148438 821.674804688 894.952148438 808.05078125 942.056640625 c 128,-1,46
 794.427734375 989.162109375 794.427734375 989.162109375 773.486698586 1019.20898438 c 0,47,48
 752.590232298 1048.81445312 752.590232298 1048.81445312 720.6276294 1068.63476562 c 128,-1,22
 688.666065868 1088.45410156 688.666065868 1088.45410156 643.883914838 1098.72753906 c 128,-1,23
EndSplineSet
EndChar

StartChar: R
Encoding: 82 82 53
Width: 1024
GlyphClass: 2
Flags: W
LayerCount: 2
Fore
SplineSet
128 1280 m 1,0,-1
 143 1280 l 1,1,-1
 603.911509672 1280 l 2,2,3
 789.708984375 1280 789.708984375 1280 880.473632812 1201.0546875 c 0,4,5
 972 1121.4453125 972 1121.4453125 972 938.9921875 c 0,6,7
 972 696.701171875 972 696.701171875 748.990871857 626.823242188 c 1,8,-1
 1018.77636719 20.455078125 l 1,9,-1
 1027.79492188 -0 l 1,10,-1
 1005 0 l 1,11,-1
 820 0 l 1,12,-1
 810.125976562 0 l 1,13,-1
 806.22265625 9.0693359375 l 1,14,-1
 528.495959208 611 l 1,15,-1
 328 611 l 1,16,-1
 328 15 l 1,17,-1
 328 0 l 1,18,-1
 313 0 l 1,19,-1
 143 0 l 1,20,-1
 128 0 l 1,21,-1
 128 15 l 1,22,-1
 128 1265 l 1,23,-1
 128 1280 l 1,0,-1
603.911509672 1123 m 2,24,-1
 328 1123 l 1,25,-1
 328 783 l 1,26,-1
 491.66354022 783 l 2,27,28
 562.105212155 783 562.105212155 783 615.245291368 793.357421875 c 128,-1,29
 668.386424592 803.71484375 668.386424592 803.71484375 703.659961116 823.740234375 c 0,30,31
 737.630739882 843.026367188 737.630739882 843.026367188 754.416921161 874.87109375 c 128,-1,32
 771.204156451 906.715820312 771.204156451 906.715820312 771.204156451 953.5234375 c 0,33,34
 771.204156451 1046.13378906 771.204156451 1046.13378906 729.339888322 1084.38085938 c 0,35,36
 687.066663874 1123 687.066663874 1123 603.911509672 1123 c 2,24,-1
EndSplineSet
EndChar

StartChar: S
Encoding: 83 83 54
Width: 1024
GlyphClass: 2
Flags: W
LayerCount: 2
Fore
SplineSet
256.921875 1205.44433594 m 0,0,1
 402.291890104 1288 402.291890104 1288 692.246325812 1288 c 0,2,3
 764.491210938 1288 764.491210938 1288 825.981445312 1283.96777344 c 128,-1,4
 887.592773438 1279.92773438 887.592773438 1279.92773438 915.16015625 1275.84375 c 2,5,-1
 943.12109375 1271.84960938 l 1,6,-1
 956 1270.00976562 l 1,7,-1
 956 1259.20507812 l 1,8,-1
 956 1135.45800781 l 1,9,-1
 956 1123 l 1,10,-1
 941 1123 l 1,11,-1
 692.246325812 1123 l 2,12,13
 503.982101273 1123 503.982101273 1123 408.067279516 1081.8828125 c 0,14,15
 362.294582271 1062.26074219 362.294582271 1062.26074219 340.408203125 1030.87109375 c 0,16,17
 320 999.481445312 320 999.481445312 320 954 c 0,18,19
 320 931.877929688 320 931.877929688 325.080078125 912.686523438 c 128,-1,20
 330.159179688 893.49609375 330.159179688 893.49609375 340.31640625 876.793945312 c 0,21,22
 347.676154005 865.392578125 347.676154005 865.392578125 356.765446708 855.262695312 c 128,-1,23
 365.854739411 845.133789062 365.854739411 845.133789062 376.662547221 836.188476562 c 128,-1,24
 387.470355031 827.2421875 387.470355031 827.2421875 400.01667292 819.48046875 c 0,25,26
 419.499140884 807.428710938 419.499140884 807.428710938 442.247103262 796.387695312 c 128,-1,27
 464.995065641 785.34765625 464.995065641 785.34765625 490.988527463 775.358398438 c 0,28,29
 543.925738395 755.014648438 543.925738395 755.014648438 601.702784588 736.149414062 c 0,30,31
 660.019694987 717.108398438 660.019694987 717.108398438 718.33555302 697.06640625 c 0,32,33
 776.391601562 676.627929688 776.391601562 676.627929688 826.984375 647.499023438 c 0,34,35
 878.114257812 618.060546875 878.114257812 618.060546875 916.961914062 580.249023438 c 0,36,37
 956.682617188 541.587890625 956.682617188 541.587890625 980.365234375 484.223632812 c 128,-1,38
 1004 426.974609375 1004 426.974609375 1004 356 c 0,39,40
 1004 217.982421875 1004 217.982421875 944.48046875 138.974609375 c 0,41,42
 929.40234375 118.958984375 929.40234375 118.958984375 909.756835938 101.827148438 c 128,-1,43
 890.112304688 84.6962890625 890.112304688 84.6962890625 866.109375 70.572265625 c 128,-1,44
 842.106445312 56.4482421875 842.106445312 56.4482421875 813.954101562 45.2080078125 c 128,-1,45
 785.801757812 33.9677734375 785.801757812 33.9677734375 752.901595409 25.4853515625 c 0,46,47
 683.307521573 8.638671875 683.307521573 8.638671875 587.517931474 0.3193359375 c 128,-1,48
 491.728341376 -8 491.728341376 -8 368.959221693 -8 c 0,49,50
 296.53125 -8 296.53125 -8 232.064453125 -3.970703125 c 0,51,52
 199.723632812 -1.94921875 199.723632812 -1.94921875 176.327148438 0.0625 c 128,-1,53
 152.931640625 2.07421875 152.931640625 2.07421875 137.950195312 4.140625 c 2,54,-1
 108.950195312 8.140625 l 1,55,-1
 96 9.9267578125 l 1,56,-1
 96 20.78515625 l 1,57,-1
 96 144.541015625 l 1,58,-1
 96 157 l 1,59,-1
 111 157 l 1,60,-1
 368.959221693 157 l 2,61,62
 616.632713449 157 616.632713449 157 711.036336373 195.719726562 c 0,63,64
 796 231.76953125 796 231.76953125 796 326 c 0,65,66
 796 369.796875 796 369.796875 775.68359375 403.206054688 c 0,67,68
 754.653786257 437.364257812 754.653786257 437.364257812 717.225305967 460.51953125 c 0,69,70
 678.13198128 484.704101562 678.13198128 484.704101562 626.253451424 504.641601562 c 0,71,72
 615.670850125 508.708984375 615.670850125 508.708984375 604.893560954 512.716796875 c 128,-1,73
 594.11732415 516.724609375 594.11732415 516.724609375 583.142190007 520.67578125 c 128,-1,74
 572.16810823 524.625976562 572.16810823 524.625976562 560.999338582 528.517578125 c 128,-1,75
 549.8316213 532.408203125 549.8316213 532.408203125 538.465006679 536.2421875 c 128,-1,76
 527.098392058 540.076171875 527.098392058 540.076171875 515.539194299 543.850585938 c 0,77,78
 457.222283899 562.891601562 457.222283899 562.891601562 398.906425866 582.93359375 c 0,79,80
 339.608398438 603.372070312 339.608398438 603.372070312 289.015625 632.500976562 c 0,81,82
 237.885742188 661.939453125 237.885742188 661.939453125 199.038085938 699.750976562 c 0,83,84
 159.317382812 738.412109375 159.317382812 738.412109375 135.634765625 795.776367188 c 128,-1,85
 112 853.025390625 112 853.025390625 112 924 c 0,86,87
 112 1120.59960938 112 1120.59960938 256.921875 1205.44433594 c 0,0,1
EndSplineSet
EndChar

StartChar: T
Encoding: 84 84 55
Width: 1024
GlyphClass: 2
Flags: W
LayerCount: 2
Fore
SplineSet
64 1280 m 1,0,-1
 79 1280 l 1,1,-1
 1005 1280 l 1,2,-1
 1020 1280 l 1,3,-1
 1020 1265 l 1,4,-1
 1020 1135.38378906 l 1,5,-1
 1020 1123 l 1,6,-1
 1005 1123 l 1,7,-1
 648.904805745 1123 l 1,8,-1
 648.904805745 15 l 1,9,-1
 648.904805745 0 l 1,10,-1
 632.869084883 0 l 1,11,-1
 451.130915117 0 l 1,12,-1
 435.095194255 0 l 1,13,-1
 435.095194255 15 l 1,14,-1
 435.095194255 1123 l 1,15,-1
 79 1123 l 1,16,-1
 64 1123 l 1,17,-1
 64 1135.38378906 l 1,18,-1
 64 1265 l 1,19,-1
 64 1280 l 1,0,-1
EndSplineSet
EndChar

StartChar: U
Encoding: 85 85 56
Width: 1024
GlyphClass: 2
Flags: W
LayerCount: 2
Fore
SplineSet
96 1280 m 1,0,-1
 111 1280 l 1,1,-1
 281 1280 l 1,2,-1
 296 1280 l 1,3,-1
 296 1265 l 1,4,-1
 296 579.790039062 l 2,5,6
 296 520.9140625 296 520.9140625 299.383789062 470.650390625 c 128,-1,7
 302.768554688 420.387695312 302.768554688 420.387695312 309.354492188 380.037109375 c 128,-1,8
 315.94140625 339.686523438 315.94140625 339.686523438 325.508789062 308.654296875 c 128,-1,9
 335.076171875 277.62109375 335.076171875 277.62109375 348.040808546 256.028320312 c 0,10,11
 401.221873482 171 401.221873482 171 542 171 c 128,-1,12
 682.778126518 171 682.778126518 171 735.959191454 256.028320312 c 0,13,14
 788 345.157226562 788 345.157226562 788 579.790039062 c 2,15,-1
 788 1265 l 1,16,-1
 788 1280 l 1,17,-1
 803 1280 l 1,18,-1
 973 1280 l 1,19,-1
 988 1280 l 1,20,-1
 988 1265 l 1,21,-1
 988 577.493164062 l 2,22,23
 988 410.096679688 988 410.096679688 966.736328125 300.830078125 c 0,24,25
 945.137695312 189.84375 945.137695312 189.84375 893.8046875 117.939453125 c 0,26,27
 841.649414062 44.8828125 841.649414062 44.8828125 759.306640625 14.4697265625 c 0,28,29
 673.600386661 -16 673.600386661 -16 542 -16 c 128,-1,30
 410.399613339 -16 410.399613339 -16 324.693359375 14.4697265625 c 0,31,32
 242.350585938 44.8828125 242.350585938 44.8828125 190.1953125 117.939453125 c 0,33,34
 138.862304688 189.84375 138.862304688 189.84375 117.263671875 300.830078125 c 0,35,36
 96 410.096679688 96 410.096679688 96 577.493164062 c 2,37,-1
 96 1265 l 1,38,-1
 96 1280 l 1,0,-1
EndSplineSet
EndChar

StartChar: V
Encoding: 86 86 57
Width: 1024
GlyphClass: 2
Flags: W
LayerCount: 2
Fore
SplineSet
32 1280 m 1,0,-1
 52.0703125 1280 l 1,1,-1
 229.0703125 1280 l 1,2,-1
 240.286132812 1280 l 1,3,-1
 243.458007812 1269.2421875 l 1,4,-1
 530.537146334 343.2421875 l 1,5,-1
 530.803960425 342.385742188 l 1,6,-1
 547.0703125 251.76171875 l 1,7,-1
 563.178437614 341.506835938 l 1,8,-1
 563.603478666 343.2421875 l 1,9,-1
 850.682617188 1269.2421875 l 1,10,-1
 853.854492188 1280 l 1,11,-1
 865.0703125 1280 l 1,12,-1
 1042.0703125 1280 l 1,13,-1
 1062.140625 1280 l 1,14,-1
 1056.45605469 1261.19628906 l 1,15,-1
 670.32084171 10.751953125 l 1,16,-1
 666.958777332 -0 l 1,17,-1
 655.086584451 0 l 1,18,-1
 439.054040549 0 l 1,19,-1
 427.181847668 0 l 1,20,-1
 423.81978329 10.751953125 l 1,21,-1
 37.6845703125 1261.19628906 l 1,22,-1
 32 1280 l 1,0,-1
EndSplineSet
EndChar

StartChar: W
Encoding: 87 87 58
Width: 1024
GlyphClass: 2
Flags: W
LayerCount: 2
Fore
SplineSet
32 1280 m 1,0,-1
 48.1669921875 1280 l 1,1,-1
 205.166992188 1280 l 1,2,-1
 219.079101562 1280 l 1,3,-1
 220.125 1266.12695312 l 1,4,-1
 293.878756791 299.552734375 l 1,5,-1
 474.20605198 758.216796875 l 1,6,-1
 478.052338717 768 l 1,7,-1
 489.111965675 768 l 1,8,-1
 597.2220187 768 l 1,9,-1
 608.281645658 768 l 1,10,-1
 612.127932395 758.216796875 l 1,11,-1
 792.455227584 299.552734375 l 1,12,-1
 866.209960938 1266.12695312 l 1,13,-1
 867.254882812 1280 l 1,14,-1
 881.166992188 1280 l 1,15,-1
 1038.16699219 1280 l 1,16,-1
 1054.33398438 1280 l 1,17,-1
 1053.125 1264.25097656 l 1,18,-1
 957.125 13.8779296875 l 1,19,-1
 956.083984375 0 l 1,20,-1
 942.166992188 0 l 1,21,-1
 733.949438702 0 l 1,22,-1
 722.883601377 0 l 1,23,-1
 719.040419824 9.7900390625 l 1,24,-1
 543.166992188 457.811523438 l 1,25,-1
 367.293564551 9.7900390625 l 1,26,-1
 363.450382998 0 l 1,27,-1
 352.384545673 0 l 1,28,-1
 144.166992188 0 l 1,29,-1
 130.25 0 l 1,30,-1
 129.208984375 13.8779296875 l 1,31,-1
 33.208984375 1264.25097656 l 1,32,-1
 32 1280 l 1,0,-1
EndSplineSet
EndChar

StartChar: X
Encoding: 88 88 59
Width: 1024
GlyphClass: 2
Flags: W
LayerCount: 2
Fore
SplineSet
32 1280 m 1,0,-1
 58.38671875 1280 l 1,1,-1
 256.38671875 1280 l 1,2,-1
 265.060546875 1280 l 1,3,-1
 269.38671875 1272.48242188 l 1,4,-1
 553.386746852 805.072265625 l 1,5,-1
 837.385742188 1272.48242188 l 1,6,-1
 841.711914062 1280 l 1,7,-1
 850.38671875 1280 l 1,8,-1
 1048.38671875 1280 l 1,9,-1
 1074.77246094 1280 l 1,10,-1
 1061.27539062 1257.84667969 l 1,11,-1
 676.545276641 640 l 1,12,-1
 1061.27539062 22.1533203125 l 1,13,-1
 1074.77246094 0 l 1,14,-1
 1048.38671875 0 l 1,15,-1
 850.38671875 0 l 1,16,-1
 841.711914062 0 l 1,17,-1
 837.385742188 7.517578125 l 1,18,-1
 553.386746852 474.927734375 l 1,19,-1
 269.38671875 7.517578125 l 1,20,-1
 265.060546875 0 l 1,21,-1
 256.38671875 0 l 1,22,-1
 58.38671875 0 l 1,23,-1
 32 0 l 1,24,-1
 45.4970703125 22.1533203125 l 1,25,-1
 430.227184297 640 l 1,26,-1
 45.4970703125 1257.84667969 l 1,27,-1
 32 1280 l 1,0,-1
EndSplineSet
EndChar

StartChar: Y
Encoding: 89 89 60
Width: 1024
GlyphClass: 2
Flags: W
LayerCount: 2
Fore
SplineSet
32 1280 m 1,0,-1
 56.5830078125 1280 l 1,1,-1
 247.583007812 1280 l 1,2,-1
 256.8671875 1280 l 1,3,-1
 261.0078125 1271.68945312 l 1,4,-1
 551.583036111 718.633789062 l 1,5,-1
 842.157226562 1271.68945312 l 1,6,-1
 846.297851562 1280 l 1,7,-1
 855.583007812 1280 l 1,8,-1
 1046.58300781 1280 l 1,9,-1
 1071.16503906 1280 l 1,10,-1
 1059.921875 1258.64550781 l 1,11,-1
 657.378513269 511.591796875 l 1,12,-1
 657.378513269 15 l 1,13,-1
 657.378513269 0 l 1,14,-1
 641.509191695 0 l 1,15,-1
 461.656880526 0 l 1,16,-1
 445.787558952 0 l 1,17,-1
 445.787558952 15 l 1,18,-1
 445.787558952 511.591796875 l 1,19,-1
 43.2431640625 1258.64550781 l 1,20,-1
 32 1280 l 1,0,-1
EndSplineSet
EndChar

StartChar: Z
Encoding: 90 90 61
Width: 1024
GlyphClass: 2
Flags: W
LayerCount: 2
Fore
SplineSet
956 1280 m 1,0,-1
 956 1265 l 1,1,-1
 956 1108 l 1,2,-1
 956 1103.64257812 l 1,3,-1
 953.665039062 1099.96289062 l 1,4,-1
 325.284179688 157 l 1,5,-1
 973 157 l 1,6,-1
 988 157 l 1,7,-1
 988 144.616210938 l 1,8,-1
 988 15 l 1,9,-1
 988 0 l 1,10,-1
 973 0 l 1,11,-1
 111 0 l 1,12,-1
 96 0 l 1,13,-1
 96 15 l 1,14,-1
 96 172 l 1,15,-1
 96 176.357421875 l 1,16,-1
 98.3349609375 180.037109375 l 1,17,-1
 725.458733855 1123 l 1,18,-1
 143 1123 l 1,19,-1
 128 1123 l 1,20,-1
 128 1135.38378906 l 1,21,-1
 128 1265 l 1,22,-1
 128 1280 l 1,23,-1
 143 1280 l 1,24,-1
 941 1280 l 1,25,-1
 956 1280 l 1,0,-1
EndSplineSet
EndChar

StartChar: bracketleft
Encoding: 91 91 62
Width: 1024
GlyphClass: 2
Flags: W
LayerCount: 2
Fore
SplineSet
822 1265 m 1,0,-1
 527 1265 l 1,1,-1
 527 -84 l 1,2,-1
 822 -84 l 1,3,-1
 837 -84 l 1,4,-1
 837 -99 l 1,5,-1
 837 -256 l 1,6,-1
 837 -271 l 1,7,-1
 822 -271 l 1,8,-1
 342 -271 l 1,9,-1
 327 -271 l 1,10,-1
 327 -256 l 1,11,-1
 327 1437 l 1,12,-1
 327 1452 l 1,13,-1
 342 1452 l 1,14,-1
 822 1452 l 1,15,-1
 837 1452 l 1,16,-1
 837 1437 l 1,17,-1
 837 1280 l 1,18,-1
 837 1265 l 1,19,-1
 822 1265 l 1,0,-1
EndSplineSet
EndChar

StartChar: backslash
Encoding: 92 92 63
Width: 1024
GlyphClass: 2
Flags: W
LayerCount: 2
Fore
SplineSet
177 1452 m 1,0,-1
 354 1452 l 1,1,-1
 365.255051658 1452 l 1,2,-1
 368.401808884 1441.19379314 l 1,3,-1
 861.401808884 -251.806206864 l 1,4,-1
 866.991023306 -271 l 1,5,-1
 847 -271 l 1,6,-1
 669 -271 l 1,7,-1
 657.738563151 -271 l 1,8,-1
 654.595909387 -260.185949546 l 1,9,-1
 162.595909387 1432.81405045 l 1,10,-1
 157.020311527 1452 l 1,11,-1
 177 1452 l 1,0,-1
EndSplineSet
EndChar

StartChar: bracketright
Encoding: 93 93 64
Width: 1024
GlyphClass: 2
Flags: W
LayerCount: 2
Fore
SplineSet
187 1280 m 1,0,-1
 187 1437 l 1,1,-1
 187 1452 l 1,2,-1
 202 1452 l 1,3,-1
 682 1452 l 1,4,-1
 697 1452 l 1,5,-1
 697 1437 l 1,6,-1
 697 -256 l 1,7,-1
 697 -271 l 1,8,-1
 682 -271 l 1,9,-1
 202 -271 l 1,10,-1
 187 -271 l 1,11,-1
 187 -256 l 1,12,-1
 187 -99 l 1,13,-1
 187 -84 l 1,14,-1
 202 -84 l 1,15,-1
 497 -84 l 1,16,-1
 497 1265 l 1,17,-1
 202 1265 l 1,18,-1
 187 1265 l 1,19,-1
 187 1280 l 1,0,-1
EndSplineSet
EndChar

StartChar: asciicircum
Encoding: 94 94 65
Width: 1024
GlyphClass: 2
Flags: W
LayerCount: 2
Fore
SplineSet
410 1295 m 1,0,-1
 614 1295 l 1,1,-1
 622.942368691 1295 l 1,2,-1
 627.195131482 1287.13361796 l 1,3,-1
 973.195131482 647.133617958 l 1,4,-1
 985.161118691 625 l 1,5,-1
 960 625 l 1,6,-1
 767 625 l 1,7,-1
 758.063734701 625 l 1,8,-1
 753.809154692 632.858459546 l 1,9,-1
 512 1079.49419233 l 1,10,-1
 270.190845308 632.858459546 l 1,11,-1
 265.936265299 625 l 1,12,-1
 257 625 l 1,13,-1
 64 625 l 1,14,-1
 38.8388813094 625 l 1,15,-1
 50.8048685177 647.133617958 l 1,16,-1
 396.804868518 1287.13361796 l 1,17,-1
 401.057631309 1295 l 1,18,-1
 410 1295 l 1,0,-1
EndSplineSet
EndChar

StartChar: underscore
Encoding: 95 95 66
Width: 1024
GlyphClass: 2
Flags: W
LayerCount: 2
Fore
SplineSet
85 -84 m 1,0,-1
 939 -84 l 1,1,-1
 954 -84 l 1,2,-1
 954 -99 l 1,3,-1
 954 -256 l 1,4,-1
 954 -271 l 1,5,-1
 939 -271 l 1,6,-1
 85 -271 l 1,7,-1
 70 -271 l 1,8,-1
 70 -256 l 1,9,-1
 70 -99 l 1,10,-1
 70 -84 l 1,11,-1
 85 -84 l 1,0,-1
EndSplineSet
EndChar

StartChar: grave
Encoding: 96 96 67
Width: 1024
GlyphClass: 2
Flags: W
LayerCount: 2
Fore
SplineSet
264.393398282 1151.60660172 m 1,0,-1
 384.393398282 1271.60660172 l 1,1,-1
 395.236989777 1282.45019321 l 1,2,-1
 405.838355431 1271.36966979 l 1,3,-1
 759.838355431 901.36966979 l 1,4,-1
 769.981393137 890.768189702 l 1,5,-1
 759.606601718 880.393398282 l 1,6,-1
 655.606601718 776.393398282 l 1,7,-1
 645.231810298 766.018606863 l 1,8,-1
 634.63033021 776.161644569 l 1,9,-1
 264.63033021 1130.16164457 l 1,10,-1
 253.549806787 1140.76301022 l 1,11,-1
 264.393398282 1151.60660172 l 1,0,-1
EndSplineSet
EndChar

StartChar: a
Encoding: 97 97 68
Width: 1024
GlyphClass: 2
Flags: W
LayerCount: 2
Fore
SplineSet
235.788085938 1015.65234375 m 2,0,1
 310.375 1032 310.375 1032 437.813445795 1032 c 0,2,3
 735.728515625 1032 735.728515625 1032 844.6015625 957.94140625 c 0,4,5
 956 882.165039062 956 882.165039062 956 690.915039062 c 2,6,-1
 986 263.344726562 l 2,7,8
 986 117.375 986 117.375 925.606445312 58.6875 c 128,-1,9
 865.212890625 0 865.212890625 0 685 0 c 2,10,-1
 497 0 l 2,11,12
 302.93359375 0 302.93359375 0 207.572265625 89.9892578125 c 0,13,14
 112 180.178710938 112 180.178710938 112 334.71484375 c 0,15,16
 112 460.944335938 112 460.944335938 208.813476562 534.13671875 c 0,17,18
 303.869140625 606 303.869140625 606 477.162490697 606 c 2,19,-1
 756 606 l 1,20,-1
 756 701.48828125 l 2,21,22
 756 748.9921875 756 748.9921875 741.092773438 780.271484375 c 128,-1,23
 726.185546875 811.55078125 726.185546875 811.55078125 694.911164549 829.215820312 c 0,24,25
 661.072096041 847.463867188 661.072096041 847.463867188 596.152149455 857.232421875 c 128,-1,26
 531.231135458 867 531.231135458 867 437.813445795 867 c 2,27,-1
 239 867 l 1,28,-1
 224 867 l 1,29,-1
 224 879.444335938 l 1,30,-1
 224 1003.05664062 l 1,31,-1
 224 1013.06835938 l 1,32,-1
 235.788085938 1015.65234375 l 2,0,1
786 418 m 1,33,-1
 497 418 l 2,34,35
 487.278497317 418 487.278497317 418 477.972741355 417.7109375 c 128,-1,36
 468.665740643 417.420898438 468.665740643 417.420898438 459.877800957 416.84765625 c 128,-1,37
 451.088616521 416.274414062 451.088616521 416.274414062 442.726381562 415.42578125 c 128,-1,38
 434.364146604 414.576171875 434.364146604 414.576171875 426.494832908 413.451171875 c 128,-1,39
 418.625519212 412.326171875 418.625519212 412.326171875 411.196847251 410.938476562 c 128,-1,40
 403.76693054 409.55078125 403.76693054 409.55078125 396.806284829 407.895507812 c 128,-1,41
 389.844394367 406.239257812 389.844394367 406.239257812 383.336837897 404.3359375 c 128,-1,42
 376.829281427 402.431640625 376.829281427 402.431640625 370.764856194 400.267578125 c 128,-1,43
 364.70043096 398.102539062 364.70043096 398.102539062 359.102787226 395.704101562 c 0,44,45
 354.421875 393.3046875 354.421875 393.3046875 350.361328125 390.653320312 c 0,46,47
 337.028320312 381.948242188 337.028320312 381.948242188 328.528320312 371.646484375 c 128,-1,48
 320.028320312 361.344726562 320.028320312 361.344726562 316.014648438 349.259765625 c 128,-1,49
 312 337.17578125 312 337.17578125 312 322.51171875 c 0,50,51
 312 283.247070312 312 283.247070312 322.31640625 253.17578125 c 128,-1,52
 332.633789062 223.104492188 332.633789062 223.104492188 353.1640625 201.08203125 c 0,53,54
 378.032955319 179.091796875 378.032955319 179.091796875 413.95023572 168.045898438 c 128,-1,55
 449.86751612 157 449.86751612 157 497 157 c 2,56,-1
 685 157 l 2,57,58
 757.118164062 157 757.118164062 157 771.129882812 174.276367188 c 0,59,60
 786 192.612304688 786 192.612304688 786 246.122070312 c 2,61,-1
 786 418 l 1,33,-1
EndSplineSet
EndChar

StartChar: b
Encoding: 98 98 69
Width: 1024
GlyphClass: 2
Flags: W
LayerCount: 2
Fore
SplineSet
128 1280 m 1,0,-1
 143 1280 l 1,1,-1
 313 1280 l 1,2,-1
 328 1280 l 1,3,-1
 328 1265 l 1,4,-1
 328 986.297851562 l 1,5,6
 430.877982259 1024 430.877982259 1024 541.2557678 1024 c 0,7,8
 749.094726562 1024 749.094726562 1024 861.095703125 891.400390625 c 0,9,10
 972 760.098632812 972 760.098632812 972 535.31640625 c 0,11,12
 1002 289.133789062 1002 289.133789062 879.5625 145.19140625 c 0,13,14
 756.038642089 0 756.038642089 0 513 0 c 2,15,-1
 429 0 l 2,16,17
 248.787109375 0 248.787109375 0 188.393554688 58.994140625 c 128,-1,18
 128 117.98828125 128 117.98828125 128 264.721679688 c 2,19,-1
 128 1265 l 1,20,-1
 128 1280 l 1,0,-1
638.238610728 845.8203125 m 128,-1,22
 596.02463428 867 596.02463428 867 541.2557678 867 c 0,23,24
 430.137198915 867 430.137198915 867 328 817.634765625 c 1,25,-1
 328 244.706054688 l 2,26,27
 328 230.16796875 328 230.16796875 330.284179688 217.953125 c 128,-1,28
 332.569335938 205.737304688 332.569335938 205.737304688 336.809570312 196.28125 c 128,-1,29
 341.05078125 186.825195312 341.05078125 186.825195312 347.328125 179.2734375 c 0,30,31
 356.6640625 168.041992188 356.6640625 168.041992188 369.23828125 162.521484375 c 0,32,33
 391.385754569 157 391.385754569 157 429 157 c 2,34,-1
 513 157 l 2,35,36
 649.107075654 157 649.107075654 157 727.825587147 256.994140625 c 0,37,38
 802 359.393554688 802 359.393554688 772 537.05859375 c 0,39,40
 772 615.44921875 772 615.44921875 757.176757812 676.46875 c 128,-1,41
 742.354492188 737.48828125 742.354492188 737.48828125 711.967901595 781.3203125 c 0,42,21
 680.452587176 824.640625 680.452587176 824.640625 638.238610728 845.8203125 c 128,-1,22
EndSplineSet
EndChar

StartChar: c
Encoding: 99 99 70
Width: 1024
GlyphClass: 2
Flags: W
LayerCount: 2
Fore
SplineSet
262.080078125 891.412109375 m 0,0,1
 417.534962605 1032 417.534962605 1032 687 1032 c 0,2,3
 748.540039062 1032 748.540039062 1032 804.578125 1027.9609375 c 128,-1,4
 860.727539062 1023.9140625 860.727539062 1023.9140625 886.370117188 1019.81152344 c 2,5,-1
 911.370117188 1015.81152344 l 1,6,-1
 924 1013.79101562 l 1,7,-1
 924 1003.17089844 l 1,8,-1
 924 879.455078125 l 1,9,-1
 924 867 l 1,10,-1
 909 867 l 1,11,-1
 687 867 l 2,12,13
 598.523084098 867 598.523084098 867 529.050012049 843.171875 c 128,-1,14
 459.57694 819.342773438 459.57694 819.342773438 408.831569729 771.81640625 c 128,-1,15
 358.087276878 724.291015625 358.087276878 724.291015625 335.028320312 659.630859375 c 128,-1,16
 312 594.971679688 312 594.971679688 312 512 c 0,17,18
 312 319.59375 312 319.59375 403.237608872 238.647460938 c 0,19,20
 451.27973419 198.124023438 451.27973419 198.124023438 522.282741604 177.561523438 c 128,-1,21
 593.286826438 157 593.286826438 157 687 157 c 2,22,-1
 909 157 l 1,23,-1
 924 157 l 1,24,-1
 924 144.55078125 l 1,25,-1
 924 20.884765625 l 1,26,-1
 924 10.560546875 l 1,27,-1
 911.774414062 8.2587890625 l 2,28,29
 825.399414062 -8 825.399414062 -8 687 -8 c 0,30,31
 578.073666324 -8 578.073666324 -8 489.241524804 8.81640625 c 0,32,33
 444.452128266 17.0546875 444.452128266 17.0546875 402.960712119 30.6923828125 c 128,-1,34
 361.470373391 44.3310546875 361.470373391 44.3310546875 326.599609375 63.353515625 c 0,35,36
 256.905273438 101.755859375 256.905273438 101.755859375 210.036132812 161.961914062 c 0,37,38
 163.333007812 221.955078125 163.333007812 221.955078125 137.564453125 310.57421875 c 0,39,40
 112 398.49609375 112 398.49609375 112 512.239257812 c 0,41,42
 112 551.706054688 112 551.706054688 116.15625 588.583984375 c 128,-1,43
 120.311523438 625.461914062 120.311523438 625.461914062 128.623046875 659.759765625 c 128,-1,44
 136.934570312 694.057617188 136.934570312 694.057617188 149.438476562 725.721679688 c 128,-1,45
 161.942382812 757.385742188 161.942382812 757.385742188 178.599609375 786.356445312 c 128,-1,46
 195.256835938 815.327148438 195.256835938 815.327148438 216.147460938 841.623046875 c 128,-1,47
 237.037109375 867.918945312 237.037109375 867.918945312 262.080078125 891.412109375 c 0,0,1
EndSplineSet
EndChar

StartChar: d
Encoding: 100 100 71
Width: 1024
GlyphClass: 2
Flags: W
LayerCount: 2
Fore
SplineSet
956 1280 m 1,0,-1
 956 1265 l 1,1,-1
 986 264.721679688 l 2,2,3
 986 117.98828125 986 117.98828125 925.606445312 58.994140625 c 128,-1,4
 865.212890625 0 865.212890625 0 685 0 c 2,5,-1
 601 0 l 2,6,7
 358.445926905 0 358.445926905 0 234.897460938 132.045898438 c 0,8,9
 193.807617188 175.990234375 193.807617188 175.990234375 166.44140625 230.583984375 c 128,-1,10
 139.07421875 285.176757812 139.07421875 285.176757812 125.537109375 349.629882812 c 128,-1,11
 112 414.083007812 112 414.083007812 112 488.68359375 c 0,12,13
 112 734.463867188 112 734.463867188 222.48046875 878.243164062 c 0,14,15
 334.479492188 1024 334.479492188 1024 542.7442322 1024 c 0,16,17
 653.122017741 1024 653.122017741 1024 756 986.297851562 c 1,18,-1
 756 1265 l 1,19,-1
 756 1280 l 1,20,-1
 771 1280 l 1,21,-1
 941 1280 l 1,22,-1
 956 1280 l 1,0,-1
756 817.610351562 m 1,23,24
 653.862801085 867 653.862801085 867 542.7442322 867 c 0,25,26
 488.49199272 867 488.49199272 867 446.412510078 842.666992188 c 128,-1,27
 404.333027436 818.333984375 404.333027436 818.333984375 372.609567841 768.075195312 c 0,28,29
 351.759765625 734.158203125 351.759765625 734.158203125 338.604492188 691.864257812 c 128,-1,30
 325.450195312 649.5703125 325.450195312 649.5703125 318.724609375 598.155273438 c 128,-1,31
 312 546.739257812 312 546.739257812 312 486.94140625 c 0,32,33
 312 455.573242188 312 455.573242188 314.857421875 426.9765625 c 128,-1,34
 317.71484375 398.379882812 317.71484375 398.379882812 323.358398438 372.76953125 c 128,-1,35
 329.001953125 347.159179688 329.001953125 347.159179688 337.452148438 324.236328125 c 128,-1,36
 345.901367188 301.313476562 345.901367188 301.313476562 357.029296875 281.2578125 c 0,37,38
 369.619976501 261.202148438 369.619976501 261.202148438 385.454800049 243.749023438 c 0,39,40
 464.164399928 157 464.164399928 157 601 157 c 2,41,-1
 685 157 l 2,42,43
 694.517372289 157 694.517372289 157 703.357222229 157 c 0,44,45
 712.194934875 157.352539062 712.194934875 157.352539062 720.357262468 158.059570312 c 128,-1,46
 728.521727355 158.766601562 728.521727355 158.766601562 736.062102256 159.813476562 c 0,47,48
 741.775390625 160.860351562 741.775390625 160.860351562 744.959960938 162.267578125 c 128,-1,49
 748.145507812 163.674804688 748.145507812 163.674804688 751.068359375 165.40625 c 128,-1,50
 753.991210938 167.138671875 753.991210938 167.138671875 756.703125 169.237304688 c 128,-1,51
 759.415039062 171.334960938 759.415039062 171.334960938 761.888671875 173.744140625 c 128,-1,52
 764.362304688 176.153320312 764.362304688 176.153320312 766.671875 178.932617188 c 0,53,54
 786 202.1953125 786 202.1953125 786 244.397460938 c 2,55,-1
 756 817.610351562 l 1,23,24
EndSplineSet
EndChar

StartChar: e
Encoding: 101 101 72
Width: 1024
GlyphClass: 2
Flags: W
LayerCount: 2
Fore
SplineSet
879.28125 8.1748046875 m 2,0,1
 774.147460938 -8 774.147460938 -8 595.34294493 -8 c 0,2,3
 361.43493938 -8 361.43493938 -8 236.1484375 132.66796875 c 0,4,5
 112 272.391601562 112 272.391601562 112 512.111328125 c 0,6,7
 112 753.286132812 112 753.286132812 224.0859375 895.743164062 c 0,8,9
 337.588867188 1040 337.588867188 1040 542 1040 c 0,10,11
 744.9453125 1040 744.9453125 1040 858.275390625 935.936523438 c 0,12,13
 972 831.512695312 972 831.512695312 972 654.301757812 c 2,14,-1
 972 586.92578125 l 2,15,16
 972 541.075195312 972 541.075195312 961.919921875 508.186523438 c 128,-1,17
 951.838867188 475.296875 951.838867188 475.296875 930.229492188 455.622070312 c 0,18,19
 888.908203125 418 888.908203125 418 787 418 c 2,20,-1
 320.46875 418 l 1,21,22
 320.928710938 408.244140625 320.928710938 408.244140625 326.228515625 379.107421875 c 0,23,24
 328.879882812 364.529296875 328.879882812 364.529296875 332.3671875 350.623046875 c 128,-1,25
 335.854492188 336.716796875 335.854492188 336.716796875 340.174804688 323.474609375 c 0,26,27
 348.591796875 297.67578125 348.591796875 297.67578125 369.0500445 265.31640625 c 0,28,29
 390.014706371 233.421875 390.014706371 233.421875 418.02995838 210.5859375 c 0,30,31
 431.656988596 199.478515625 431.656988596 199.478515625 450.108442522 189.928710938 c 128,-1,32
 468.560959566 180.377929688 468.560959566 180.377929688 491.797501883 172.577148438 c 0,33,34
 507.193558334 167.409179688 507.193558334 167.409179688 523.761169419 163.954101562 c 128,-1,35
 540.328780504 160.499023438 540.328780504 160.499023438 558.262496584 158.75 c 128,-1,36
 576.195149547 157 576.195149547 157 595.34294493 157 c 2,37,-1
 877 157 l 1,38,-1
 892 157 l 1,39,-1
 892 144.543945312 l 1,40,-1
 892 20.8173828125 l 1,41,-1
 892 10.130859375 l 1,42,-1
 879.28125 8.1748046875 l 2,0,1
319.96484375 591 m 1,43,-1
 772 591 l 1,44,-1
 772 645 l 2,45,46
 772 741.677734375 772 741.677734375 714.031422647 797.263671875 c 0,47,48
 651.836967842 853 651.836967842 853 542 853 c 0,49,50
 532.795535371 853 532.795535371 853 523.953593547 852.40234375 c 128,-1,51
 515.112714839 851.8046875 515.112714839 851.8046875 506.675820488 850.619140625 c 128,-1,52
 498.238926137 849.432617188 498.238926137 849.432617188 490.140102905 847.654296875 c 128,-1,53
 482.041279673 845.875976562 482.041279673 845.875976562 474.327304697 843.524414062 c 128,-1,54
 466.614392837 841.171875 466.614392837 841.171875 459.214037295 838.232421875 c 0,55,56
 422.358969695 823.592773438 422.358969695 823.592773438 400.306739412 800.184570312 c 0,57,58
 377.014915025 775.4609375 377.014915025 775.4609375 359.916808693 745.952148438 c 0,59,60
 344.1328125 716.627929688 344.1328125 716.627929688 337.079101562 687.47265625 c 0,61,62
 329.696289062 656.954101562 329.696289062 656.954101562 325.280273438 631.44140625 c 0,63,64
 321.021484375 606.8359375 321.021484375 606.8359375 319.96484375 591 c 1,43,-1
EndSplineSet
EndChar

StartChar: f
Encoding: 102 102 73
Width: 1024
GlyphClass: 2
Flags: W
LayerCount: 2
Fore
SplineSet
988 1269.70703125 m 1,0,-1
 988 1257 l 1,1,-1
 988 1108 l 1,2,-1
 988 1093 l 1,3,-1
 973 1093 l 1,4,-1
 765 1093 l 2,5,6
 734.288112297 1093 734.288112297 1093 706.867846274 1090.50488281 c 128,-1,7
 679.448635891 1088.00976562 679.448635891 1088.00976562 658.697907529 1083.32421875 c 128,-1,8
 637.948234807 1078.63769531 637.948234807 1078.63769531 622.92541264 1072.19140625 c 128,-1,9
 607.901534833 1065.74511719 607.901534833 1065.74511719 598.509499922 1057.57324219 c 0,10,11
 580.865522009 1042.65234375 580.865522009 1042.65234375 570.329172627 1010.08886719 c 128,-1,12
 559.792823246 977.524414062 559.792823246 977.524414062 558.406767066 928.708007812 c 1,13,-1
 973 928.708007812 l 1,14,-1
 988 928.708007812 l 1,15,-1
 988 914.127929688 l 1,16,-1
 988 761.518554688 l 1,17,-1
 988 746.938476562 l 1,18,-1
 973 746.938476562 l 1,19,-1
 558.214640466 746.938476562 l 1,20,-1
 558.214640466 15 l 1,21,-1
 558.214640466 0 l 1,22,-1
 542 0 l 1,23,-1
 358.234074714 0 l 1,24,-1
 342.019434247 0 l 1,25,-1
 342.019434247 15 l 1,26,-1
 342.019434247 747.475585938 l 1,27,-1
 111 747.475585938 l 1,28,-1
 96 747.475585938 l 1,29,-1
 96 762.06640625 l 1,30,-1
 96 914.787109375 l 1,31,-1
 96 929.37890625 l 1,32,-1
 111 929.37890625 l 1,33,-1
 342.110219344 929.37890625 l 1,34,35
 343.383321974 1024.60546875 343.383321974 1024.60546875 360.340077821 1085.63769531 c 0,36,37
 365.028177972 1102.98632812 365.028177972 1102.98632812 371.6449336 1119.01171875 c 128,-1,38
 378.262744868 1135.03710938 378.262744868 1135.03710938 386.803933411 1149.72460938 c 128,-1,39
 395.346177594 1164.41210938 395.346177594 1164.41210938 405.843468271 1177.73828125 c 128,-1,40
 416.340758948 1191.06347656 416.340758948 1191.06347656 428.727646398 1202.92285156 c 0,41,42
 478.434597937 1250.51074219 478.434597937 1250.51074219 560.768235212 1269.55175781 c 0,43,44
 640.534554413 1288 640.534554413 1288 765 1288 c 0,45,46
 822.576171875 1288 822.576171875 1288 875.150390625 1283.95605469 c 0,47,48
 901.548828125 1281.92480469 901.548828125 1281.92480469 920.508789062 1279.90429688 c 128,-1,49
 939.467773438 1277.8828125 939.467773438 1277.8828125 951.518554688 1275.78710938 c 2,50,-1
 975.465820312 1271.79589844 l 1,51,-1
 988 1269.70703125 l 1,0,-1
EndSplineSet
EndChar

StartChar: g
Encoding: 103 103 74
Width: 1024
GlyphClass: 2
Flags: W
LayerCount: 2
Fore
SplineSet
236.102539062 917.805664062 m 0,0,1
 359.572132083 1024 359.572132083 1024 601 1024 c 2,2,-1
 685 1024 l 2,3,4
 865.212890625 1024 865.212890625 1024 925.606445312 965.0859375 c 128,-1,5
 986 906.171875 986 906.171875 986 759.638671875 c 2,6,-1
 986 127.513671875 l 2,7,8
 986 -77.9130859375 986 -77.9130859375 856.889648438 -170.58203125 c 0,9,10
 728.004421301 -264 728.004421301 -264 444.62689159 -264 c 0,11,12
 381.025686913 -264 381.025686913 -264 328.75390625 -259.948242188 c 0,13,14
 312.497070312 -258.59375 312.497070312 -258.59375 299.443359375 -257.258789062 c 128,-1,15
 286.390625 -255.923828125 286.390625 -255.923828125 276.040039062 -254.543945312 c 128,-1,16
 265.689453125 -253.163085938 265.689453125 -253.163085938 258.254882812 -251.747070312 c 2,17,-1
 236.31640625 -247.7578125 l 1,18,-1
 224 -245.518554688 l 1,19,-1
 224 -233 l 1,20,-1
 224 -84 l 1,21,-1
 224 -69 l 1,22,-1
 239 -69 l 1,23,-1
 444.62689159 -69 l 2,24,25
 619.70712864 -69 619.70712864 -69 709.02401772 -20.861328125 c 0,26,27
 786 22.7177734375 786 22.7177734375 786 126.555664062 c 2,28,-1
 786 241 l 1,29,-1
 558.488464401 241 l 2,30,31
 336.037109375 241 336.037109375 241 224.202148438 344.608398438 c 0,32,33
 186.78125 379.276367188 186.78125 379.276367188 161.786132812 422.490234375 c 128,-1,34
 136.791015625 465.703125 136.791015625 465.703125 124.395507812 516.724609375 c 128,-1,35
 112 567.74609375 112 567.74609375 112 626.612304688 c 0,36,37
 112 718.137695312 112 718.137695312 143.069335938 791.276367188 c 128,-1,38
 174.139648438 864.415039062 174.139648438 864.415039062 236.102539062 917.805664062 c 0,0,1
685 867 m 2,39,-1
 601 867 l 2,40,41
 462.424407358 867 462.424407358 867 383.37616616 805.98828125 c 0,42,43
 312 745.928710938 312 745.928710938 312 641.288085938 c 0,44,45
 312 607.420898438 312 607.420898438 318.408203125 578.784179688 c 128,-1,46
 324.817382812 550.1484375 324.817382812 550.1484375 337.39453125 526.848632812 c 128,-1,47
 349.971679688 503.549804688 349.971679688 503.549804688 370.954617825 484.763671875 c 0,48,49
 404.724840979 456.481445312 404.724840979 456.481445312 451.315842019 442.241210938 c 128,-1,50
 497.9056848 428 497.9056848 428 558.488464401 428 c 2,51,-1
 786 428 l 1,52,-1
 786 780.028320312 l 2,53,54
 786 821.85546875 786 821.85546875 766.671875 844.913085938 c 0,55,56
 748.157226562 867 748.157226562 867 685 867 c 2,39,-1
EndSplineSet
EndChar

StartChar: h
Encoding: 104 104 75
Width: 1024
GlyphClass: 2
Flags: W
LayerCount: 2
Fore
SplineSet
128 1280 m 1,0,-1
 143 1280 l 1,1,-1
 313 1280 l 1,2,-1
 328 1280 l 1,3,-1
 328 1265 l 1,4,-1
 328 986.297851562 l 1,5,6
 431.131773994 1024 431.131773994 1024 542 1024 c 0,7,8
 612.253961311 1024 612.253961311 1024 671.538715312 1014.40332031 c 0,9,10
 728.989257812 1005.0859375 728.989257812 1005.0859375 773.69921875 986.009765625 c 128,-1,11
 818.409179688 966.934570312 818.409179688 966.934570312 852.794921875 938.149414062 c 0,12,13
 956 851.754882812 956 851.754882812 956 653.82421875 c 2,14,-1
 956 15 l 1,15,-1
 956 0 l 1,16,-1
 941 0 l 1,17,-1
 771 0 l 1,18,-1
 756 0 l 1,19,-1
 756 15 l 1,20,-1
 756 672.80078125 l 2,21,22
 753.176757812 779.147460938 753.176757812 779.147460938 703.918837485 822.834960938 c 0,23,24
 649.87477211 867 649.87477211 867 542 867 c 0,25,26
 430.387699136 867 430.387699136 867 328 819.720703125 c 1,27,-1
 328 15 l 1,28,-1
 328 0 l 1,29,-1
 313 0 l 1,30,-1
 143 0 l 1,31,-1
 128 0 l 1,32,-1
 128 15 l 1,33,-1
 128 1265 l 1,34,-1
 128 1280 l 1,0,-1
EndSplineSet
EndChar

StartChar: i
Encoding: 105 105 76
Width: 1024
GlyphClass: 2
Flags: W
LayerCount: 2
Fore
SplineSet
326 1374 m 1,0,-1
 341 1374 l 1,1,-1
 668.256851997 1374 l 1,2,-1
 684.72513704 1374 l 1,3,-1
 684.72513704 1359 l 1,4,-1
 684.72513704 1173 l 1,5,-1
 684.72513704 1158 l 1,6,-1
 668.256851997 1158 l 1,7,-1
 341 1158 l 1,8,-1
 326 1158 l 1,9,-1
 326 1173 l 1,10,-1
 326 1359 l 1,11,-1
 326 1374 l 1,0,-1
160 925 m 1,12,-1
 175 925 l 1,13,-1
 635.320281911 925 l 1,14,-1
 651.788566954 925 l 1,15,-1
 651.788566954 910 l 1,16,-1
 651.788566954 157 l 1,17,-1
 941 157 l 1,18,-1
 956 157 l 1,19,-1
 956 144.616210938 l 1,20,-1
 956 15 l 1,21,-1
 956 0 l 1,22,-1
 941 0 l 1,23,-1
 143 0 l 1,24,-1
 128 0 l 1,25,-1
 128 15 l 1,26,-1
 128 144.616210938 l 1,27,-1
 128 157 l 1,28,-1
 143 157 l 1,29,-1
 432.211433046 157 l 1,30,-1
 432.211433046 738 l 1,31,-1
 175 738 l 1,32,-1
 160 738 l 1,33,-1
 160 753 l 1,34,-1
 160 910 l 1,35,-1
 160 925 l 1,12,-1
EndSplineSet
EndChar

StartChar: j
Encoding: 106 106 77
Width: 1024
GlyphClass: 2
Flags: W
LayerCount: 2
Fore
SplineSet
548.366267465 1374 m 1,0,-1
 565.23752495 1374 l 1,1,-1
 875 1374 l 1,2,-1
 890 1374 l 1,3,-1
 890 1359 l 1,4,-1
 890 1173 l 1,5,-1
 890 1158 l 1,6,-1
 875 1158 l 1,7,-1
 565.23752495 1158 l 1,8,-1
 548.366267465 1158 l 1,9,-1
 548.366267465 1173 l 1,10,-1
 548.366267465 1359 l 1,11,-1
 548.366267465 1374 l 1,0,-1
192 955 m 1,12,-1
 207 955 l 1,13,-1
 845 955 l 1,14,-1
 860 955 l 1,15,-1
 860 940 l 1,16,-1
 860 135 l 2,17,18
 860 -79.66796875 860 -79.66796875 731.284179688 -172.659179688 c 0,19,20
 599.937835267 -264 599.937835267 -264 335 -264 c 0,21,22
 281.375976562 -264 281.375976562 -264 232.75390625 -259.948242188 c 128,-1,23
 183.967773438 -255.8828125 183.967773438 -255.8828125 162.254882812 -251.747070312 c 2,24,-1
 140.31640625 -247.7578125 l 1,25,-1
 128 -245.518554688 l 1,26,-1
 128 -233 l 1,27,-1
 128 -84 l 1,28,-1
 128 -69 l 1,29,-1
 143 -69 l 1,30,-1
 335 -69 l 2,31,32
 496.194979182 -69 496.194979182 -69 580.895062414 -20.861328125 c 0,33,34
 660 25.2138671875 660 25.2138671875 660 135 c 2,35,-1
 660 768 l 1,36,-1
 207 768 l 1,37,-1
 192 768 l 1,38,-1
 192 783 l 1,39,-1
 192 940 l 1,40,-1
 192 955 l 1,12,-1
EndSplineSet
EndChar

StartChar: k
Encoding: 107 107 78
Width: 1024
GlyphClass: 2
Flags: W
LayerCount: 2
Fore
SplineSet
128 1280 m 1,0,-1
 143 1280 l 1,1,-1
 313 1280 l 1,2,-1
 328 1280 l 1,3,-1
 328 1265 l 1,4,-1
 328 676.802734375 l 1,5,-1
 700.043904952 1019.69238281 l 1,6,-1
 704.762623207 1024 l 1,7,-1
 711.383354375 1024 l 1,8,-1
 941 1024 l 1,9,-1
 977.665039062 1024 l 1,10,-1
 951.513671875 999.032226562 l 1,11,-1
 538.770682794 622.249023438 l 1,12,-1
 1017.02050781 23.2900390625 l 1,13,-1
 1034.9140625 -0 l 1,14,-1
 1005 0 l 1,15,-1
 809 0 l 1,16,-1
 801.48046875 0 l 1,17,-1
 796.981445312 6.0244140625 l 1,18,-1
 328 593.845703125 l 1,19,-1
 328 15 l 1,20,-1
 328 0 l 1,21,-1
 313 0 l 1,22,-1
 143 0 l 1,23,-1
 128 0 l 1,24,-1
 128 15 l 1,25,-1
 128 1265 l 1,26,-1
 128 1280 l 1,0,-1
EndSplineSet
EndChar

StartChar: l
Encoding: 108 108 79
Width: 1024
GlyphClass: 2
Flags: W
LayerCount: 2
Fore
SplineSet
160 1280 m 1,0,-1
 175 1280 l 1,1,-1
 635.320281911 1280 l 1,2,-1
 651.788566954 1280 l 1,3,-1
 651.788566954 1265 l 1,4,-1
 651.788566954 157 l 1,5,-1
 941 157 l 1,6,-1
 956 157 l 1,7,-1
 956 144.616210938 l 1,8,-1
 956 15 l 1,9,-1
 956 0 l 1,10,-1
 941 0 l 1,11,-1
 143 0 l 1,12,-1
 128 0 l 1,13,-1
 128 15 l 1,14,-1
 128 144.616210938 l 1,15,-1
 128 157 l 1,16,-1
 143 157 l 1,17,-1
 432.211433046 157 l 1,18,-1
 432.211433046 1093 l 1,19,-1
 175 1093 l 1,20,-1
 160 1093 l 1,21,-1
 160 1108 l 1,22,-1
 160 1265 l 1,23,-1
 160 1280 l 1,0,-1
EndSplineSet
EndChar

StartChar: m
Encoding: 109 109 80
Width: 1024
GlyphClass: 2
Flags: W
LayerCount: 2
Fore
SplineSet
248.518554688 1021.08984375 m 0,0,1
 294.235351562 1032 294.235351562 1032 344.226109372 1032 c 0,2,3
 389.667959759 1032 389.667959759 1032 428.127590021 1024.70019531 c 0,4,5
 467.092512529 1017.30566406 467.092512529 1017.30566406 491.442587619 1005.91601562 c 0,6,7
 503.130080786 1000.45019531 503.130080786 1000.45019531 513.076194891 995.077148438 c 128,-1,8
 523.023352988 989.705078125 523.023352988 989.705078125 531.326223301 984.348632812 c 0,9,10
 533.400635889 983.010742188 533.400635889 983.010742188 535.374825222 981.680664062 c 128,-1,11
 537.349014555 980.350585938 537.349014555 980.350585938 539.178088966 979.059570312 c 128,-1,12
 541.008207369 977.76953125 541.008207369 977.76953125 542.718266664 976.50390625 c 128,-1,13
 544.428325959 975.239257812 544.428325959 975.239257812 545.999534285 974.013671875 c 128,-1,14
 547.56969862 972.788085938 547.56969862 972.788085938 548.999967993 971.607421875 c 128,-1,15
 550.429193375 970.42578125 550.429193375 970.42578125 551.722699765 969.287109375 c 0,16,17
 559.080757098 974.743164062 559.080757098 974.743164062 574.089189592 984.37109375 c 0,18,19
 593.91564629 997.087890625 593.91564629 997.087890625 615.992950265 1006.61914062 c 128,-1,20
 638.178829434 1016.19726562 638.178829434 1016.19726562 671.14497251 1024.03710938 c 0,21,22
 704.626847755 1032 704.626847755 1032 739.773890628 1032 c 0,23,24
 805.975585938 1032 805.975585938 1032 857.133789062 1013.578125 c 0,25,26
 908.291015625 995.692382812 908.291015625 995.692382812 945.568359375 959.76171875 c 128,-1,27
 982.891601562 923.786132812 982.891601562 923.786132812 1001.4453125 873.735351562 c 128,-1,28
 1020 823.684570312 1020 823.684570312 1020 760.600585938 c 2,29,-1
 1020 15 l 1,30,-1
 1020 0 l 1,31,-1
 1005 0 l 1,32,-1
 848 0 l 1,33,-1
 833 0 l 1,34,-1
 833 15 l 1,35,-1
 833 756.788085938 l 2,36,37
 833 808.4453125 833 808.4453125 808.075195312 836.743164062 c 0,38,39
 784.067382812 864 784.067382812 864 739.773890628 864 c 0,40,41
 712.233375242 864 712.233375242 864 687.056458295 853.69921875 c 0,42,43
 661.386777009 843.197265625 661.386777009 843.197265625 650.622172986 833.471679688 c 2,44,-1
 642.4905174 826.125 l 1,45,-1
 642.4905174 15 l 1,46,-1
 642.4905174 0 l 1,47,-1
 626.454796538 0 l 1,48,-1
 457.545203462 0 l 1,49,-1
 441.5094826 0 l 1,50,-1
 441.5094826 15 l 1,51,-1
 441.5094826 756.788085938 l 2,52,53
 441.5094826 782.697265625 441.5094826 782.697265625 434.852988055 802.45703125 c 128,-1,54
 428.196493509 822.216796875 428.196493509 822.216796875 415.233241821 836.438476562 c 0,55,56
 406.798828485 845.692382812 406.798828485 845.692382812 396.464349265 851.75 c 128,-1,57
 386.129870046 857.80859375 386.129870046 857.80859375 373.105022815 860.904296875 c 128,-1,58
 360.079131591 864 360.079131591 864 344.226109372 864 c 0,59,60
 316.685593986 864 316.685593986 864 292.6875 853.69921875 c 0,61,62
 284.538085938 850.134765625 284.538085938 850.134765625 277.754882812 846.478515625 c 128,-1,63
 270.97265625 842.823242188 270.97265625 842.823242188 266.309570312 839.615234375 c 128,-1,64
 261.645507812 836.407226562 261.645507812 836.407226562 258.606445312 833.471679688 c 2,65,-1
 251 826.125 l 1,66,-1
 251 15 l 1,67,-1
 251 0 l 1,68,-1
 236 0 l 1,69,-1
 79 0 l 1,70,-1
 64 0 l 1,71,-1
 64 15 l 1,72,-1
 64 923.8984375 l 1,73,-1
 64 929.931640625 l 1,74,-1
 68.3935546875 934.197265625 l 2,75,76
 72.771484375 938.44921875 72.771484375 938.44921875 80.67578125 945.1015625 c 0,77,78
 89.068359375 952.1640625 89.068359375 952.1640625 116.571289062 968.79296875 c 0,79,80
 125.708007812 974.31640625 125.708007812 974.31640625 135.077148438 979.395507812 c 128,-1,81
 144.446289062 984.474609375 144.446289062 984.474609375 154.046875 989.108398438 c 128,-1,82
 163.646484375 993.7421875 163.646484375 993.7421875 173.474609375 997.927734375 c 0,83,84
 203.208007812 1010.59082031 203.208007812 1010.59082031 248.518554688 1021.08984375 c 0,0,1
EndSplineSet
EndChar

StartChar: n
Encoding: 110 110 81
Width: 1024
GlyphClass: 2
Flags: W
LayerCount: 2
Fore
SplineSet
956 0 m 1,0,-1
 941 0 l 1,1,-1
 771 0 l 1,2,-1
 756 0 l 1,3,-1
 756 15 l 1,4,-1
 756 650.2578125 l 2,5,6
 756 760.877929688 756 760.877929688 705.744715703 806.801757812 c 0,7,8
 650.682104052 853 650.682104052 853 542 853 c 0,9,10
 478.900522159 853 478.900522159 853 421.804034419 862.298828125 c 0,11,12
 407.512221944 864.625976562 407.512221944 864.625976562 394.996968603 867 c 0,13,14
 382.481715263 864.270507812 382.481715263 864.270507812 372.444335938 861.629882812 c 0,15,16
 363.185546875 858.989257812 363.185546875 858.989257812 355.869140625 856.440429688 c 128,-1,17
 348.552734375 853.891601562 348.552734375 853.891601562 343.25 851.4609375 c 2,18,-1
 328 844.470703125 l 1,19,-1
 328 15 l 1,20,-1
 328 0 l 1,21,-1
 313 0 l 1,22,-1
 143 0 l 1,23,-1
 128 0 l 1,24,-1
 128 15 l 1,25,-1
 128 924.09765625 l 1,26,-1
 128 931.895507812 l 1,27,-1
 134.6796875 936.219726562 l 2,28,29
 140.936523438 940.271484375 140.936523438 940.271484375 152.701171875 947.2265625 c 0,30,31
 164.870117188 954.420898438 164.870117188 954.420898438 203.579101562 972.229492188 c 128,-1,32
 242.373046875 990.078125 242.373046875 990.078125 284.705078125 1003.94824219 c 0,33,34
 327.328125 1017.9140625 327.328125 1017.9140625 395.429046655 1028.79003906 c 0,35,36
 419.668303703 1032.52636719 419.668303703 1032.52636719 444.037291381 1035.01757812 c 128,-1,37
 468.405206906 1037.50878906 468.405206906 1037.50878906 492.897492292 1038.75390625 c 128,-1,38
 517.388705523 1040 517.388705523 1040 542 1040 c 0,39,40
 750.74609375 1040 750.74609375 1040 853.021484375 950.772460938 c 0,41,42
 956 860.931640625 956 860.931640625 956 654.2890625 c 2,43,-1
 956 15 l 1,44,-1
 956 0 l 1,0,-1
EndSplineSet
EndChar

StartChar: o
Encoding: 111 111 82
Width: 1024
GlyphClass: 2
Flags: W
LayerCount: 2
Fore
SplineSet
110.080078125 266.248046875 m 0,0,1
 80 368.2109375 80 368.2109375 80 512 c 128,-1,2
 80 655.7890625 80 655.7890625 110.080078125 757.751953125 c 0,3,4
 140.592773438 861.18359375 140.592773438 861.18359375 200.626953125 922.508789062 c 128,-1,5
 260.588867188 983.760742188 260.588867188 983.760742188 342.087686811 1011.62597656 c 0,6,7
 384.944328367 1025.87011719 384.944328367 1025.87011719 434.911388454 1032.93554688 c 128,-1,8
 484.878448541 1040 484.878448541 1040 542 1040 c 0,9,10
 570.515128857 1040 570.515128857 1040 597.210678947 1038.24414062 c 128,-1,11
 623.90727839 1036.48828125 623.90727839 1036.48828125 648.908122764 1032.9609375 c 128,-1,12
 673.908967138 1029.43261719 673.908967138 1029.43261719 697.178378429 1024.09667969 c 128,-1,13
 720.446740366 1018.76074219 720.446740366 1018.76074219 741.912313189 1011.62597656 c 0,14,15
 823.411132812 983.760742188 823.411132812 983.760742188 883.373046875 922.508789062 c 128,-1,16
 943.407226562 861.18359375 943.407226562 861.18359375 973.919921875 757.751953125 c 0,17,18
 1004 655.7890625 1004 655.7890625 1004 512 c 128,-1,19
 1004 368.2109375 1004 368.2109375 973.919921875 266.248046875 c 0,20,21
 943.407226562 162.81640625 943.407226562 162.81640625 883.373046875 101.491210938 c 0,22,23
 853.459960938 70.9345703125 853.459960938 70.9345703125 818.315429688 48.6103515625 c 128,-1,24
 783.169921875 26.287109375 783.169921875 26.287109375 741.912313189 12.3740234375 c 0,25,26
 699.055671633 -1.8701171875 699.055671633 -1.8701171875 649.088611546 -8.935546875 c 128,-1,27
 599.121551459 -16 599.121551459 -16 542 -16 c 0,28,29
 427.455732661 -16 427.455732661 -16 342.087686811 12.3740234375 c 0,30,31
 260.588867188 40.2392578125 260.588867188 40.2392578125 200.626953125 101.491210938 c 128,-1,32
 140.592773438 162.81640625 140.592773438 162.81640625 110.080078125 266.248046875 c 0,0,1
656.435134587 833.936523438 m 128,-1,34
 607.661189298 853 607.661189298 853 542 853 c 0,35,36
 520.019194665 853 520.019194665 853 499.961854083 850.868164062 c 128,-1,37
 479.904513501 848.736328125 479.904513501 848.736328125 461.755946724 844.466796875 c 128,-1,38
 443.607379947 840.197265625 443.607379947 840.197265625 427.30357642 833.834960938 c 128,-1,39
 410.998723539 827.47265625 410.998723539 827.47265625 396.447340163 818.9609375 c 128,-1,40
 381.894907433 810.44921875 381.894907433 810.44921875 369.113783216 799.888671875 c 128,-1,41
 356.332658999 789.327148438 356.332658999 789.327148438 345.151798692 776.608398438 c 0,42,43
 312.517578125 738.362304688 312.517578125 738.362304688 296.258789062 672.046875 c 128,-1,44
 280 605.731445312 280 605.731445312 280 512 c 0,45,46
 280 325.385742188 280 325.385742188 345.151798692 247.391601562 c 0,47,48
 378.78987077 209.126953125 378.78987077 209.126953125 427.564865413 190.063476562 c 128,-1,49
 476.338810702 171 476.338810702 171 542 171 c 0,50,51
 671.693782144 171 671.693782144 171 738.848201308 247.391601562 c 0,52,53
 804 325.385742188 804 325.385742188 804 512 c 0,54,55
 804 549.724609375 804 549.724609375 801.31640625 583.21484375 c 128,-1,56
 798.631835938 616.705078125 798.631835938 616.705078125 793.412109375 645.26953125 c 128,-1,57
 788.193359375 673.833984375 788.193359375 673.833984375 780.451171875 698.099609375 c 128,-1,58
 772.709960938 722.365234375 772.709960938 722.365234375 762.658203125 741.900390625 c 0,59,60
 752.185482819 761.436523438 752.185482819 761.436523438 738.848201308 776.608398438 c 0,61,33
 705.21012923 814.873046875 705.21012923 814.873046875 656.435134587 833.936523438 c 128,-1,34
EndSplineSet
EndChar

StartChar: p
Encoding: 112 112 83
Width: 1024
GlyphClass: 2
Flags: W
LayerCount: 2
Fore
SplineSet
188.393554688 965.005859375 m 0,0,1
 248.787109375 1024 248.787109375 1024 429 1024 c 2,2,-1
 557 1024 l 2,3,4
 668.72502345 1024 668.72502345 1024 757.841796875 998.143554688 c 0,5,6
 833.782226562 972.287109375 833.782226562 972.287109375 889.797851562 920.391601562 c 0,7,8
 1002 816.443359375 1002 816.443359375 1002 638.387695312 c 0,9,10
 1002 546.862304688 1002 546.862304688 970.930664062 473.723632812 c 128,-1,11
 939.860351562 400.584960938 939.860351562 400.584960938 877.897460938 347.194335938 c 128,-1,12
 816.103515625 293.950195312 816.103515625 293.950195312 727.71118049 267.474609375 c 0,13,14
 628.181914625 241 628.181914625 241 503.324981394 241 c 2,15,-1
 328 241 l 1,16,-1
 328 -241 l 1,17,-1
 328 -256 l 1,18,-1
 313 -256 l 1,19,-1
 143 -256 l 1,20,-1
 128 -256 l 1,21,-1
 128 -241 l 1,22,-1
 128 759.278320312 l 2,23,24
 128 831.958007812 128 831.958007812 142.723632812 883.3671875 c 128,-1,25
 157.447265625 934.776367188 157.447265625 934.776367188 188.393554688 965.005859375 c 0,0,1
557 867 m 2,26,-1
 429 867 l 2,27,28
 391.40071563 867 391.40071563 867 369.234375 861.515625 c 0,29,30
 356.6484375 856.032226562 356.6484375 856.032226562 347.328125 844.913085938 c 0,31,32
 342.625 839.302734375 342.625 839.302734375 339.073242188 832.627929688 c 128,-1,33
 335.522460938 825.952148438 335.522460938 825.952148438 333.029296875 817.932617188 c 128,-1,34
 330.537109375 809.913085938 330.537109375 809.913085938 329.268554688 800.404296875 c 128,-1,35
 328 790.895507812 328 790.895507812 328 780.028320312 c 2,36,-1
 328 428 l 1,37,-1
 503.324981394 428 l 2,38,39
 647.412502326 428 647.412502326 428 729.604935287 489.01171875 c 0,40,41
 802 549.071289062 802 549.071289062 802 653.711914062 c 0,42,43
 802 704.365234375 802 704.365234375 787.765625 743.188476562 c 128,-1,44
 773.53125 782.01171875 773.53125 782.01171875 743.143224397 810.236328125 c 0,45,46
 729.79094592 821.501953125 729.79094592 821.501953125 714.510669251 830.51171875 c 128,-1,47
 699.230392582 839.521484375 699.230392582 839.521484375 681.728951627 846.375976562 c 128,-1,48
 664.226361002 853.231445312 664.226361002 853.231445312 644.648614301 857.799804688 c 128,-1,49
 625.070867601 862.368164062 625.070867601 862.368164062 603.122499391 864.68359375 c 128,-1,50
 581.17413118 867 581.17413118 867 557 867 c 2,26,-1
EndSplineSet
EndChar

StartChar: q
Encoding: 113 113 84
Width: 1024
GlyphClass: 2
Flags: W
LayerCount: 2
Fore
SplineSet
236.102539062 917.805664062 m 0,0,1
 359.572132083 1024 359.572132083 1024 601 1024 c 2,2,-1
 685 1024 l 2,3,4
 865.212890625 1024 865.212890625 1024 925.606445312 965.005859375 c 128,-1,5
 986 906.01171875 986 906.01171875 986 759.278320312 c 2,6,-1
 986 -241 l 1,7,-1
 986 -256 l 1,8,-1
 971 -256 l 1,9,-1
 801 -256 l 1,10,-1
 786 -256 l 1,11,-1
 786 -241 l 1,12,-1
 786 241 l 1,13,-1
 558.488464401 241 l 2,14,15
 336.037109375 241 336.037109375 241 224.202148438 344.608398438 c 0,16,17
 186.78125 379.276367188 186.78125 379.276367188 161.786132812 422.490234375 c 128,-1,18
 136.791015625 465.703125 136.791015625 465.703125 124.395507812 516.724609375 c 128,-1,19
 112 567.74609375 112 567.74609375 112 626.612304688 c 0,20,21
 112 718.137695312 112 718.137695312 143.069335938 791.276367188 c 128,-1,22
 174.139648438 864.415039062 174.139648438 864.415039062 236.102539062 917.805664062 c 0,0,1
685 867 m 2,23,-1
 601 867 l 2,24,25
 462.424407358 867 462.424407358 867 383.37616616 805.98828125 c 0,26,27
 312 745.928710938 312 745.928710938 312 641.288085938 c 0,28,29
 312 607.420898438 312 607.420898438 318.408203125 578.784179688 c 128,-1,30
 324.817382812 550.1484375 324.817382812 550.1484375 337.39453125 526.848632812 c 128,-1,31
 349.971679688 503.549804688 349.971679688 503.549804688 370.954617825 484.763671875 c 0,32,33
 404.724840979 456.481445312 404.724840979 456.481445312 451.315842019 442.241210938 c 128,-1,34
 497.9056848 428 497.9056848 428 558.488464401 428 c 2,35,-1
 786 428 l 1,36,-1
 786 780.028320312 l 2,37,38
 786 821.85546875 786 821.85546875 766.671875 844.913085938 c 0,39,40
 748.157226562 867 748.157226562 867 685 867 c 2,23,-1
EndSplineSet
EndChar

StartChar: r
Encoding: 114 114 85
Width: 1024
GlyphClass: 2
Flags: W
LayerCount: 2
Fore
SplineSet
988 628 m 1,0,-1
 973 628 l 1,1,-1
 803 628 l 1,2,-1
 788 628 l 1,3,-1
 788 643 l 2,4,5
 788 757.579101562 788 757.579101562 737.744715703 805.147460938 c 0,6,7
 682.682104052 853 682.682104052 853 574 853 c 0,8,9
 510.900522159 853 510.900522159 853 453.804034419 862.298828125 c 0,10,11
 439.512221944 864.625976562 439.512221944 864.625976562 426.996968603 867 c 0,12,13
 414.481715263 864.270507812 414.481715263 864.270507812 404.444335938 861.629882812 c 0,14,15
 395.185546875 858.989257812 395.185546875 858.989257812 387.869140625 856.440429688 c 128,-1,16
 380.552734375 853.891601562 380.552734375 853.891601562 375.25 851.4609375 c 2,17,-1
 360 844.470703125 l 1,18,-1
 360 15 l 1,19,-1
 360 0 l 1,20,-1
 345 0 l 1,21,-1
 175 0 l 1,22,-1
 160 0 l 1,23,-1
 160 15 l 1,24,-1
 160 924.09765625 l 1,25,-1
 160 931.895507812 l 1,26,-1
 166.6796875 936.219726562 l 2,27,28
 172.936523438 940.271484375 172.936523438 940.271484375 184.701171875 947.2265625 c 0,29,30
 196.870117188 954.420898438 196.870117188 954.420898438 235.579101562 972.229492188 c 128,-1,31
 274.373046875 990.078125 274.373046875 990.078125 316.705078125 1003.94824219 c 0,32,33
 359.328125 1017.9140625 359.328125 1017.9140625 427.429046655 1028.79003906 c 0,34,35
 451.668303703 1032.52636719 451.668303703 1032.52636719 476.037291381 1035.01757812 c 128,-1,36
 500.405206906 1037.50878906 500.405206906 1037.50878906 524.897492292 1038.75390625 c 128,-1,37
 549.388705523 1040 549.388705523 1040 574 1040 c 0,38,39
 782.74609375 1040 782.74609375 1040 885.021484375 948.161132812 c 0,40,41
 988 855.690429688 988 855.690429688 988 643 c 2,42,-1
 988 628 l 1,0,-1
EndSplineSet
EndChar

StartChar: s
Encoding: 115 115 86
Width: 1024
GlyphClass: 2
Flags: W
LayerCount: 2
Fore
SplineSet
276.7109375 960.610351562 m 0,0,1
 406.788107854 1032 406.788107854 1032 677.334304867 1032 c 0,2,3
 697.19140625 1032 697.19140625 1032 714.880859375 1031.55078125 c 128,-1,4
 732.571289062 1031.1015625 732.571289062 1031.1015625 749.783203125 1030.20214844 c 128,-1,5
 766.995117188 1029.30175781 766.995117188 1029.30175781 783.708007812 1027.95117188 c 0,6,7
 833.893554688 1023.89550781 833.893554688 1023.89550781 857.626953125 1019.76855469 c 2,8,-1
 879.68359375 1015.7578125 l 1,9,-1
 892 1013.51855469 l 1,10,-1
 892 1003.12792969 l 1,11,-1
 892 879.451171875 l 1,12,-1
 892 867 l 1,13,-1
 877 867 l 1,14,-1
 677.334304867 867 l 2,15,16
 506.278234639 867 506.278234639 867 418.765055173 836.508789062 c 0,17,18
 344 808.715820312 344 808.715820312 344 746 c 0,19,20
 344 708.28515625 344 708.28515625 370.520507812 682.192382812 c 0,21,22
 384.723632812 668.217773438 384.723632812 668.217773438 405.045080698 657.068359375 c 0,23,24
 425.916991334 645.91796875 425.916991334 645.91796875 452.097064221 637.658203125 c 0,25,26
 506.826383639 620.389648438 506.826383639 620.389648438 573.181661688 605.559570312 c 0,27,28
 640.84989742 590.434570312 640.84989742 590.434570312 707.1015625 570.776367188 c 0,29,30
 727.7265625 564.12890625 727.7265625 564.12890625 747.174804688 556.453125 c 128,-1,31
 766.623046875 548.776367188 766.623046875 548.776367188 784.953125 540.040039062 c 128,-1,32
 803.284179688 531.303710938 803.284179688 531.303710938 820.427734375 521.53125 c 0,33,34
 873.80078125 491.109375 873.80078125 491.109375 906.817382812 436.791015625 c 0,35,36
 940 382.201171875 940 382.201171875 940 307 c 0,37,38
 940 222.47265625 940 222.47265625 905.295898438 160.806640625 c 128,-1,39
 870.592773438 99.140625 870.592773438 99.140625 802.032226562 62.7509765625 c 0,40,41
 664.877456349 -7.8212890625 664.877456349 -7.8212890625 385 -8 c 0,42,43
 365.487304688 -8 365.487304688 -8 346.587890625 -7.5517578125 c 128,-1,44
 327.688476562 -7.1025390625 327.688476562 -7.1025390625 309.375976562 -6.2041015625 c 128,-1,45
 291.063476562 -5.3056640625 291.063476562 -5.3056640625 273.360351562 -3.95703125 c 0,46,47
 220.140625 0.0986328125 220.140625 0.0986328125 196.481445312 4.212890625 c 2,48,-1
 172.534179688 8.2041015625 l 1,49,-1
 160 10.29296875 l 1,50,-1
 160 20.8427734375 l 1,51,-1
 160 144.546875 l 1,52,-1
 160 157 l 1,53,-1
 175 157 l 1,54,-1
 385 157 l 2,55,56
 566.841116042 157 566.841116042 157 660.073027862 187.120117188 c 0,57,58
 740 214.55859375 740 214.55859375 740 277 c 0,59,60
 740 310.51171875 740 310.51171875 719.041992188 335.319335938 c 0,61,62
 708.01171875 348.375976562 708.01171875 348.375976562 693.464618324 358.549804688 c 0,63,64
 677.413385652 368.723632812 677.413385652 368.723632812 657.220703125 376.09765625 c 0,65,66
 648.62581347 379.236328125 648.62581347 379.236328125 639.515273768 382.359375 c 128,-1,67
 630.404734065 385.483398438 630.404734065 385.483398438 620.760128242 388.598632812 c 128,-1,68
 611.11552242 391.713867188 611.11552242 391.713867188 600.96176634 394.810546875 c 128,-1,69
 590.80801026 397.908203125 590.80801026 397.908203125 580.119104762 400.995117188 c 128,-1,70
 569.430199263 404.08203125 569.430199263 404.08203125 558.23756 407.1484375 c 0,71,72
 502.240781432 422.490234375 502.240781432 422.490234375 444.035157389 434.370117188 c 0,73,74
 384.39453125 446.663085938 384.39453125 446.663085938 332.172851562 468.677734375 c 0,75,76
 279.721679688 490.790039062 279.721679688 490.790039062 238.9296875 519.189453125 c 0,77,78
 196.375 548.81640625 196.375 548.81640625 170.168945312 599.624023438 c 128,-1,79
 144 650.359375 144 650.359375 144 716 c 0,80,81
 144 886.822265625 144 886.822265625 276.7109375 960.610351562 c 0,0,1
EndSplineSet
EndChar

StartChar: t
Encoding: 116 116 87
Width: 1024
GlyphClass: 2
Flags: W
LayerCount: 2
Fore
SplineSet
924 11.4267578125 m 1,0,-1
 912.805664062 8.4912109375 l 2,1,2
 849.934570312 -8 849.934570312 -8 749 -8 c 0,3,4
 552.558084796 -8 552.558084796 -8 449.276527327 67.5322265625 c 0,5,6
 344.403100775 144.227539062 344.403100775 144.227539062 344.403100775 321.241210938 c 2,7,-1
 344.403100775 750.133789062 l 1,8,-1
 79 750.133789062 l 1,9,-1
 64 750.133789062 l 1,10,-1
 64 764.788085938 l 1,11,-1
 64 918.173828125 l 1,12,-1
 64 932.828125 l 1,13,-1
 79 932.828125 l 1,14,-1
 344.403100775 932.828125 l 1,15,-1
 344.403100775 1265 l 1,16,-1
 344.403100775 1280 l 1,17,-1
 360.521168754 1280 l 1,18,-1
 543.192605844 1280 l 1,19,-1
 559.310673822 1280 l 1,20,-1
 559.310673822 1265 l 1,21,-1
 559.310673822 925 l 1,22,-1
 973 925 l 1,23,-1
 988 925 l 1,24,-1
 988 910 l 1,25,-1
 988 753 l 1,26,-1
 988 738 l 1,27,-1
 973 738 l 1,28,-1
 559.310673822 738 l 1,29,-1
 559.310673822 299 l 2,30,31
 559.310673822 259.262695312 559.310673822 259.262695312 570.980532806 232.448242188 c 128,-1,32
 582.65039179 205.634765625 582.65039179 205.634765625 605.387780915 190.087890625 c 0,33,34
 621.0892556 179.352539062 621.0892556 179.352539062 641.975585355 172.048828125 c 128,-1,35
 662.861915111 164.745117188 662.861915111 164.745117188 689.985601381 160.872070312 c 128,-1,36
 717.108238298 157 717.108238298 157 749 157 c 2,37,-1
 909 157 l 1,38,-1
 924 157 l 1,39,-1
 924 144.563476562 l 1,40,-1
 924 21.0224609375 l 1,41,-1
 924 11.4267578125 l 1,0,-1
EndSplineSet
EndChar

StartChar: u
Encoding: 117 117 88
Width: 1024
GlyphClass: 2
Flags: W
LayerCount: 2
Fore
SplineSet
128 1024 m 1,0,-1
 143 1024 l 1,1,-1
 313 1024 l 1,2,-1
 328 1024 l 1,3,-1
 328 1009 l 1,4,-1
 328 373.7421875 l 2,5,6
 328 263.122070312 328 263.122070312 378.255284297 217.198242188 c 0,7,8
 433.317895948 171 433.317895948 171 542 171 c 0,9,10
 605.099477841 171 605.099477841 171 662.195965581 181.323242188 c 0,11,12
 690.575881277 186.454101562 690.575881277 186.454101562 711.165039062 191.620117188 c 0,13,14
 730 196.786132812 730 196.786132812 740.75 201.54296875 c 2,15,-1
 756 208.290039062 l 1,16,-1
 756 1009 l 1,17,-1
 756 1024 l 1,18,-1
 771 1024 l 1,19,-1
 941 1024 l 1,20,-1
 956 1024 l 1,21,-1
 956 1009 l 1,22,-1
 956 100.328125 l 1,23,-1
 956 92.53515625 l 1,24,-1
 949.3203125 88.2119140625 l 2,25,26
 943.063476562 84.162109375 943.063476562 84.162109375 931.298828125 77.2109375 c 0,27,28
 924.815429688 73.37890625 924.815429688 73.37890625 912.458007812 67.32421875 c 128,-1,29
 900.1015625 61.2685546875 900.1015625 61.2685546875 880.420898438 52.21875 c 0,30,31
 841.626953125 34.3798828125 841.626953125 34.3798828125 799.294921875 20.515625 c 0,32,33
 792.109375 18.162109375 792.109375 18.162109375 784.29296875 15.9052734375 c 128,-1,34
 776.477539062 13.6484375 776.477539062 13.6484375 768.04296875 11.490234375 c 128,-1,35
 759.608398438 9.267578125 759.608398438 9.267578125 750.556640625 7.142578125 c 128,-1,36
 741.50390625 5.0166015625 741.50390625 5.0166015625 731.80078125 2.9814453125 c 128,-1,37
 722.098632812 0.947265625 722.098632812 0.947265625 711.79296875 -0.9921875 c 0,38,39
 700.630541247 -2.9306640625 700.630541247 -2.9306640625 688.570953345 -4.7900390625 c 0,40,41
 652.212067774 -10.39453125 652.212067774 -10.39453125 615.564772783 -13.197265625 c 128,-1,42
 578.916405638 -16 578.916405638 -16 542 -16 c 0,43,44
 333.25390625 -16 333.25390625 -16 230.978515625 73.2275390625 c 0,45,46
 128 163.068359375 128 163.068359375 128 369.7109375 c 2,47,-1
 128 1009 l 1,48,-1
 128 1024 l 1,0,-1
EndSplineSet
EndChar

StartChar: v
Encoding: 118 118 89
Width: 1024
GlyphClass: 2
Flags: W
LayerCount: 2
Fore
SplineSet
64 1024 m 1,0,-1
 84.9013671875 1024 l 1,1,-1
 263.901367188 1024 l 1,2,-1
 274.671875 1024 l 1,3,-1
 278.114257812 1013.79394531 l 1,4,-1
 517.179131905 343.793945312 l 1,5,-1
 517.402164619 343.17578125 l 1,6,-1
 517.566833633 342.541015625 l 1,7,-1
 547.901367188 225.540039062 l 1,8,-1
 578.235900742 342.541015625 l 1,9,-1
 578.400569756 343.17578125 l 1,10,-1
 578.62360247 343.793945312 l 1,11,-1
 817.688476562 1013.79394531 l 1,12,-1
 821.130859375 1024 l 1,13,-1
 831.901367188 1024 l 1,14,-1
 1010.90136719 1024 l 1,15,-1
 1031.80273438 1024 l 1,16,-1
 1025.11230469 1004.76757812 l 1,17,-1
 671.924231649 10.1982421875 l 1,18,-1
 668.246276282 -0 l 1,19,-1
 656.75800708 0 l 1,20,-1
 439.044727295 0 l 1,21,-1
 427.556458093 0 l 1,22,-1
 423.878502726 10.1982421875 l 1,23,-1
 70.6904296875 1004.76757812 l 1,24,-1
 64 1024 l 1,0,-1
EndSplineSet
EndChar

StartChar: w
Encoding: 119 119 90
Width: 1024
GlyphClass: 2
Flags: W
LayerCount: 2
Fore
SplineSet
32 1024 m 1,0,-1
 48.8935546875 1024 l 1,1,-1
 206.893554688 1024 l 1,2,-1
 220.208984375 1024 l 1,3,-1
 221.787109375 1010.77832031 l 1,4,-1
 303.249138771 340.564453125 l 1,5,-1
 311.445482506 255.009765625 l 1,6,-1
 333.436935078 342.462890625 l 1,7,-1
 333.579750158 343.03125 l 1,8,-1
 333.769135374 343.587890625 l 1,9,-1
 474.713131075 757.587890625 l 1,10,-1
 478.257635784 768 l 1,11,-1
 489.847390012 768 l 1,12,-1
 597.939777693 768 l 1,13,-1
 609.528497029 768 l 1,14,-1
 613.074036629 757.587890625 l 1,15,-1
 754.018032331 343.587890625 l 1,16,-1
 754.207417546 343.03125 l 1,17,-1
 754.350232626 342.462890625 l 1,18,-1
 776.340650306 255.009765625 l 1,19,-1
 784.536994041 340.564453125 l 1,20,-1
 865.999023438 1010.77832031 l 1,21,-1
 867.578125 1024 l 1,22,-1
 880.893554688 1024 l 1,23,-1
 1038.89355469 1024 l 1,24,-1
 1055.78613281 1024 l 1,25,-1
 1053.78808594 1007.70898438 l 1,26,-1
 931.788085938 13.2255859375 l 1,27,-1
 930.211914062 0 l 1,28,-1
 916.893554688 0 l 1,29,-1
 707.091894664 0 l 1,30,-1
 695.119230438 0 l 1,31,-1
 691.813785755 10.857421875 l 1,32,-1
 543.893583852 496.6796875 l 1,33,-1
 395.972347057 10.857421875 l 1,34,-1
 392.666902374 -0 l 1,35,-1
 380.69527304 0 l 1,36,-1
 170.893554688 0 l 1,37,-1
 157.57421875 0 l 1,38,-1
 155.998046875 13.2255859375 l 1,39,-1
 33.998046875 1007.70898438 l 1,40,-1
 32 1024 l 1,0,-1
EndSplineSet
EndChar

StartChar: x
Encoding: 120 120 91
Width: 1024
GlyphClass: 2
Flags: W
LayerCount: 2
Fore
SplineSet
64 1024 m 1,0,-1
 92.1953125 1024 l 1,1,-1
 297.1953125 1024 l 1,2,-1
 305.454101562 1024 l 1,3,-1
 309.877285192 1017.02148438 l 1,4,-1
 555.195344284 653.05078125 l 1,5,-1
 800.512363246 1017.02148438 l 1,6,-1
 804.936523438 1024 l 1,7,-1
 813.1953125 1024 l 1,8,-1
 1018.1953125 1024 l 1,9,-1
 1046.38964844 1024 l 1,10,-1
 1030.63476562 1001.28320312 l 1,11,-1
 684.164329631 512 l 1,12,-1
 1030.63476562 22.716796875 l 1,13,-1
 1046.38964844 -0 l 1,14,-1
 1018.1953125 0 l 1,15,-1
 813.1953125 0 l 1,16,-1
 804.936523438 0 l 1,17,-1
 800.512363246 6.978515625 l 1,18,-1
 555.195344284 370.94921875 l 1,19,-1
 309.877285192 6.978515625 l 1,20,-1
 305.454101562 -0 l 1,21,-1
 297.1953125 0 l 1,22,-1
 92.1953125 0 l 1,23,-1
 64 0 l 1,24,-1
 79.755859375 22.716796875 l 1,25,-1
 426.225318806 512 l 1,26,-1
 79.755859375 1001.28320312 l 1,27,-1
 64 1024 l 1,0,-1
EndSplineSet
EndChar

StartChar: y
Encoding: 121 121 92
Width: 1024
GlyphClass: 2
Flags: W
LayerCount: 2
Fore
SplineSet
128 1024 m 1,0,-1
 143 1024 l 1,1,-1
 313 1024 l 1,2,-1
 328 1024 l 1,3,-1
 328 1009 l 1,4,-1
 328 562.526367188 l 2,5,6
 328 546.80859375 328 546.80859375 331.119140625 533.068359375 c 128,-1,7
 334.237304688 519.327148438 334.237304688 519.327148438 340.602539062 507.245117188 c 128,-1,8
 346.966796875 495.162109375 346.966796875 495.162109375 356.569335938 484.737304688 c 128,-1,9
 366.171875 474.313476562 366.171875 474.313476562 379.742361859 465.250976562 c 0,10,11
 399.056143549 453.022460938 399.056143549 453.022460938 423.213916895 444.786132812 c 128,-1,12
 447.370618087 436.549804688 447.370618087 436.549804688 477.229034113 432.275390625 c 128,-1,13
 507.088522293 428 507.088522293 428 542 428 c 2,14,-1
 756 428 l 1,15,-1
 756 1009 l 1,16,-1
 756 1024 l 1,17,-1
 771 1024 l 1,18,-1
 941 1024 l 1,19,-1
 956 1024 l 1,20,-1
 956 1009 l 1,21,-1
 956 127.3828125 l 2,22,23
 956 -81.970703125 956 -81.970703125 827.284179688 -172.659179688 c 0,24,25
 699.932569009 -264 699.932569009 -264 436.602975724 -264 c 0,26,27
 377.729928849 -264 377.729928849 -264 328.75390625 -259.948242188 c 0,28,29
 312.497070312 -258.59375 312.497070312 -258.59375 299.443359375 -257.258789062 c 128,-1,30
 286.390625 -255.923828125 286.390625 -255.923828125 276.040039062 -254.543945312 c 128,-1,31
 265.689453125 -253.163085938 265.689453125 -253.163085938 258.254882812 -251.747070312 c 2,32,-1
 236.31640625 -247.7578125 l 1,33,-1
 224 -245.518554688 l 1,34,-1
 224 -233 l 1,35,-1
 224 -84 l 1,36,-1
 224 -69 l 1,37,-1
 239 -69 l 1,38,-1
 436.602975724 -69 l 2,39,40
 598.66762615 -69 598.66762615 -69 681.344635559 -20.861328125 c 0,41,42
 756 22.7177734375 756 22.7177734375 756 126.555664062 c 2,43,-1
 756 241 l 1,44,-1
 542 241 l 2,45,46
 343.708007812 241 343.708007812 241 236.587890625 325.666992188 c 0,47,48
 128 411.493164062 128 411.493164062 128 559.774414062 c 2,49,-1
 128 1009 l 1,50,-1
 128 1024 l 1,0,-1
EndSplineSet
EndChar

StartChar: z
Encoding: 122 122 93
Width: 1024
GlyphClass: 2
Flags: W
LayerCount: 2
Fore
SplineSet
160 1024 m 1,0,-1
 175 1024 l 1,1,-1
 909 1024 l 1,2,-1
 924 1024 l 1,3,-1
 924 1009 l 1,4,-1
 924 852 l 1,5,-1
 924 846.951171875 l 1,6,-1
 920.947265625 842.9296875 l 1,7,-1
 370.219726562 157 l 1,8,-1
 941 157 l 1,9,-1
 956 157 l 1,10,-1
 956 144.616210938 l 1,11,-1
 956 15 l 1,12,-1
 956 0 l 1,13,-1
 941 0 l 1,14,-1
 143 0 l 1,15,-1
 128 0 l 1,16,-1
 128 15 l 1,17,-1
 128 172 l 1,18,-1
 128 177.048828125 l 1,19,-1
 131.052734375 181.0703125 l 1,20,-1
 678.994474048 867 l 1,21,-1
 175 867 l 1,22,-1
 160 867 l 1,23,-1
 160 879.383789062 l 1,24,-1
 160 1009 l 1,25,-1
 160 1024 l 1,0,-1
EndSplineSet
EndChar

StartChar: braceleft
Encoding: 123 123 94
Width: 1024
GlyphClass: 2
Flags: W
LayerCount: 2
Fore
SplineSet
822 1265 m 1,0,-1
 704 1265 l 2,1,2
 621.213203436 1265 621.213203436 1265 574.106601718 1217.89339828 c 0,3,4
 550.657111302 1194.44390787 550.657111302 1194.44390787 538.904436397 1162.28315254 c 128,-1,5
 527.151761493 1130.12239721 527.151761493 1130.12239721 526.999180347 1088.30775651 c 2,6,-1
 542.989075576 669.572375201 l 1,7,-1
 543.522196984 655.611258326 l 1,8,-1
 529.634052613 654.089269902 l 1,9,-1
 397 639.554031259 l 1,10,-1
 397 541.445968741 l 1,11,-1
 529.634052613 526.910730098 l 1,12,-1
 543.522196984 525.388741674 l 1,13,-1
 542.989075576 511.427624799 l 1,14,-1
 526.990246057 92.458276762 l 2,15,16
 524.214712289 11.0426195757 524.214712289 11.0426195757 572.0557316 -36.3427709803 c 0,17,18
 596.065782424 -60.124154653 596.065782424 -60.124154653 628.781122178 -72.0620773265 c 128,-1,19
 661.496461932 -84 661.496461932 -84 704 -84 c 2,20,-1
 822 -84 l 1,21,-1
 837 -84 l 1,22,-1
 837 -99 l 1,23,-1
 837 -256 l 1,24,-1
 837 -271 l 1,25,-1
 822 -271 l 1,26,-1
 704 -271 l 2,27,28
 529.947608295 -271 529.947608295 -271 428.590027057 -173.299651074 c 0,29,30
 327 -75.3752435503 327 -75.3752435503 327 93 c 2,31,-1
 327 93.714366525 l 1,32,-1
 365.499821811 497 l 1,33,-1
 64 497 l 1,34,-1
 49 497 l 1,35,-1
 49 512 l 1,36,-1
 49 669 l 1,37,-1
 49 684 l 1,38,-1
 64 684 l 1,39,-1
 365.499821811 684 l 1,40,-1
 327.067143805 1086.58232378 l 2,41,42
 311.368823105 1251.93796849 311.368823105 1251.93796849 419.274767274 1352.47472622 c 0,43,44
 526.095087295 1452 526.095087295 1452 704 1452 c 2,45,-1
 822 1452 l 1,46,-1
 837 1452 l 1,47,-1
 837 1437 l 1,48,-1
 837 1280 l 1,49,-1
 837 1265 l 1,50,-1
 822 1265 l 1,0,-1
EndSplineSet
EndChar

StartChar: bar
Encoding: 124 124 95
Width: 1024
GlyphClass: 2
Flags: W
LayerCount: 2
Fore
SplineSet
597 -271 m 1,0,-1
 427 -271 l 1,1,-1
 412 -271 l 1,2,-1
 412 -256 l 1,3,-1
 412 1437 l 1,4,-1
 412 1452 l 1,5,-1
 427 1452 l 1,6,-1
 597 1452 l 1,7,-1
 612 1452 l 1,8,-1
 612 1437 l 1,9,-1
 612 -256 l 1,10,-1
 612 -271 l 1,11,-1
 597 -271 l 1,0,-1
EndSplineSet
EndChar

StartChar: braceright
Encoding: 125 125 96
Width: 1024
GlyphClass: 2
Flags: W
LayerCount: 2
Fore
SplineSet
187 1280 m 1,0,-1
 187 1437 l 1,1,-1
 187 1452 l 1,2,-1
 202 1452 l 1,3,-1
 320 1452 l 2,4,5
 364.103448007 1452 364.103448007 1452 403.981631518 1445.81815776 c 128,-1,6
 443.859815029 1439.63631553 443.859815029 1439.63631553 479.533500485 1427.25423617 c 128,-1,7
 515.207185941 1414.87215681 515.207185941 1414.87215681 546.574652644 1396.15045287 c 128,-1,8
 577.942119347 1377.42874893 577.942119347 1377.42874893 604.725232726 1352.47472622 c 0,9,10
 712.631174995 1251.93797026 712.631174995 1251.93797026 696.932111373 1086.57450011 c 2,11,-1
 658.500178189 684 l 1,12,-1
 960 684 l 1,13,-1
 975 684 l 1,14,-1
 975 669 l 1,15,-1
 975 512 l 1,16,-1
 975 497 l 1,17,-1
 960 497 l 1,18,-1
 658.500178189 497 l 1,19,-1
 696.932111373 94.4254998924 l 1,20,-1
 697 93 l 1,21,22
 697 -75.3752435503 697 -75.3752435503 595.409972943 -173.299651074 c 0,23,24
 494.052391705 -271 494.052391705 -271 320 -271 c 2,25,-1
 202 -271 l 1,26,-1
 187 -271 l 1,27,-1
 187 -256 l 1,28,-1
 187 -99 l 1,29,-1
 187 -84 l 1,30,-1
 202 -84 l 1,31,-1
 320 -84 l 2,32,33
 403.828796793 -84 403.828796793 -84 451.9442684 -36.3427709803 c 0,34,35
 499.785287711 11.0426195757 499.785287711 11.0426195757 497.009753943 92.458276762 c 2,36,-1
 481.010924424 511.427624799 l 1,37,-1
 480.477803016 525.388741674 l 1,38,-1
 494.365947387 526.910730098 l 1,39,-1
 627 541.445968741 l 1,40,-1
 627 639.554031259 l 1,41,-1
 494.365947387 654.089269902 l 1,42,-1
 480.477803016 655.611258326 l 1,43,-1
 481.010924424 669.572375201 l 1,44,-1
 497.000819653 1088.30775651 l 2,45,46
 496.845403149 1130.89942287 496.845403149 1130.89942287 485.143474113 1162.62233718 c 128,-1,47
 473.441545076 1194.34525149 473.441545076 1194.34525149 449.893398282 1217.89339828 c 0,48,49
 402.786796564 1265 402.786796564 1265 320 1265 c 2,50,-1
 202 1265 l 1,51,-1
 187 1265 l 1,52,-1
 187 1280 l 1,0,-1
EndSplineSet
EndChar

StartChar: asciitilde
Encoding: 126 126 97
Width: 1024
GlyphClass: 2
Flags: W
LayerCount: 2
Fore
SplineSet
49 379 m 2,0,1
 49 585.611613776 49 585.611613776 74.3423545412 702.186444665 c 0,2,3
 100.343251027 821.790568501 100.343251027 821.790568501 159.297033601 876.495429808 c 0,4,5
 219.112638371 932 219.112638371 932 325 932 c 0,6,7
 358.231908224 932 358.231908224 932 387.318127815 927.283569347 c 128,-1,8
 416.404347407 922.567138694 416.404347407 922.567138694 441.364708999 913.007851275 c 0,9,10
 491.893716545 893.656316471 491.893716545 893.656316471 519.361149424 861.794094331 c 0,11,12
 525.964327756 854.134407466 525.964327756 854.134407466 532.069667325 845.916472297 c 128,-1,13
 538.175006894 837.698537129 538.175006894 837.698537129 543.764855787 828.949521482 c 128,-1,14
 549.35470468 820.200505836 549.35470468 820.200505836 554.434744387 810.926854272 c 128,-1,15
 559.514784093 801.653202709 559.514784093 801.653202709 564.0927471 791.84328198 c 0,16,17
 582.465741882 752.472578875 582.465741882 752.472578875 589.300941278 710.935597932 c 0,18,19
 595.743587822 671.784130472 595.743587822 671.784130472 603.669892546 634.629577077 c 0,20,21
 611.552579985 597.67947971 611.552579985 597.67947971 619.894428158 569.219056529 c 0,22,23
 627.226181438 544.204839457 627.226181438 544.204839457 643.674201541 529.022051669 c 0,24,25
 658.864757516 515 658.864757516 515 683 515 c 0,26,27
 714.892062136 515 714.892062136 515 736.510788005 533.450864264 c 128,-1,28
 758.129513874 551.901728529 758.129513874 551.901728529 771.237486577 592.145504372 c 0,29,30
 799 677.381291196 799 677.381291196 799 901 c 2,31,-1
 799 916 l 1,32,-1
 814 916 l 1,33,-1
 960 916 l 1,34,-1
 975 916 l 1,35,-1
 975 901 l 2,36,37
 975 694.388386224 975 694.388386224 949.657645459 577.813555335 c 0,38,39
 943.234580618 548.267457069 943.234580618 548.267457069 934.848500914 522.786165695 c 128,-1,40
 926.462421209 497.304874321 926.462421209 497.304874321 915.918472305 475.46536791 c 128,-1,41
 905.374523401 453.6258615 905.374523401 453.6258615 892.539898107 435.708047021 c 128,-1,42
 879.705272813 417.790232542 879.705272813 417.790232542 864.64937934 403.955087189 c 128,-1,43
 849.538250448 390.069184964 849.538250448 390.069184964 831.437399318 379.684541711 c 128,-1,44
 813.336548188 369.299898458 813.336548188 369.299898458 792.532141054 362.515952376 c 128,-1,45
 771.727733921 355.732006294 771.727733921 355.732006294 748.37940028 352.366003147 c 128,-1,46
 725.031066639 349 725.031066639 349 699 349 c 0,47,48
 632.225901559 349 632.225901559 349 582.635291001 367.992148725 c 0,49,50
 532.106283455 387.343683529 532.106283455 387.343683529 504.638850576 419.205905669 c 0,51,52
 478.284449605 449.777010795 478.284449605 449.777010795 459.9072529 489.15671802 c 128,-1,53
 441.534258118 528.527421125 441.534258118 528.527421125 434.699058722 570.064402068 c 0,54,55
 431.477142281 589.643740441 431.477142281 589.643740441 427.884789148 608.720374118 c 128,-1,56
 424.292436014 627.797007795 424.292436014 627.797007795 420.330107454 646.370422923 c 0,57,58
 412.447420015 683.32052029 412.447420015 683.32052029 404.105571842 711.780943471 c 0,59,60
 396.773818562 736.795160543 396.773818562 736.795160543 380.325798459 751.977948331 c 0,61,62
 365.135242484 766 365.135242484 766 341 766 c 0,63,64
 309.130018826 766 309.130018826 766 287.508958718 747.440966276 c 128,-1,65
 265.887898611 728.881932552 265.887898611 728.881932552 252.77027027 688.378378378 c 0,66,67
 225 602.631578947 225 602.631578947 225 379 c 2,68,-1
 225 364 l 1,69,-1
 210 364 l 1,70,-1
 64 364 l 1,71,-1
 49 364 l 1,72,-1
 49 379 l 2,0,1
EndSplineSet
EndChar

StartChar: cent
Encoding: 162 162 100
Width: 1024
GlyphClass: 2
Flags: W
LayerCount: 2
Fore
SplineSet
512 1295 m 1,0,-1
 682 1295 l 1,1,-1
 697 1295 l 1,2,-1
 697 1280 l 1,3,-1
 697 1045.92127886 l 1,4,5
 739.844227641 1045.44091112 739.844227641 1045.44091112 778.650447483 1042.45581728 c 0,6,7
 790.25508268 1041.56315304 790.25508268 1041.56315304 800.123625392 1040.6585832 c 128,-1,8
 809.992168105 1039.75401336 809.992168105 1039.75401336 818.523173874 1038.7952615 c 128,-1,9
 827.054179642 1037.83650965 827.054179642 1037.83650965 834.11811516 1036.82147321 c 128,-1,10
 841.182050677 1035.80643677 841.182050677 1035.80643677 846.874272299 1034.72220408 c 2,11,-1
 866.941742027 1030.70871014 l 1,12,-1
 879 1028.29705854 l 1,13,-1
 879 1016 l 1,14,-1
 879 867 l 1,15,-1
 879 852 l 1,16,-1
 864 852 l 1,17,-1
 676 852 l 1,18,-1
 676 428 l 1,19,-1
 864 428 l 1,20,-1
 879 428 l 1,21,-1
 879 413 l 1,22,-1
 879 264 l 1,23,-1
 879 252.041723082 l 1,24,-1
 867.342372023 249.377122401 l 2,25,26
 800.742291634 234.154246884 800.742291634 234.154246884 697 233.072622991 c 1,27,-1
 697 0 l 1,28,-1
 697 -15 l 1,29,-1
 682 -15 l 1,30,-1
 512 -15 l 1,31,-1
 497 -15 l 1,32,-1
 497 0 l 1,33,-1
 497 240.648547823 l 1,34,35
 309.743101991 264.046615595 309.743101991 264.046615595 206.061391767 355.765051563 c 0,36,37
 97 452.242436587 97 452.242436587 97 640 c 0,38,39
 97 799.466912168 97 799.466912168 209.202136679 905.40660401 c 0,40,41
 316.161438989 1006.3960848 316.161438989 1006.3960848 497 1035.86717976 c 1,42,-1
 497 1280 l 1,43,-1
 497 1295 l 1,44,-1
 512 1295 l 1,0,-1
518 841.269657663 m 1,45,46
 466.616148602 831.765206506 466.616148602 831.765206506 426.988683043 814.518630995 c 128,-1,47
 387.361217483 797.272055484 387.361217483 797.272055484 358.310959843 772.15341166 c 0,48,49
 327.320756085 745.357370817 327.320756085 745.357370817 312.160378042 712.643096745 c 128,-1,50
 297 679.928822674 297 679.928822674 297 640 c 0,51,52
 297 608.071125328 297 608.071125328 303.606543345 581.680031411 c 128,-1,53
 310.21308669 555.288937495 310.21308669 555.288937495 323.147654033 534.488900089 c 128,-1,54
 336.082221376 513.688862683 336.082221376 513.688862683 355.567209568 497.552856837 c 0,55,56
 411.620955348 451.133348613 411.620955348 451.133348613 518 436.026912144 c 1,57,-1
 518 841.269657663 l 1,45,46
EndSplineSet
EndChar

StartChar: sterling
Encoding: 163 163 101
Width: 1024
GlyphClass: 2
Flags: W
LayerCount: 2
Fore
SplineSet
618 1303 m 0,0,1
 674.208355392 1303 674.208355392 1303 727.823010331 1286.86355046 c 0,2,3
 745.555140074 1281.52669587 745.555140074 1281.52669587 761.466924242 1275.38456223 c 128,-1,4
 777.37870841 1269.2424286 777.37870841 1269.2424286 791.694211975 1262.1737167 c 128,-1,5
 806.00971554 1255.10500481 806.00971554 1255.10500481 818.530026089 1247.16959672 c 0,6,7
 854.796361309 1224.1838913 854.796361309 1224.1838913 882.998566854 1201.10935949 c 0,8,9
 911.493453252 1177.79536153 911.493453252 1177.79536153 925.312056851 1161.85081891 c 2,10,-1
 939.288650421 1145.87756912 l 1,11,-1
 947.842941146 1136.10123686 l 1,12,-1
 939.388849035 1126.2381294 l 1,13,-1
 843.388849035 1014.2381294 l 1,14,-1
 831.219544457 1000.04060739 l 1,15,-1
 820 1015 l 2,16,17
 817.317785123 1018.5762865 817.317785123 1018.5762865 811.164663758 1025.67604192 c 0,18,19
 805.38391555 1032.34613601 805.38391555 1032.34613601 784.71637128 1050.12983689 c 128,-1,20
 764.149386144 1067.82701015 764.149386144 1067.82701015 742.200795797 1081.18702167 c 0,21,22
 731.640183824 1087.61522026 731.640183824 1087.61522026 717.651471298 1093.66171221 c 128,-1,23
 703.662758771 1099.70820416 703.662758771 1099.70820416 686.435565461 1105.21133536 c 0,24,25
 669.513520626 1110.61698857 669.513520626 1110.61698857 652.428293713 1113.30849428 c 128,-1,26
 635.343066799 1116 635.343066799 1116 618 1116 c 0,27,28
 525.213203436 1116 525.213203436 1116 472.106601718 1062.89339828 c 128,-1,29
 419 1009.78679656 419 1009.78679656 419 917 c 2,30,-1
 419 734 l 1,31,-1
 832 734 l 1,32,-1
 847 734 l 1,33,-1
 847 719 l 1,34,-1
 847 561 l 1,35,-1
 847 546 l 1,36,-1
 832 546 l 1,37,-1
 419 546 l 1,38,-1
 419 172 l 1,39,-1
 928 172 l 1,40,-1
 943 172 l 1,41,-1
 943 157 l 1,42,-1
 943 0 l 1,43,-1
 943 -15 l 1,44,-1
 928 -15 l 1,45,-1
 64 -15 l 1,46,-1
 49 -15 l 1,47,-1
 49 0 l 1,48,-1
 49 157 l 1,49,-1
 49 172 l 1,50,-1
 64 172 l 1,51,-1
 219 172 l 1,52,-1
 219 546 l 1,53,-1
 64 546 l 1,54,-1
 49 546 l 1,55,-1
 49 561 l 1,56,-1
 49 719 l 1,57,-1
 49 734 l 1,58,-1
 64 734 l 1,59,-1
 219 734 l 1,60,-1
 219 917 l 2,61,62
 219 1095.36560816 219 1095.36560816 326.578278812 1199.2883144 c 0,63,64
 433.938114162 1303 433.938114162 1303 618 1303 c 0,0,1
EndSplineSet
EndChar

StartChar: currency
Encoding: 164 164 102
Width: 1024
GlyphClass: 2
Flags: W
LayerCount: 2
Fore
SplineSet
208.780158654 1255.85286857 m 1,0,-1
 354.899529491 1018.05075525 l 1,1,2
 423.675917027 1047 423.675917027 1047 512 1047 c 0,3,4
 599.674472095 1046.63918842 599.674472095 1046.63918842 669.069684197 1018.00065203 c 1,5,-1
 815.219841346 1255.85286857 l 1,6,-1
 823.197350835 1268.83587421 l 1,7,-1
 836.053132383 1260.65492232 l 1,8,-1
 968.053132383 1176.65492232 l 1,9,-1
 980.921853665 1168.46573605 l 1,10,-1
 972.518241788 1155.73600444 l 1,11,-1
 809.355886026 908.578826486 l 1,12,13
 887 802.174221985 887 802.174221985 887 640 c 128,-1,14
 887 477.825778015 887 477.825778015 809.355886026 371.421173514 c 1,15,-1
 972.518241788 124.263995555 l 1,16,-1
 980.921853665 111.534263954 l 1,17,-1
 968.053132383 103.345077684 l 1,18,-1
 836.053132383 19.345077684 l 1,19,-1
 823.197350835 11.1641257902 l 1,20,-1
 815.219841346 24.1471314296 l 1,21,-1
 669.069684197 261.999347966 l 1,22,23
 633.934456231 247.37991487 633.934456231 247.37991487 594.812455117 240.189957435 c 128,-1,24
 555.690454003 233 555.690454003 233 512 233 c 0,25,26
 424.625131942 233 424.625131942 233 354.930315803 261.999347966 c 1,27,-1
 208.780158654 24.1471314296 l 1,28,-1
 200.802649165 11.1641257902 l 1,29,-1
 187.946867617 19.345077684 l 1,30,-1
 55.9468676171 103.345077684 l 1,31,-1
 43.0781463349 111.534263954 l 1,32,-1
 51.4817582121 124.263995555 l 1,33,-1
 214.644113974 371.421173514 l 1,34,35
 137 477.825778015 137 477.825778015 137 640 c 128,-1,36
 137 802.174221985 137 802.174221985 214.644113974 908.578826486 c 1,37,-1
 51.4817582121 1155.73600444 l 1,38,-1
 43.0781463349 1168.46573605 l 1,39,-1
 55.9468676171 1176.65492232 l 1,40,-1
 187.946867617 1260.65492232 l 1,41,-1
 200.802649165 1268.83587421 l 1,42,-1
 208.780158654 1255.85286857 l 1,0,-1
512 871 m 0,43,44
 482.551093495 871 482.551093495 871 457.683783374 864.269063737 c 128,-1,45
 432.816473253 857.538127474 432.816473253 857.538127474 412.322632318 844.143352633 c 128,-1,46
 391.828791384 830.748577793 391.828791384 830.748577793 375.066296666 810.449042905 c 0,47,48
 349.711462567 779.744106197 349.711462567 779.744106197 336.855731283 737.2865581 c 128,-1,49
 324 694.829010003 324 694.829010003 324 640 c 128,-1,50
 324 585.174968926 324 585.174968926 336.856944223 542.713962483 c 128,-1,51
 349.713888446 500.25295604 349.713888446 500.25295604 375.066296666 469.550957095 c 0,52,53
 425.066708207 409 425.066708207 409 512 409 c 0,54,55
 556.067971878 409 556.067971878 409 589.926578115 424.047934944 c 128,-1,56
 623.785184352 439.095869888 623.785184352 439.095869888 648.933703334 469.550957095 c 0,57,58
 674.288537433 500.255893803 674.288537433 500.255893803 687.144268717 542.7134419 c 128,-1,59
 700 585.170989997 700 585.170989997 700 640 c 0,60,61
 700 748.607289144 700 748.607289144 648.933703334 810.449042905 c 0,62,63
 598.933291793 871 598.933291793 871 512 871 c 0,43,44
EndSplineSet
EndChar

StartChar: yen
Encoding: 165 165 103
Width: 1024
GlyphClass: 2
Flags: W
LayerCount: 2
Fore
SplineSet
32 1295 m 1,0,-1
 223 1295 l 1,1,-1
 232.284821995 1295 l 1,2,-1
 236.425654157 1286.6896794 l 1,3,-1
 512 733.633898814 l 1,4,-1
 787.574345843 1286.6896794 l 1,5,-1
 791.715178005 1295 l 1,6,-1
 801 1295 l 1,7,-1
 992 1295 l 1,8,-1
 1016.57353895 1295 l 1,9,-1
 1005.34134633 1273.14372709 l 1,10,-1
 702.573538951 684 l 1,11,-1
 960 684 l 1,12,-1
 975 684 l 1,13,-1
 975 669 l 1,14,-1
 975 512 l 1,15,-1
 975 497 l 1,16,-1
 960 497 l 1,17,-1
 612 497 l 1,18,-1
 612 370 l 1,19,-1
 960 370 l 1,20,-1
 975 370 l 1,21,-1
 975 355 l 1,22,-1
 975 198 l 1,23,-1
 975 183 l 1,24,-1
 960 183 l 1,25,-1
 612 183 l 1,26,-1
 612 0 l 1,27,-1
 612 -15 l 1,28,-1
 597 -15 l 1,29,-1
 427 -15 l 1,30,-1
 412 -15 l 1,31,-1
 412 0 l 1,32,-1
 412 183 l 1,33,-1
 64 183 l 1,34,-1
 49 183 l 1,35,-1
 49 198 l 1,36,-1
 49 355 l 1,37,-1
 49 370 l 1,38,-1
 64 370 l 1,39,-1
 412 370 l 1,40,-1
 412 497 l 1,41,-1
 64 497 l 1,42,-1
 49 497 l 1,43,-1
 49 512 l 1,44,-1
 49 669 l 1,45,-1
 49 684 l 1,46,-1
 64 684 l 1,47,-1
 321.426461049 684 l 1,48,-1
 18.6586536731 1273.14372709 l 1,49,-1
 7.42646104947 1295 l 1,50,-1
 32 1295 l 1,0,-1
EndSplineSet
EndChar

StartChar: brokenbar
Encoding: 166 166 104
Width: 1024
GlyphClass: 2
Flags: W
LayerCount: 2
Fore
SplineSet
427 1452 m 1,0,-1
 597 1452 l 1,1,-1
 612 1452 l 1,2,-1
 612 1437 l 1,3,-1
 612 733 l 1,4,-1
 612 718 l 1,5,-1
 597 718 l 1,6,-1
 427 718 l 1,7,-1
 412 718 l 1,8,-1
 412 733 l 1,9,-1
 412 1437 l 1,10,-1
 412 1452 l 1,11,-1
 427 1452 l 1,0,-1
427 463 m 1,12,-1
 597 463 l 1,13,-1
 612 463 l 1,14,-1
 612 448 l 1,15,-1
 612 -256 l 1,16,-1
 612 -271 l 1,17,-1
 597 -271 l 1,18,-1
 427 -271 l 1,19,-1
 412 -271 l 1,20,-1
 412 -256 l 1,21,-1
 412 448 l 1,22,-1
 412 463 l 1,23,-1
 427 463 l 1,12,-1
EndSplineSet
EndChar

StartChar: section
Encoding: 167 167 105
Width: 1024
GlyphClass: 2
Flags: W
LayerCount: 2
Fore
SplineSet
661 1303 m 0,0,1
 689.283520947 1303 689.283520947 1303 716.202891168 1301.98894531 c 128,-1,2
 743.122261389 1300.97789063 743.122261389 1300.97789063 768.684409192 1298.95316605 c 0,3,4
 819.881341338 1294.8979635 819.881341338 1294.8979635 843.570117621 1290.77817632 c 2,5,-1
 866.570117621 1286.77817632 l 1,6,-1
 879 1284.61645765 l 1,7,-1
 879 1272 l 1,8,-1
 879 1142 l 1,9,-1
 879 1127 l 1,10,-1
 864 1127 l 1,11,-1
 661 1127 l 2,12,13
 582.080837426 1127 582.080837426 1127 522.44141028 1116.74948897 c 128,-1,14
 462.801983134 1106.49897794 462.801983134 1106.49897794 423.240281314 1086.59967882 c 0,15,16
 348 1048.75426786 348 1048.75426786 348 960 c 0,17,18
 348 944.303045195 348 944.303045195 354.426245655 931.356701545 c 128,-1,19
 360.85249131 918.410357894 360.85249131 918.410357894 374.567209568 907.052856837 c 0,20,21
 404.299473853 882.430825475 404.299473853 882.430825475 452.490101118 867.312197314 c 0,22,23
 503.081303542 851.440447534 503.081303542 851.440447534 564.165852029 836.045154826 c 0,24,25
 626.557442061 820.320445143 626.557442061 820.320445143 689.414911538 795.988521474 c 0,26,27
 753.045755778 771.35722693 753.045755778 771.35722693 805.487637454 735.36770029 c 0,28,29
 832.609728394 716.754500625 832.609728394 716.754500625 854.605886372 690.783323056 c 128,-1,30
 876.60204435 664.812145486 876.60204435 664.812145486 893.373683021 631.792981852 c 128,-1,31
 910.242813781 598.581880669 910.242813781 598.581880669 918.621406891 559.830878507 c 128,-1,32
 927 521.079876346 927 521.079876346 927 477 c 0,33,34
 927 307.88395515 927 307.88395515 823.035990313 206.20201981 c 0,35,36
 824.338724879 204.31305469 824.338724879 204.31305469 825.523039288 202.543753062 c 128,-1,37
 826.707353696 200.774451434 826.707353696 200.774451434 828.064158953 198.694016708 c 0,38,39
 836.619389409 185.575996675 836.619389409 185.575996675 849.730249471 146.24341649 c 0,40,41
 854.149074191 132.986942331 854.149074191 132.986942331 857.099360667 119.409257507 c 128,-1,42
 860.049647144 105.831572683 860.049647144 105.831572683 861.524823572 91.9747380876 c 128,-1,43
 863 78.1179034919 863 78.1179034919 863 64 c 0,44,45
 863 16.9225015186 863 16.9225015186 854.376442917 -23.5829836082 c 128,-1,46
 845.752885834 -64.088468735 845.752885834 -64.088468735 828.332047511 -97.8743369979 c 0,47,48
 793.325124713 -165.766550909 793.325124713 -165.766550909 725.039306861 -205.4676078 c 0,49,50
 658.355647822 -244.237177009 658.355647822 -244.237177009 568.876631079 -261.721582579 c 0,51,52
 480.451788984 -279 480.451788984 -279 363 -279 c 0,53,54
 306.406869449 -279 306.406869449 -279 255.315590808 -274.953166048 c 128,-1,55
 204.118658662 -270.897963502 204.118658662 -270.897963502 180.429882379 -266.778176322 c 2,56,-1
 157.429882379 -262.778176322 l 1,57,-1
 145 -260.616457648 l 1,58,-1
 145 -248 l 1,59,-1
 145 -118 l 1,60,-1
 145 -103 l 1,61,-1
 160 -103 l 1,62,-1
 363 -103 l 2,63,64
 520.440032525 -103 520.440032525 -103 600.759718686 -62.5996788168 c 0,65,66
 638.964594134 -43.3828552382 638.964594134 -43.3828552382 657.482297067 -12.335196463 c 128,-1,67
 676 18.7124623121 676 18.7124623121 676 64 c 0,68,69
 676 94.9461727401 676 94.9461727401 649.432790432 116.947143163 c 0,70,71
 634.717197512 129.13349355 634.717197512 129.13349355 615.244167452 139.104963646 c 128,-1,72
 595.771137393 149.076433742 595.771137393 149.076433742 571.509898882 156.687802686 c 0,73,74
 546.235831655 164.616921816 546.235831655 164.616921816 518.312677481 172.435409367 c 128,-1,75
 490.389523308 180.253896919 490.389523308 180.253896919 459.834147971 187.954845174 c 0,76,77
 397.442557939 203.679554857 397.442557939 203.679554857 334.585088462 228.011478526 c 0,78,79
 270.954244222 252.64277307 270.954244222 252.64277307 218.512362546 288.63229971 c 0,80,81
 204.930072121 297.953479414 204.930072121 297.953479414 192.60892587 309.147618068 c 128,-1,82
 180.287779619 320.341756722 180.287779619 320.341756722 169.30763784 333.318239648 c 128,-1,83
 158.32749606 346.294722575 158.32749606 346.294722575 148.66109367 361.013251909 c 128,-1,84
 138.99469128 375.731781243 138.99469128 375.731781243 130.626316979 392.207018148 c 0,85,86
 97 458.4088297 97 458.4088297 97 547 c 0,87,88
 97 716.11604485 97 716.11604485 200.964009687 817.79798019 c 1,89,90
 198.541743943 821.310265519 198.541743943 821.310265519 195.935841047 825.305983292 c 0,91,92
 191.113130186 832.700806612 191.113130186 832.700806612 186.065639715 845.106096988 c 128,-1,93
 181.018149244 857.511387364 181.018149244 857.511387364 174.269750529 877.75658351 c 0,94,95
 167.641297821 897.641941635 167.641297821 897.641941635 164.32064891 918.229821947 c 128,-1,96
 161 938.81770226 161 938.81770226 161 960 c 0,97,98
 161 991.331362798 161 991.331362798 164.793885658 1019.6668257 c 128,-1,99
 168.587771315 1048.0022886 168.587771315 1048.0022886 176.311227502 1073.65756729 c 128,-1,100
 184.034683688 1099.31284599 184.034683688 1099.31284599 195.667952489 1121.874337 c 0,101,102
 230.674875287 1189.76655091 230.674875287 1189.76655091 298.960693139 1229.4676078 c 0,103,104
 365.644352178 1268.23717701 365.644352178 1268.23717701 455.123368921 1285.72158258 c 0,105,106
 484.7023779 1291.50138893 484.7023779 1291.50138893 517.480189775 1295.34392676 c 128,-1,107
 550.258001651 1299.1864646 550.258001651 1299.1864646 586.085590002 1301.0932323 c 128,-1,108
 621.913178353 1303 621.913178353 1303 661 1303 c 0,0,1
358.228556938 709.218145737 m 1,109,110
 333.258696549 690.822436403 333.258696549 690.822436403 316.852590291 667.114892378 c 128,-1,111
 300.446484034 643.407348352 300.446484034 643.407348352 292.223242017 613.482512498 c 128,-1,112
 284 583.557676644 284 583.557676644 284 547 c 0,113,114
 284 526.71610616 284 526.71610616 288.172689036 509.23539438 c 128,-1,115
 292.345378072 491.754682601 292.345378072 491.754682601 300.630805793 476.751340513 c 0,116,117
 309.131319969 461.358517545 309.131319969 461.358517545 319.631662876 449.277462351 c 128,-1,118
 330.132005782 437.196407156 330.132005782 437.196407156 342.718572906 428.206002068 c 0,119,120
 346.446438336 425.543241046 346.446438336 425.543241046 350.493627671 422.9133495 c 128,-1,121
 354.540817006 420.283457953 354.540817006 420.283457953 358.936614836 417.670634978 c 128,-1,122
 363.332412667 415.057812002 363.332412667 415.057812002 368.041827724 412.484593989 c 128,-1,123
 372.751242781 409.911375977 372.751242781 409.911375977 377.813688604 407.359915716 c 128,-1,124
 382.876134427 404.808455456 382.876134427 404.808455456 388.245815535 402.303472067 c 128,-1,125
 393.615496644 399.798488678 393.615496644 399.798488678 399.342630788 397.319952224 c 128,-1,126
 405.069764932 394.841415769 405.069764932 394.841415769 411.098427685 392.416091673 c 0,127,128
 453.660935374 375.293243752 453.660935374 375.293243752 492.181328005 365.541245618 c 0,129,130
 531.901970634 355.485386725 531.901970634 355.485386725 584.620816918 340.422859215 c 0,131,132
 631.824218611 326.936173017 631.824218611 326.936173017 665.771443062 314.781854263 c 1,133,134
 703.22053162 342.371217488 703.22053162 342.371217488 721.61026581 382.343084295 c 128,-1,135
 740 422.314951103 740 422.314951103 740 477 c 0,136,137
 740 490.559936227 740 490.559936227 738.119633909 502.907496409 c 128,-1,138
 736.239267817 515.255056592 736.239267817 515.255056592 732.560479618 526.260813268 c 128,-1,139
 728.881691418 537.266569943 728.881691418 537.266569943 723.369194207 547.248659487 c 0,140,141
 717.690003772 557.532598924 717.690003772 557.532598924 711.097342389 566.356911876 c 128,-1,142
 704.504681007 575.181224829 704.504681007 575.181224829 697.082360121 582.495249901 c 128,-1,143
 689.660039235 589.809274974 689.660039235 589.809274974 681.281427094 595.793997932 c 0,144,145
 674.747600445 600.461016967 674.747600445 600.461016967 667.226063183 605.029119234 c 128,-1,146
 659.704525921 609.597221501 659.704525921 609.597221501 651.165955527 614.080380112 c 128,-1,147
 642.627385133 618.563538723 642.627385133 618.563538723 633.030884488 622.955054539 c 128,-1,148
 623.434383844 627.346570355 623.434383844 627.346570355 612.901572315 631.583908327 c 0,149,150
 591.59233997 640.156588006 591.59233997 640.156588006 571.316081686 646.874614054 c 128,-1,151
 551.039823402 653.592640102 551.039823402 653.592640102 531.818671995 658.458754382 c 0,152,153
 492.098029366 668.514613275 492.098029366 668.514613275 439.379183082 683.577140785 c 0,154,155
 392.175781389 697.063826983 392.175781389 697.063826983 358.228556938 709.218145737 c 1,109,110
EndSplineSet
EndChar

StartChar: copyright
Encoding: 169 169 107
Width: 1024
GlyphClass: 2
Flags: W
LayerCount: 2
Fore
SplineSet
512 1311 m 128,-1,1
 742.092237601 1311 742.092237601 1311 875.092839966 1149.01872163 c 0,2,3
 1007 988.369145405 1007 988.369145405 1007 712 c 128,-1,4
 1007 435.630854595 1007 435.630854595 875.092839966 274.981278367 c 0,5,6
 742.092237601 113 742.092237601 113 512 113 c 128,-1,7
 281.907762399 113 281.907762399 113 148.907160034 274.981278367 c 0,8,9
 17 435.630854595 17 435.630854595 17 712 c 128,-1,10
 17 988.369145405 17 988.369145405 148.907160034 1149.01872163 c 0,11,0
 281.907762399 1311 281.907762399 1311 512 1311 c 128,-1,1
512 1153 m 128,-1,13
 359.475474208 1153 359.475474208 1153 271.976398754 1036.96861733 c 0,14,15
 183 918.978175507 183 918.978175507 183 712 c 128,-1,16
 183 505.021824493 183 505.021824493 271.976398754 387.031382667 c 0,17,18
 359.475474208 271 359.475474208 271 512 271 c 0,19,20
 588.844542311 271 588.844542311 271 648.442344613 299.852748788 c 128,-1,21
 708.040146914 328.705497575 708.040146914 328.705497575 752.023601246 387.031382667 c 0,22,23
 841 505.021824493 841 505.021824493 841 712 c 128,-1,24
 841 918.978175507 841 918.978175507 752.023601246 1036.96861733 c 0,25,12
 664.524525792 1153 664.524525792 1153 512 1153 c 128,-1,13
572 991 m 0,26,27
 609.792225674 991 609.792225674 991 644.534000384 982.577751585 c 128,-1,28
 679.381478605 974.129878077 679.381478605 974.129878077 696.058823529 965.235294118 c 2,29,-1
 711.058823529 957.235294118 l 1,30,-1
 719 953 l 1,31,-1
 719 944 l 1,32,-1
 719 840 l 1,33,-1
 719 825 l 1,34,-1
 704 825 l 1,35,-1
 572 825 l 1,36,-1
 571.263185612 825.018107444 l 2,37,38
 516.904680008 827.691476572 516.904680008 827.691476572 486.106601718 796.893398282 c 0,39,40
 455 765.786796564 455 765.786796564 455 712 c 0,41,42
 455 698.445189969 455 698.445189969 456.960954339 686.56097071 c 128,-1,43
 458.921908678 674.676751452 458.921908678 674.676751452 462.843777551 664.423877033 c 128,-1,44
 466.765646424 654.171002613 466.765646424 654.171002613 472.50974392 645.455647066 c 128,-1,45
 478.253841417 636.740291519 478.253841417 636.740291519 485.954012155 629.257027 c 0,46,47
 496.251024802 619.250071046 496.251024802 619.250071046 508.9137673 612.585841283 c 128,-1,48
 521.576509798 605.921611519 521.576509798 605.921611519 537.393158204 602.46080576 c 128,-1,49
 553.209806611 599 553.209806611 599 572 599 c 2,50,-1
 704 599 l 1,51,-1
 719 599 l 1,52,-1
 719 584 l 1,53,-1
 719 480 l 1,54,-1
 719 471.791013504 l 1,55,-1
 712.085805446 467.36592899 l 2,56,57
 658.389041399 433 658.389041399 433 572 433 c 0,58,59
 507.517023459 433 507.517023459 433 455.616991714 451.800796604 c 128,-1,60
 403.716959968 470.601593209 403.716959968 470.601593209 365.467827842 508.319487389 c 0,61,62
 289 583.725262067 289 583.725262067 289 712 c 128,-1,63
 289 840.274737933 289 840.274737933 365.467827842 915.680512611 c 128,-1,64
 441.848153082 991 441.848153082 991 572 991 c 0,26,27
EndSplineSet
EndChar

StartChar: ordfeminine
Encoding: 170 170 108
Width: 1024
GlyphClass: 2
Flags: W
LayerCount: 2
Fore
SplineSet
408 1299 m 0,0,1
 633.374165284 1299 633.374165284 1299 722.562702635 1242.14882707 c 0,2,3
 815 1183.22680711 815 1183.22680711 815 1034 c 2,4,-1
 815 648 l 2,5,6
 815 578.493914759 815 578.493914759 771.249772134 537.548188679 c 0,7,8
 727.924310257 497 727.924310257 497 654 497 c 2,9,-1
 469 497 l 2,10,11
 408.046378799 497 408.046378799 497 358.927027125 514.523900672 c 128,-1,12
 309.807675451 532.047801344 309.807675451 532.047801344 273.552869342 567.236289626 c 0,13,14
 249.312516144 590.76369126 249.312516144 590.76369126 233.127255803 620.252999414 c 128,-1,15
 216.941995463 649.742307568 216.941995463 649.742307568 208.970997731 684.400406824 c 128,-1,16
 201 719.058506079 201 719.058506079 201 759 c 0,17,18
 201 861.159976827 201 861.159976827 274.566961259 920.66266608 c 0,19,20
 346.693119559 979 346.693119559 979 469 979 c 2,21,-1
 639 979 l 1,22,-1
 639 1034 l 2,23,24
 639 1043.49801389 639 1043.49801389 637.788856728 1051.78159681 c 128,-1,25
 636.577713455 1060.06517974 636.577713455 1060.06517974 634.107351395 1067.27501756 c 128,-1,26
 631.636989335 1074.48485537 631.636989335 1074.48485537 627.953517129 1080.62476928 c 128,-1,27
 624.270044923 1086.76468319 624.270044923 1086.76468319 619.252821815 1091.99814396 c 128,-1,28
 614.235598706 1097.23160472 614.235598706 1097.23160472 608.008136262 1101.53812965 c 128,-1,29
 601.780673818 1105.84465457 601.780673818 1105.84465457 594.149766039 1109.41049932 c 0,30,31
 569.982471869 1120.70362744 569.982471869 1120.70362744 522.798718321 1126.85181372 c 128,-1,32
 475.614964772 1133 475.614964772 1133 408 1133 c 2,33,-1
 256 1133 l 1,34,-1
 241 1133 l 1,35,-1
 241 1148 l 1,36,-1
 241 1276 l 1,37,-1
 241 1289.07304948 l 1,38,-1
 253.950439043 1290.85931694 l 2,39,40
 312.970391238 1299 312.970391238 1299 408 1299 c 0,0,1
469 813 m 2,41,42
 423.441568121 813 423.441568121 813 398.667065127 796.918305074 c 0,43,44
 377 782.853718939 377 782.853718939 377 759 c 0,45,46
 377 713.06225716 377 713.06225716 401.287870851 687.922180314 c 0,47,48
 425.365231494 663 425.365231494 663 469 663 c 2,49,-1
 639 663 l 1,50,-1
 639 813 l 1,51,-1
 469 813 l 2,41,42
224 407 m 1,52,-1
 800 407 l 1,53,-1
 815 407 l 1,54,-1
 815 392 l 1,55,-1
 815 256 l 1,56,-1
 815 241 l 1,57,-1
 800 241 l 1,58,-1
 224 241 l 1,59,-1
 209 241 l 1,60,-1
 209 256 l 1,61,-1
 209 392 l 1,62,-1
 209 407 l 1,63,-1
 224 407 l 1,52,-1
EndSplineSet
EndChar

StartChar: guillemotleft
Encoding: 171 171 109
Width: 1024
GlyphClass: 2
Flags: W
LayerCount: 2
Fore
SplineSet
398.03313038 1114.66762868 m 1,0,-1
 521.03313038 1036.66762868 l 1,1,-1
 533.712234396 1028.62722125 l 1,2,-1
 525.660349736 1015.95540277 l 1,3,-1
 286.772020891 640 l 1,4,-1
 525.660349736 264.044597228 l 1,5,-1
 533.712234396 251.372778748 l 1,6,-1
 521.03313038 243.332371323 l 1,7,-1
 398.03313038 165.332371323 l 1,8,-1
 385.385497948 157.311921488 l 1,9,-1
 377.345077684 169.946867617 l 1,10,-1
 83.345077684 631.946867617 l 1,11,-1
 78.2203570767 640 l 1,12,-1
 83.345077684 648.053132383 l 1,13,-1
 377.345077684 1110.05313238 l 1,14,-1
 385.385497948 1122.68807851 l 1,15,-1
 398.03313038 1114.66762868 l 1,0,-1
813.03313038 1114.66762868 m 1,16,-1
 936.03313038 1036.66762868 l 1,17,-1
 948.712234396 1028.62722125 l 1,18,-1
 940.660349736 1015.95540277 l 1,19,-1
 701.772020891 640 l 1,20,-1
 940.660349736 264.044597228 l 1,21,-1
 948.712234396 251.372778748 l 1,22,-1
 936.03313038 243.332371323 l 1,23,-1
 813.03313038 165.332371323 l 1,24,-1
 800.385497948 157.311921488 l 1,25,-1
 792.345077684 169.946867617 l 1,26,-1
 498.345077684 631.946867617 l 1,27,-1
 493.220357077 640 l 1,28,-1
 498.345077684 648.053132383 l 1,29,-1
 792.345077684 1110.05313238 l 1,30,-1
 800.385497948 1122.68807851 l 1,31,-1
 813.03313038 1114.66762868 l 1,16,-1
EndSplineSet
EndChar

StartChar: logicalnot
Encoding: 172 172 110
Width: 1024
GlyphClass: 2
Flags: W
LayerCount: 2
Fore
SplineSet
128 734 m 1,0,-1
 896 734 l 1,1,-1
 911 734 l 1,2,-1
 911 719 l 1,3,-1
 911 256 l 1,4,-1
 911 241 l 1,5,-1
 896 241 l 1,6,-1
 739 241 l 1,7,-1
 724 241 l 1,8,-1
 724 256 l 1,9,-1
 724 546 l 1,10,-1
 128 546 l 1,11,-1
 113 546 l 1,12,-1
 113 561 l 1,13,-1
 113 719 l 1,14,-1
 113 734 l 1,15,-1
 128 734 l 1,0,-1
EndSplineSet
EndChar

